<svg width="371" height="221" viewBox="0 0 371 221" fill="none" xmlns="http://www.w3.org/2000/svg">
<rect x="0.900879" y="0.683594" width="370" height="220" rx="19"/>
<path d="M0.900879 146.26H370.901V201.683C370.901 212.177 362.394 220.683 351.901 220.683H19.9009C9.40748 220.683 0.900879 212.177 0.900879 201.683L0.900879 146.26Z" fill="white"/>
<path d="M31.2196 174.38C30.8416 177.782 28.6276 179.816 25.2616 179.816C21.2296 179.816 18.8536 177.278 18.8536 172.976C18.8536 168.674 21.2296 166.136 25.2616 166.136C28.6276 166.136 30.8416 168.152 31.2196 171.536H28.2496C27.9616 169.7 26.8456 168.584 25.2616 168.584C23.2636 168.584 22.0756 170.222 22.0756 172.976C22.0756 175.73 23.2636 177.368 25.2616 177.368C26.8816 177.368 27.9616 176.252 28.2496 174.38H31.2196ZM38.7728 170.51H41.7608V179.636H38.7728V176.414H38.7368C38.7368 178.538 37.5668 179.816 35.5688 179.816C33.3908 179.816 32.0768 178.052 32.0768 175.064C32.0768 172.094 33.3908 170.33 35.5688 170.33C37.5668 170.33 38.7368 171.59 38.7368 173.732H38.7728V170.51ZM37.0268 177.458C38.1968 177.458 38.8988 176.432 38.8988 175.064C38.8988 173.714 38.1968 172.67 37.0268 172.67C35.8388 172.67 35.1368 173.57 35.1368 175.064C35.1368 176.576 35.8388 177.458 37.0268 177.458ZM49.4395 170.33C51.4195 170.33 52.5895 171.752 52.5895 174.146V179.636H49.6015V174.29C49.6015 173.264 49.0615 172.67 48.1615 172.67C47.1535 172.67 46.5595 173.444 46.5595 174.74V179.636H43.5715V170.51H46.5595V173.768H46.5955C46.5955 171.608 47.6575 170.33 49.4395 170.33ZM63.5121 170.51H66.6981L63.7641 183.776H60.5781L61.5141 179.636H59.0841L57.0501 170.51H60.2361L61.8561 179.438H61.8921L63.5121 170.51ZM72.1714 179.816C69.0754 179.816 67.2394 178.052 67.2394 175.064C67.2394 172.094 69.0754 170.33 72.1714 170.33C75.2674 170.33 77.0854 172.094 77.0854 175.064C77.0854 178.052 75.2674 179.816 72.1714 179.816ZM72.1714 177.458C73.3594 177.458 74.0614 176.576 74.0614 175.064C74.0614 173.57 73.3594 172.67 72.1714 172.67C70.9834 172.67 70.2814 173.57 70.2814 175.064C70.2814 176.576 70.9834 177.458 72.1714 177.458ZM84.2133 170.51H87.2013V179.636H84.2133V176.378H84.1773C84.1773 178.538 83.1513 179.816 81.4233 179.816C79.4973 179.816 78.3633 178.394 78.3633 175.982V170.51H81.3513V175.838C81.3513 176.864 81.8373 177.476 82.6833 177.476C83.6373 177.476 84.2133 176.702 84.2133 175.406V170.51ZM96.2025 179.816C93.4845 179.816 91.8645 178.664 91.8645 176.684H94.6365C94.6365 177.512 95.2125 177.998 96.2025 177.998C97.1385 177.998 97.6785 177.638 97.6785 177.026C97.6785 176.252 96.7425 176.108 95.6445 175.946C94.0605 175.712 92.0985 175.406 92.0985 173.21C92.0985 171.41 93.6285 170.33 96.2025 170.33C98.7765 170.33 100.307 171.428 100.307 173.336H97.5345C97.5345 172.562 97.0485 172.112 96.2025 172.112C95.4105 172.112 94.9605 172.436 94.9605 172.94C94.9605 173.588 95.8605 173.75 96.9225 173.912C98.5065 174.164 100.541 174.488 100.541 176.648C100.541 178.646 98.9205 179.816 96.2025 179.816ZM110.689 175.064V175.388H104.299C104.371 176.774 105.019 177.584 106.081 177.584C106.963 177.584 107.611 177.116 107.809 176.342H110.689C110.347 178.52 108.619 179.816 106.081 179.816C103.129 179.816 101.401 178.052 101.401 175.064C101.401 172.076 103.129 170.33 106.081 170.33C108.979 170.33 110.689 172.076 110.689 175.064ZM106.081 172.544C105.091 172.544 104.443 173.264 104.317 174.524H107.791C107.647 173.264 107.053 172.544 106.081 172.544ZM117.902 170.33C119.882 170.33 121.052 171.752 121.052 174.146V179.636H118.064V174.29C118.064 173.264 117.524 172.67 116.624 172.67C115.616 172.67 115.022 173.444 115.022 174.74V179.636H112.034V170.51H115.022V173.768H115.058C115.058 171.608 116.12 170.33 117.902 170.33ZM129.045 165.776H132.033V179.636H129.045V176.414H129.009C129.009 178.538 127.839 179.816 125.841 179.816C123.663 179.816 122.349 178.052 122.349 175.064C122.349 172.094 123.663 170.33 125.841 170.33C127.839 170.33 129.009 171.59 129.009 173.732H129.045V165.776ZM127.299 177.458C128.469 177.458 129.171 176.432 129.171 175.064C129.171 173.714 128.469 172.67 127.299 172.67C126.111 172.67 125.409 173.57 125.409 175.064C125.409 176.576 126.111 177.458 127.299 177.458ZM148.87 170.33C150.796 170.33 151.93 171.716 151.93 174.056V179.636H148.942V174.2C148.942 173.228 148.456 172.67 147.61 172.67C146.656 172.67 146.098 173.408 146.098 174.65V179.636H143.11V174.2C143.11 173.228 142.606 172.67 141.76 172.67C140.806 172.67 140.248 173.408 140.248 174.65V179.636H137.26V170.51H140.248V173.75H140.284C140.284 171.608 141.346 170.33 143.146 170.33C145 170.33 146.098 171.626 146.098 173.75H146.134C146.134 171.608 147.142 170.33 148.87 170.33ZM162.487 175.064V175.388H156.097C156.169 176.774 156.817 177.584 157.879 177.584C158.761 177.584 159.409 177.116 159.607 176.342H162.487C162.145 178.52 160.417 179.816 157.879 179.816C154.927 179.816 153.199 178.052 153.199 175.064C153.199 172.076 154.927 170.33 157.879 170.33C160.777 170.33 162.487 172.076 162.487 175.064ZM157.879 172.544C156.889 172.544 156.241 173.264 156.115 174.524H159.589C159.445 173.264 158.851 172.544 157.879 172.544ZM173.513 170.51H176.501V179.636H173.513V176.414H173.477C173.477 178.538 172.307 179.816 170.309 179.816C168.131 179.816 166.817 178.052 166.817 175.064C166.817 172.094 168.131 170.33 170.309 170.33C172.307 170.33 173.477 171.59 173.477 173.732H173.513V170.51ZM171.767 177.458C172.937 177.458 173.639 176.432 173.639 175.064C173.639 173.714 172.937 172.67 171.767 172.67C170.579 172.67 169.877 173.57 169.877 175.064C169.877 176.576 170.579 177.458 171.767 177.458ZM181.512 170.006C181.512 167.864 182.718 166.46 184.77 166.298V167.774C183.114 167.846 182.016 168.458 181.674 169.448H184.752V172.562H181.512V170.006ZM188.946 167.774C187.29 167.846 186.192 168.458 185.85 169.448H188.928V172.562H185.688V170.006C185.688 167.864 186.894 166.46 188.946 166.298V167.774ZM199.215 166.316H202.167V179.636H197.109L193.779 166.568H193.743L193.887 179.636H190.917V166.316H195.993L199.323 179.384H199.359L199.215 166.316ZM212.99 175.064V175.388H206.6C206.672 176.774 207.32 177.584 208.382 177.584C209.264 177.584 209.912 177.116 210.11 176.342H212.99C212.648 178.52 210.92 179.816 208.382 179.816C205.43 179.816 203.702 178.052 203.702 175.064C203.702 172.076 205.43 170.33 208.382 170.33C211.28 170.33 212.99 172.076 212.99 175.064ZM208.382 172.544C207.392 172.544 206.744 173.264 206.618 174.524H210.092C209.948 173.264 209.354 172.544 208.382 172.544ZM219.956 170.51H223.142L221.126 179.636H215.51L213.494 170.51H216.68L218.3 179.438H218.336L219.956 170.51ZM232.988 175.064V175.388H226.598C226.67 176.774 227.318 177.584 228.38 177.584C229.262 177.584 229.91 177.116 230.108 176.342H232.988C232.646 178.52 230.918 179.816 228.38 179.816C225.428 179.816 223.7 178.052 223.7 175.064C223.7 172.076 225.428 170.33 228.38 170.33C231.278 170.33 232.988 172.076 232.988 175.064ZM228.38 172.544C227.39 172.544 226.742 173.264 226.616 174.524H230.09C229.946 173.264 229.352 172.544 228.38 172.544ZM239.968 170.33C240.472 170.33 240.994 170.438 241.354 170.636L240.49 173.264C240.148 173.048 239.698 172.94 239.284 172.94C238.042 172.94 237.322 173.966 237.322 175.748V179.636H234.334V170.51H237.322V174.47H237.358C237.358 171.86 238.33 170.33 239.968 170.33ZM253.494 166.316H256.608V179.636H253.494V174.092H248.49V179.636H245.358V166.316H248.49V171.698H253.494V166.316ZM264.874 170.51H267.862V179.636H264.874V176.414H264.838C264.838 178.538 263.668 179.816 261.67 179.816C259.492 179.816 258.178 178.052 258.178 175.064C258.178 172.094 259.492 170.33 261.67 170.33C263.668 170.33 264.838 171.59 264.838 173.732H264.874V170.51ZM263.128 177.458C264.298 177.458 265 176.432 265 175.064C265 173.714 264.298 172.67 263.128 172.67C261.94 172.67 261.238 173.57 261.238 175.064C261.238 176.576 261.94 177.458 263.128 177.458ZM275.451 170.51H278.637L276.621 179.636H271.005L268.989 170.51H272.175L273.795 179.438H273.831L275.451 170.51ZM288.484 175.064V175.388H282.094C282.166 176.774 282.814 177.584 283.876 177.584C284.758 177.584 285.406 177.116 285.604 176.342H288.484C288.142 178.52 286.414 179.816 283.876 179.816C280.924 179.816 279.196 178.052 279.196 175.064C279.196 172.076 280.924 170.33 283.876 170.33C286.774 170.33 288.484 172.076 288.484 175.064ZM283.876 172.544C282.886 172.544 282.238 173.264 282.112 174.524H285.586C285.442 173.264 284.848 172.544 283.876 172.544ZM293.246 168.962V166.478H296.234V168.962H293.246ZM293.246 179.636V170.51H296.234V179.636H293.246ZM310.305 175.064V175.388H303.915C303.987 176.774 304.635 177.584 305.697 177.584C306.579 177.584 307.227 177.116 307.425 176.342H310.305C309.963 178.52 308.235 179.816 305.697 179.816C302.745 179.816 301.017 178.052 301.017 175.064C301.017 172.076 302.745 170.33 305.697 170.33C308.595 170.33 310.305 172.076 310.305 175.064ZM305.697 172.544C304.707 172.544 304.059 173.264 303.933 174.524H307.407C307.263 173.264 306.669 172.544 305.697 172.544ZM317.271 170.51H320.457L318.441 179.636H312.825L310.809 170.51H313.995L315.615 179.438H315.651L317.271 170.51ZM330.304 175.064V175.388H323.914C323.986 176.774 324.634 177.584 325.696 177.584C326.578 177.584 327.226 177.116 327.424 176.342H330.304C329.962 178.52 328.234 179.816 325.696 179.816C322.744 179.816 321.016 178.052 321.016 175.064C321.016 172.076 322.744 170.33 325.696 170.33C328.594 170.33 330.304 172.076 330.304 175.064ZM325.696 172.544C324.706 172.544 324.058 173.264 323.932 174.524H327.406C327.262 173.264 326.668 172.544 325.696 172.544ZM337.284 170.33C337.788 170.33 338.31 170.438 338.67 170.636L337.806 173.264C337.464 173.048 337.014 172.94 336.6 172.94C335.358 172.94 334.638 173.966 334.638 175.748V179.636H331.65V170.51H334.638V174.47H334.674C334.674 171.86 335.646 170.33 337.284 170.33ZM339.3 169.43V166.316H342.54V168.872C342.54 171.014 341.334 172.418 339.282 172.58V171.104C340.938 171.032 342.036 170.42 342.378 169.43H339.3ZM343.476 166.316H346.716V168.872C346.716 171.014 345.51 172.418 343.458 172.58V171.104C345.114 171.032 346.212 170.42 346.554 169.43H343.476V166.316ZM35.8328 201.816C32.7548 201.816 30.9368 200.052 30.9368 197.064C30.9368 194.094 32.7548 192.33 35.8328 192.33C38.4788 192.33 40.1888 193.734 40.4948 196.146H37.5608C37.3268 195.21 36.7148 194.67 35.8328 194.67C34.6628 194.67 33.9788 195.57 33.9788 197.064C33.9788 198.576 34.6628 199.458 35.8328 199.458C36.7328 199.458 37.3448 198.918 37.5788 197.964H40.5128C40.2068 200.394 38.4968 201.816 35.8328 201.816ZM48.0105 192.51H50.9985V201.636H48.0105V198.414H47.9745C47.9745 200.538 46.8045 201.816 44.8065 201.816C42.6285 201.816 41.3145 200.052 41.3145 197.064C41.3145 194.094 42.6285 192.33 44.8065 192.33C46.8045 192.33 47.9745 193.59 47.9745 195.732H48.0105V192.51ZM46.2645 199.458C47.4345 199.458 48.1365 198.432 48.1365 197.064C48.1365 195.714 47.4345 194.67 46.2645 194.67C45.0765 194.67 44.3745 195.57 44.3745 197.064C44.3745 198.576 45.0765 199.458 46.2645 199.458ZM58.4432 192.33C58.9472 192.33 59.4692 192.438 59.8292 192.636L58.9652 195.264C58.6232 195.048 58.1732 194.94 57.7592 194.94C56.5172 194.94 55.7972 195.966 55.7972 197.748V201.636H52.8092V192.51H55.7972V196.47H55.8332C55.8332 193.86 56.8052 192.33 58.4432 192.33ZM66.5851 187.776H69.5731V201.636H66.5851V198.414H66.5491C66.5491 200.538 65.3791 201.816 63.3811 201.816C61.2031 201.816 59.8891 200.052 59.8891 197.064C59.8891 194.094 61.2031 192.33 63.3811 192.33C65.3791 192.33 66.5491 193.59 66.5491 195.732H66.5851V187.776ZM64.8391 199.458C66.0091 199.458 66.7111 198.432 66.7111 197.064C66.7111 195.714 66.0091 194.67 64.8391 194.67C63.6511 194.67 62.9491 195.57 62.9491 197.064C62.9491 198.576 63.6511 199.458 64.8391 199.458ZM86.6441 192.51H89.7401L88.1921 201.636H83.0621L81.9821 192.708H81.9461L80.9021 201.636H75.7721L74.2061 192.51H77.3741L78.5441 201.438H78.5801L79.6061 192.51H84.4121L85.4561 201.438H85.4921L86.6441 192.51ZM90.9605 190.962V188.478H93.9485V190.962H90.9605ZM90.9605 201.636V192.51H93.9485V201.636H90.9605ZM101.921 194.526H99.2754V198.306C99.2754 199.026 99.7614 199.458 100.589 199.458C101.021 199.458 101.435 199.35 101.759 199.17V201.366C101.147 201.654 100.373 201.816 99.6354 201.816C97.5474 201.816 96.2874 200.682 96.2874 198.738V194.526H95.0994V192.51H96.4494V189.558H99.4374V190.314C99.4374 191.538 98.3754 192.33 96.5394 192.474V192.51H101.921V194.526ZM108.917 192.33C110.897 192.33 112.067 193.752 112.067 196.146V201.636H109.079V196.29C109.079 195.264 108.539 194.67 107.639 194.67C106.631 194.67 106.037 195.444 106.037 196.74V201.636H103.049V187.776H106.037V195.768H106.073C106.073 193.608 107.135 192.33 108.917 192.33ZM118.277 201.816C115.181 201.816 113.345 200.052 113.345 197.064C113.345 194.094 115.181 192.33 118.277 192.33C121.373 192.33 123.191 194.094 123.191 197.064C123.191 200.052 121.373 201.816 118.277 201.816ZM118.277 199.458C119.465 199.458 120.167 198.576 120.167 197.064C120.167 195.57 119.465 194.67 118.277 194.67C117.089 194.67 116.387 195.57 116.387 197.064C116.387 198.576 117.089 199.458 118.277 199.458ZM130.319 192.51H133.307V201.636H130.319V198.378H130.283C130.283 200.538 129.257 201.816 127.529 201.816C125.603 201.816 124.469 200.394 124.469 197.982V192.51H127.457V197.838C127.457 198.864 127.943 199.476 128.789 199.476C129.743 199.476 130.319 198.702 130.319 197.406V192.51ZM141.268 194.526H138.622V198.306C138.622 199.026 139.108 199.458 139.936 199.458C140.368 199.458 140.782 199.35 141.106 199.17V201.366C140.494 201.654 139.72 201.816 138.982 201.816C136.894 201.816 135.634 200.682 135.634 198.738V194.526H134.446V192.51H135.796V189.558H138.784V190.314C138.784 191.538 137.722 192.33 135.886 192.474V192.51H141.268V194.526ZM151.446 192.33C151.95 192.33 152.472 192.438 152.832 192.636L151.968 195.264C151.626 195.048 151.176 194.94 150.762 194.94C149.52 194.94 148.8 195.966 148.8 197.748V201.636H145.812V192.51H148.8V196.47H148.836C148.836 193.86 149.808 192.33 151.446 192.33ZM162.109 197.064V197.388H155.719C155.791 198.774 156.439 199.584 157.501 199.584C158.383 199.584 159.031 199.116 159.229 198.342H162.109C161.767 200.52 160.039 201.816 157.501 201.816C154.549 201.816 152.821 200.052 152.821 197.064C152.821 194.076 154.549 192.33 157.501 192.33C160.399 192.33 162.109 194.076 162.109 197.064ZM157.501 194.544C156.511 194.544 155.863 195.264 155.737 196.524H159.211C159.067 195.264 158.473 194.544 157.501 194.544ZM169.075 192.51H172.261L170.245 201.636H164.629L162.613 192.51H165.799L167.419 201.438H167.455L169.075 192.51ZM182.108 197.064V197.388H175.717C175.789 198.774 176.437 199.584 177.5 199.584C178.382 199.584 179.029 199.116 179.227 198.342H182.108C181.766 200.52 180.038 201.816 177.5 201.816C174.547 201.816 172.819 200.052 172.819 197.064C172.819 194.076 174.547 192.33 177.5 192.33C180.397 192.33 182.108 194.076 182.108 197.064ZM177.5 194.544C176.51 194.544 175.861 195.264 175.735 196.524H179.21C179.065 195.264 178.472 194.544 177.5 194.544ZM189.717 192.51H192.705V201.636H189.717V198.414H189.681C189.681 200.538 188.511 201.816 186.513 201.816C184.335 201.816 183.021 200.052 183.021 197.064C183.021 194.094 184.335 192.33 186.513 192.33C188.511 192.33 189.681 193.59 189.681 195.732H189.717V192.51ZM187.971 199.458C189.141 199.458 189.843 198.432 189.843 197.064C189.843 195.714 189.141 194.67 187.971 194.67C186.783 194.67 186.081 195.57 186.081 197.064C186.081 198.576 186.783 199.458 187.971 199.458ZM194.516 201.636V187.776H197.504V201.636H194.516ZM199.321 190.962V188.478H202.309V190.962H199.321ZM199.321 201.636V192.51H202.309V201.636H199.321ZM209.994 192.33C211.974 192.33 213.144 193.752 213.144 196.146V201.636H210.156V196.29C210.156 195.264 209.616 194.67 208.716 194.67C207.708 194.67 207.114 195.444 207.114 196.74V201.636H204.126V192.51H207.114V195.768H207.15C207.15 193.608 208.212 192.33 209.994 192.33ZM221.136 192.51H224.124V201.69C224.124 204.372 222.378 205.956 219.408 205.956C216.924 205.956 215.178 204.768 214.746 202.77L217.572 202.302C217.752 203.13 218.436 203.616 219.408 203.616C220.488 203.616 221.136 202.95 221.136 201.834V198.27H221.1C221.1 200.412 219.93 201.672 217.932 201.672C215.754 201.672 214.44 199.944 214.44 196.992C214.44 194.058 215.754 192.33 217.932 192.33C219.93 192.33 221.1 193.59 221.1 195.732H221.136V192.51ZM219.39 199.314C220.56 199.314 221.262 198.324 221.262 196.992C221.262 195.678 220.56 194.67 219.39 194.67C218.202 194.67 217.5 195.534 217.5 196.992C217.5 198.468 218.202 199.314 219.39 199.314ZM240.961 192.33C242.887 192.33 244.021 193.716 244.021 196.056V201.636H241.033V196.2C241.033 195.228 240.547 194.67 239.701 194.67C238.747 194.67 238.189 195.408 238.189 196.65V201.636H235.201V196.2C235.201 195.228 234.697 194.67 233.851 194.67C232.897 194.67 232.339 195.408 232.339 196.65V201.636H229.351V192.51H232.339V195.75H232.375C232.375 193.608 233.437 192.33 235.237 192.33C237.091 192.33 238.189 193.626 238.189 195.75H238.225C238.225 193.608 239.233 192.33 240.961 192.33ZM251.378 192.51H254.564L251.63 205.776H248.444L249.38 201.636H246.95L244.916 192.51H248.102L249.722 201.438H249.758L251.378 192.51ZM259.112 190.962V188.478H262.1V190.962H259.112ZM259.112 201.636V192.51H262.1V201.636H259.112ZM270.181 187.776H273.169V201.636H270.181V198.414H270.145C270.145 200.538 268.975 201.816 266.977 201.816C264.799 201.816 263.485 200.052 263.485 197.064C263.485 194.094 264.799 192.33 266.977 192.33C268.975 192.33 270.145 193.59 270.145 195.732H270.181V187.776ZM268.435 199.458C269.605 199.458 270.307 198.432 270.307 197.064C270.307 195.714 269.605 194.67 268.435 194.67C267.247 194.67 266.545 195.57 266.545 197.064C266.545 198.576 267.247 199.458 268.435 199.458ZM283.817 197.064V197.388H277.427C277.499 198.774 278.147 199.584 279.209 199.584C280.091 199.584 280.739 199.116 280.937 198.342H283.817C283.475 200.52 281.747 201.816 279.209 201.816C276.257 201.816 274.529 200.052 274.529 197.064C274.529 194.076 276.257 192.33 279.209 192.33C282.107 192.33 283.817 194.076 283.817 197.064ZM279.209 194.544C278.219 194.544 277.571 195.264 277.445 196.524H280.919C280.775 195.264 280.181 194.544 279.209 194.544ZM291.031 192.33C293.011 192.33 294.181 193.752 294.181 196.146V201.636H291.193V196.29C291.193 195.264 290.653 194.67 289.753 194.67C288.745 194.67 288.151 195.444 288.151 196.74V201.636H285.163V192.51H288.151V195.768H288.187C288.187 193.608 289.249 192.33 291.031 192.33ZM301.96 194.526H299.314V198.306C299.314 199.026 299.8 199.458 300.628 199.458C301.06 199.458 301.474 199.35 301.798 199.17V201.366C301.186 201.654 300.412 201.816 299.674 201.816C297.586 201.816 296.326 200.682 296.326 198.738V194.526H295.138V192.51H296.488V189.558H299.476V190.314C299.476 191.538 298.414 192.33 296.578 192.474V192.51H301.96V194.526ZM303.087 190.962V188.478H306.075V190.962H303.087ZM303.087 201.636V192.51H306.075V201.636H303.087ZM314.048 194.526H311.402V198.306C311.402 199.026 311.888 199.458 312.716 199.458C313.148 199.458 313.562 199.35 313.886 199.17V201.366C313.274 201.654 312.5 201.816 311.762 201.816C309.674 201.816 308.414 200.682 308.414 198.738V194.526H307.226V192.51H308.576V189.558H311.564V190.314C311.564 191.538 310.502 192.33 308.666 192.474V192.51H314.048V194.526ZM320.954 192.51H324.14L321.206 205.776H318.02L318.956 201.636H316.526L314.492 192.51H317.678L319.298 201.438H319.334L320.954 192.51ZM325.135 192.528C325.333 189.774 327.043 188.136 329.779 188.136C332.641 188.136 334.315 189.504 334.315 191.808C334.315 193.392 333.037 195.336 330.877 197.082H328.051V197.046C329.905 195.372 331.003 193.518 331.003 192.114C331.003 191.16 330.481 190.584 329.653 190.584C328.753 190.584 328.159 191.322 328.087 192.528H325.135ZM327.745 198.522H331.003V201.636H327.745V198.522Z" fill="#2B2B2B"/>
<g filter="url(#filter0_d_2127_1322)">
<ellipse cx="185.901" cy="50.7379" rx="25.3499" ry="26.3776" shape-rendering="crispEdges"/>
<path d="M210.445 50.7379C210.445 64.8914 199.427 76.3099 185.901 76.3099C172.376 76.3099 161.357 64.8914 161.357 50.7379C161.357 36.5844 172.376 25.1659 185.901 25.1659C199.427 25.1659 210.445 36.5844 210.445 50.7379Z" stroke="white" stroke-width="1.61102" shape-rendering="crispEdges"/>
</g>
<g filter="url(#filter1_d_2127_1322)">
<path d="M65.6906 118.954C65.392 119.253 64.9546 119.477 64.3786 119.626C63.824 119.797 63.152 119.882 62.3626 119.882C61.5733 119.882 60.8266 119.765 60.1226 119.53C59.4186 119.295 58.8426 118.73 58.3946 117.834L55.2266 111.37C54.9066 110.709 54.6186 110.09 54.3626 109.514C54.1066 108.917 53.8293 108.234 53.5306 107.466L53.3386 107.498C53.424 108.65 53.4666 109.823 53.4666 111.018C53.488 112.213 53.4986 113.386 53.4986 114.538V119.498C53.264 119.562 52.9013 119.626 52.4106 119.69C51.9413 119.754 51.472 119.786 51.0026 119.786C50.5333 119.786 50.1173 119.754 49.7546 119.69C49.392 119.626 49.0933 119.498 48.8586 119.306C48.624 119.114 48.4426 118.858 48.3146 118.538C48.1866 118.197 48.1226 117.759 48.1226 117.226V101.226C48.4213 100.799 48.88 100.479 49.4986 100.266C50.1173 100.053 50.7786 99.946 51.4826 99.946C52.272 99.946 53.0186 100.074 53.7226 100.33C54.448 100.565 55.024 101.119 55.4506 101.994L58.6506 108.458C58.9706 109.119 59.2586 109.749 59.5146 110.346C59.7706 110.922 60.048 111.594 60.3466 112.362L60.5066 112.33C60.4213 111.178 60.368 110.026 60.3466 108.874C60.3253 107.722 60.3146 106.57 60.3146 105.418V100.234C60.5493 100.17 60.9013 100.106 61.3706 100.042C61.8613 99.978 62.3413 99.946 62.8106 99.946C63.7493 99.946 64.464 100.117 64.9546 100.458C65.4453 100.778 65.6906 101.461 65.6906 102.506V118.954ZM69.6014 103.21C69.6014 102.293 69.8681 101.567 70.4014 101.034C70.9347 100.501 71.6601 100.234 72.5774 100.234H83.1374C83.2867 100.469 83.4147 100.778 83.5214 101.162C83.6494 101.546 83.7134 101.951 83.7134 102.378C83.7134 103.189 83.5321 103.765 83.1694 104.106C82.8281 104.447 82.3694 104.618 81.7934 104.618H75.0414V107.594H82.2414C82.3907 107.829 82.5187 108.138 82.6254 108.522C82.7534 108.885 82.8174 109.279 82.8174 109.706C82.8174 110.517 82.6467 111.093 82.3054 111.434C81.9641 111.775 81.5054 111.946 80.9294 111.946H75.0414V115.306H83.2654C83.4147 115.541 83.5427 115.85 83.6494 116.234C83.7774 116.618 83.8414 117.023 83.8414 117.45C83.8414 118.261 83.6601 118.847 83.2974 119.21C82.9561 119.551 82.4974 119.722 81.9214 119.722H72.5774C71.6601 119.722 70.9347 119.455 70.4014 118.922C69.8681 118.389 69.6014 117.663 69.6014 116.746V103.21ZM98.5086 118.986C98.21 119.242 97.7406 119.466 97.1006 119.658C96.482 119.85 95.7993 119.946 95.0526 119.946C94.1566 119.946 93.3886 119.818 92.7486 119.562C92.1086 119.285 91.6713 118.911 91.4366 118.442C91.202 117.951 90.914 117.322 90.5726 116.554C90.2313 115.765 89.8686 114.89 89.4846 113.93C89.122 112.97 88.738 111.957 88.3326 110.89C87.9486 109.802 87.5753 108.703 87.2126 107.594C86.85 106.485 86.5086 105.397 86.1886 104.33C85.8686 103.263 85.5913 102.261 85.3566 101.322C85.6553 101.023 86.082 100.757 86.6366 100.522C87.2126 100.266 87.8206 100.138 88.4606 100.138C89.25 100.138 89.89 100.309 90.3806 100.65C90.8926 100.97 91.266 101.578 91.5006 102.474C92.0766 104.565 92.6526 106.57 93.2286 108.49C93.826 110.389 94.4446 112.373 95.0846 114.442H95.2766C95.8526 112.437 96.4393 110.25 97.0366 107.882C97.6553 105.514 98.242 103.157 98.7966 100.81C99.1806 100.618 99.586 100.458 100.013 100.33C100.461 100.202 100.962 100.138 101.517 100.138C102.306 100.138 102.978 100.319 103.533 100.682C104.087 101.023 104.365 101.599 104.365 102.41C104.365 102.879 104.247 103.562 104.013 104.458C103.799 105.354 103.511 106.367 103.149 107.498C102.807 108.607 102.413 109.77 101.965 110.986C101.538 112.202 101.101 113.354 100.653 114.442C100.226 115.509 99.8206 116.458 99.4366 117.29C99.0526 118.101 98.7433 118.666 98.5086 118.986ZM106.934 103.21C106.934 102.293 107.201 101.567 107.734 101.034C108.267 100.501 108.993 100.234 109.91 100.234H120.47C120.619 100.469 120.747 100.778 120.854 101.162C120.982 101.546 121.046 101.951 121.046 102.378C121.046 103.189 120.865 103.765 120.502 104.106C120.161 104.447 119.702 104.618 119.126 104.618H112.374V107.594H119.574C119.723 107.829 119.851 108.138 119.958 108.522C120.086 108.885 120.15 109.279 120.15 109.706C120.15 110.517 119.979 111.093 119.638 111.434C119.297 111.775 118.838 111.946 118.262 111.946H112.374V115.306H120.598C120.747 115.541 120.875 115.85 120.982 116.234C121.11 116.618 121.174 117.023 121.174 117.45C121.174 118.261 120.993 118.847 120.63 119.21C120.289 119.551 119.83 119.722 119.254 119.722H109.91C108.993 119.722 108.267 119.455 107.734 118.922C107.201 118.389 106.934 117.663 106.934 116.746V103.21ZM129.793 113.354V119.498C129.558 119.562 129.185 119.626 128.673 119.69C128.182 119.754 127.692 119.786 127.201 119.786C126.71 119.786 126.273 119.743 125.889 119.658C125.526 119.594 125.217 119.466 124.961 119.274C124.726 119.082 124.545 118.815 124.417 118.474C124.289 118.133 124.225 117.685 124.225 117.13V102.058C124.225 101.61 124.342 101.269 124.577 101.034C124.833 100.778 125.174 100.575 125.601 100.426C126.326 100.17 127.169 99.9886 128.129 99.882C129.089 99.754 130.113 99.69 131.201 99.69C134.145 99.69 136.364 100.309 137.857 101.546C139.35 102.783 140.097 104.458 140.097 106.57C140.097 107.893 139.756 109.023 139.073 109.962C138.39 110.901 137.58 111.626 136.641 112.138C137.409 113.183 138.166 114.165 138.913 115.082C139.66 115.999 140.246 116.831 140.673 117.578C140.46 118.325 140.065 118.901 139.489 119.306C138.934 119.69 138.305 119.882 137.601 119.882C137.132 119.882 136.726 119.829 136.385 119.722C136.044 119.615 135.745 119.466 135.489 119.274C135.233 119.082 134.998 118.847 134.785 118.57C134.572 118.293 134.369 117.994 134.177 117.674L131.489 113.354H129.793ZM131.809 109.098C132.62 109.098 133.26 108.895 133.729 108.49C134.198 108.063 134.433 107.445 134.433 106.634C134.433 105.823 134.166 105.215 133.633 104.81C133.121 104.383 132.3 104.17 131.169 104.17C130.849 104.17 130.593 104.181 130.401 104.202C130.209 104.223 129.996 104.255 129.761 104.298V109.098H131.809ZM173.162 119.498C172.927 119.562 172.554 119.626 172.042 119.69C171.551 119.754 171.06 119.786 170.57 119.786C170.079 119.786 169.642 119.743 169.258 119.658C168.895 119.594 168.586 119.466 168.33 119.274C168.074 119.082 167.882 118.815 167.754 118.474C167.626 118.133 167.562 117.685 167.562 117.13V112.138H161.418V119.498C161.183 119.562 160.81 119.626 160.298 119.69C159.807 119.754 159.316 119.786 158.826 119.786C158.335 119.786 157.898 119.743 157.514 119.658C157.151 119.594 156.842 119.466 156.586 119.274C156.33 119.082 156.138 118.815 156.01 118.474C155.882 118.133 155.818 117.685 155.818 117.13V100.234C156.052 100.191 156.426 100.138 156.938 100.074C157.45 99.9886 157.94 99.946 158.41 99.946C158.9 99.946 159.327 99.9886 159.69 100.074C160.074 100.138 160.394 100.266 160.65 100.458C160.906 100.65 161.098 100.917 161.226 101.258C161.354 101.599 161.418 102.047 161.418 102.602V107.722H167.562V100.234C167.796 100.191 168.17 100.138 168.682 100.074C169.194 99.9886 169.684 99.946 170.154 99.946C170.644 99.946 171.071 99.9886 171.434 100.074C171.818 100.138 172.138 100.266 172.394 100.458C172.65 100.65 172.842 100.917 172.97 101.258C173.098 101.599 173.162 102.047 173.162 102.602V119.498ZM181.206 100.81C181.568 100.597 182.112 100.394 182.838 100.202C183.584 100.01 184.331 99.914 185.078 99.914C186.144 99.914 187.083 100.074 187.894 100.394C188.726 100.693 189.259 101.173 189.494 101.834C189.878 102.943 190.294 104.234 190.742 105.706C191.19 107.178 191.638 108.703 192.086 110.282C192.534 111.839 192.971 113.386 193.398 114.922C193.824 116.437 194.198 117.781 194.518 118.954C194.262 119.253 193.878 119.487 193.366 119.658C192.854 119.85 192.246 119.946 191.542 119.946C191.03 119.946 190.592 119.903 190.23 119.818C189.888 119.733 189.6 119.605 189.366 119.434C189.152 119.263 188.971 119.039 188.822 118.762C188.694 118.485 188.576 118.165 188.47 117.802L187.894 115.594H182.102C181.931 116.234 181.76 116.895 181.59 117.578C181.419 118.261 181.248 118.922 181.078 119.562C180.779 119.669 180.459 119.754 180.118 119.818C179.798 119.903 179.403 119.946 178.934 119.946C177.846 119.946 177.035 119.765 176.502 119.402C175.99 119.018 175.734 118.495 175.734 117.834C175.734 117.535 175.776 117.237 175.862 116.938C175.947 116.639 176.043 116.287 176.15 115.882C176.299 115.306 176.502 114.591 176.758 113.738C177.035 112.885 177.334 111.967 177.654 110.986C177.974 109.983 178.315 108.959 178.678 107.914C179.04 106.869 179.382 105.887 179.702 104.97C180.022 104.031 180.31 103.199 180.566 102.474C180.843 101.749 181.056 101.194 181.206 100.81ZM185.046 104.938C184.747 105.834 184.406 106.837 184.022 107.946C183.659 109.034 183.328 110.143 183.03 111.274H186.998C186.699 110.122 186.39 109.002 186.07 107.914C185.771 106.805 185.494 105.813 185.238 104.938H185.046ZM207.235 118.986C206.936 119.242 206.467 119.466 205.827 119.658C205.208 119.85 204.526 119.946 203.779 119.946C202.883 119.946 202.115 119.818 201.475 119.562C200.835 119.285 200.398 118.911 200.163 118.442C199.928 117.951 199.64 117.322 199.299 116.554C198.958 115.765 198.595 114.89 198.211 113.93C197.848 112.97 197.464 111.957 197.059 110.89C196.675 109.802 196.302 108.703 195.939 107.594C195.576 106.485 195.235 105.397 194.915 104.33C194.595 103.263 194.318 102.261 194.083 101.322C194.382 101.023 194.808 100.757 195.363 100.522C195.939 100.266 196.547 100.138 197.187 100.138C197.976 100.138 198.616 100.309 199.107 100.65C199.619 100.97 199.992 101.578 200.227 102.474C200.803 104.565 201.379 106.57 201.955 108.49C202.552 110.389 203.171 112.373 203.811 114.442H204.003C204.579 112.437 205.166 110.25 205.763 107.882C206.382 105.514 206.968 103.157 207.523 100.81C207.907 100.618 208.312 100.458 208.739 100.33C209.187 100.202 209.688 100.138 210.243 100.138C211.032 100.138 211.704 100.319 212.259 100.682C212.814 101.023 213.091 101.599 213.091 102.41C213.091 102.879 212.974 103.562 212.739 104.458C212.526 105.354 212.238 106.367 211.875 107.498C211.534 108.607 211.139 109.77 210.691 110.986C210.264 112.202 209.827 113.354 209.379 114.442C208.952 115.509 208.547 116.458 208.163 117.29C207.779 118.101 207.47 118.666 207.235 118.986ZM215.66 103.21C215.66 102.293 215.927 101.567 216.46 101.034C216.993 100.501 217.719 100.234 218.636 100.234H229.196C229.345 100.469 229.473 100.778 229.58 101.162C229.708 101.546 229.772 101.951 229.772 102.378C229.772 103.189 229.591 103.765 229.228 104.106C228.887 104.447 228.428 104.618 227.852 104.618H221.1V107.594H228.3C228.449 107.829 228.577 108.138 228.684 108.522C228.812 108.885 228.876 109.279 228.876 109.706C228.876 110.517 228.705 111.093 228.364 111.434C228.023 111.775 227.564 111.946 226.988 111.946H221.1V115.306H229.324C229.473 115.541 229.601 115.85 229.708 116.234C229.836 116.618 229.9 117.023 229.9 117.45C229.9 118.261 229.719 118.847 229.356 119.21C229.015 119.551 228.556 119.722 227.98 119.722H218.636C217.719 119.722 216.993 119.455 216.46 118.922C215.927 118.389 215.66 117.663 215.66 116.746V103.21ZM244.718 119.498C244.483 119.562 244.11 119.626 243.598 119.69C243.107 119.754 242.616 119.786 242.126 119.786C241.635 119.786 241.198 119.743 240.814 119.658C240.451 119.594 240.142 119.466 239.886 119.274C239.63 119.082 239.438 118.815 239.31 118.474C239.182 118.133 239.118 117.685 239.118 117.13V100.234C239.352 100.191 239.726 100.138 240.238 100.074C240.75 99.9886 241.24 99.946 241.71 99.946C242.2 99.946 242.627 99.9886 242.99 100.074C243.374 100.138 243.694 100.266 243.95 100.458C244.206 100.65 244.398 100.917 244.526 101.258C244.654 101.599 244.718 102.047 244.718 102.602V119.498ZM254.794 103.21C254.794 102.293 255.061 101.567 255.594 101.034C256.127 100.501 256.853 100.234 257.77 100.234H268.33C268.479 100.469 268.607 100.778 268.714 101.162C268.842 101.546 268.906 101.951 268.906 102.378C268.906 103.189 268.725 103.765 268.362 104.106C268.021 104.447 267.562 104.618 266.986 104.618H260.234V107.594H267.434C267.583 107.829 267.711 108.138 267.818 108.522C267.946 108.885 268.01 109.279 268.01 109.706C268.01 110.517 267.839 111.093 267.498 111.434C267.157 111.775 266.698 111.946 266.122 111.946H260.234V115.306H268.458C268.607 115.541 268.735 115.85 268.842 116.234C268.97 116.618 269.034 117.023 269.034 117.45C269.034 118.261 268.853 118.847 268.49 119.21C268.149 119.551 267.69 119.722 267.114 119.722H257.77C256.853 119.722 256.127 119.455 255.594 118.922C255.061 118.389 254.794 117.663 254.794 116.746V103.21ZM283.701 118.986C283.402 119.242 282.933 119.466 282.293 119.658C281.674 119.85 280.992 119.946 280.245 119.946C279.349 119.946 278.581 119.818 277.941 119.562C277.301 119.285 276.864 118.911 276.629 118.442C276.394 117.951 276.106 117.322 275.765 116.554C275.424 115.765 275.061 114.89 274.677 113.93C274.314 112.97 273.93 111.957 273.525 110.89C273.141 109.802 272.768 108.703 272.405 107.594C272.042 106.485 271.701 105.397 271.381 104.33C271.061 103.263 270.784 102.261 270.549 101.322C270.848 101.023 271.274 100.757 271.829 100.522C272.405 100.266 273.013 100.138 273.653 100.138C274.442 100.138 275.082 100.309 275.573 100.65C276.085 100.97 276.458 101.578 276.693 102.474C277.269 104.565 277.845 106.57 278.421 108.49C279.018 110.389 279.637 112.373 280.277 114.442H280.469C281.045 112.437 281.632 110.25 282.229 107.882C282.848 105.514 283.434 103.157 283.989 100.81C284.373 100.618 284.778 100.458 285.205 100.33C285.653 100.202 286.154 100.138 286.709 100.138C287.498 100.138 288.17 100.319 288.725 100.682C289.28 101.023 289.557 101.599 289.557 102.41C289.557 102.879 289.44 103.562 289.205 104.458C288.992 105.354 288.704 106.367 288.341 107.498C288 108.607 287.605 109.77 287.157 110.986C286.73 112.202 286.293 113.354 285.845 114.442C285.418 115.509 285.013 116.458 284.629 117.29C284.245 118.101 283.936 118.666 283.701 118.986ZM292.126 103.21C292.126 102.293 292.393 101.567 292.926 101.034C293.46 100.501 294.185 100.234 295.102 100.234H305.662C305.812 100.469 305.94 100.778 306.046 101.162C306.174 101.546 306.238 101.951 306.238 102.378C306.238 103.189 306.057 103.765 305.694 104.106C305.353 104.447 304.894 104.618 304.318 104.618H297.566V107.594H304.766C304.916 107.829 305.044 108.138 305.15 108.522C305.278 108.885 305.342 109.279 305.342 109.706C305.342 110.517 305.172 111.093 304.83 111.434C304.489 111.775 304.03 111.946 303.454 111.946H297.566V115.306H305.79C305.94 115.541 306.068 115.85 306.174 116.234C306.302 116.618 306.366 117.023 306.366 117.45C306.366 118.261 306.185 118.847 305.822 119.21C305.481 119.551 305.022 119.722 304.446 119.722H295.102C294.185 119.722 293.46 119.455 292.926 118.922C292.393 118.389 292.126 117.663 292.126 116.746V103.21ZM314.986 113.354V119.498C314.751 119.562 314.378 119.626 313.866 119.69C313.375 119.754 312.884 119.786 312.394 119.786C311.903 119.786 311.466 119.743 311.082 119.658C310.719 119.594 310.41 119.466 310.154 119.274C309.919 119.082 309.738 118.815 309.61 118.474C309.482 118.133 309.418 117.685 309.418 117.13V102.058C309.418 101.61 309.535 101.269 309.77 101.034C310.026 100.778 310.367 100.575 310.794 100.426C311.519 100.17 312.362 99.9886 313.322 99.882C314.282 99.754 315.306 99.69 316.394 99.69C319.338 99.69 321.556 100.309 323.05 101.546C324.543 102.783 325.29 104.458 325.29 106.57C325.29 107.893 324.948 109.023 324.266 109.962C323.583 110.901 322.772 111.626 321.834 112.138C322.602 113.183 323.359 114.165 324.106 115.082C324.852 115.999 325.439 116.831 325.866 117.578C325.652 118.325 325.258 118.901 324.682 119.306C324.127 119.69 323.498 119.882 322.794 119.882C322.324 119.882 321.919 119.829 321.578 119.722C321.236 119.615 320.938 119.466 320.682 119.274C320.426 119.082 320.191 118.847 319.978 118.57C319.764 118.293 319.562 117.994 319.37 117.674L316.682 113.354H314.986ZM317.002 109.098C317.812 109.098 318.452 108.895 318.922 108.49C319.391 108.063 319.626 107.445 319.626 106.634C319.626 105.823 319.359 105.215 318.826 104.81C318.314 104.383 317.492 104.17 316.362 104.17C316.042 104.17 315.786 104.181 315.594 104.202C315.402 104.223 315.188 104.255 314.954 104.298V109.098H317.002Z" fill="#FEAA80"/>
</g>
<defs>
<filter id="filter0_d_2127_1322" x="153.839" y="17.6478" width="64.1249" height="66.1801" filterUnits="userSpaceOnUse" color-interpolation-filters="sRGB">
<feFlood flood-opacity="0" result="BackgroundImageFix"/>
<feColorMatrix in="SourceAlpha" type="matrix" values="0 0 0 0 0 0 0 0 0 0 0 0 0 0 0 0 0 0 127 0" result="hardAlpha"/>
<feOffset/>
<feGaussianBlur stdDeviation="3.35629"/>
<feComposite in2="hardAlpha" operator="out"/>
<feColorMatrix type="matrix" values="0 0 0 0 0 0 0 0 0 0 0 0 0 0 0 0 0 0 0.25 0"/>
<feBlend mode="normal" in2="BackgroundImageFix" result="effect1_dropShadow_2127_1322"/>
<feBlend mode="normal" in="SourceGraphic" in2="effect1_dropShadow_2127_1322" result="shape"/>
</filter>
<filter id="filter1_d_2127_1322" x="32.1226" y="83.6904" width="309.743" height="52.2559" filterUnits="userSpaceOnUse" color-interpolation-filters="sRGB">
<feFlood flood-opacity="0" result="BackgroundImageFix"/>
<feColorMatrix in="SourceAlpha" type="matrix" values="0 0 0 0 0 0 0 0 0 0 0 0 0 0 0 0 0 0 127 0" result="hardAlpha"/>
<feOffset/>
<feGaussianBlur stdDeviation="8"/>
<feComposite in2="hardAlpha" operator="out"/>
<feColorMatrix type="matrix" values="0 0 0 0 0 0 0 0 0 0 0 0 0 0 0 0 0 0 0.25 0"/>
<feBlend mode="normal" in2="BackgroundImageFix" result="effect1_dropShadow_2127_1322"/>
<feBlend mode="normal" in="SourceGraphic" in2="effect1_dropShadow_2127_1322" result="shape"/>
</filter>
</defs>
</svg>
