<svg width="337" height="205" viewBox="0 0 337 205" fill="none" xmlns="http://www.w3.org/2000/svg">
<g filter="url(#filter0_d_1878_5518)">
<rect x="4.98828" y="0.689941" width="328" height="196" rx="19" fill="url(#paint0_linear_1878_5518)"/>
<g filter="url(#filter1_d_1878_5518)">
<path d="M100.157 98.904V101.88L94.7807 103.224L94.0127 111H87.7727L85.8527 91.608H100.573L101.565 95.576L95.5167 95.96L95.1967 98.904H100.157ZM108.821 111.32C104.789 111.32 102.773 108.579 102.773 103.096C102.773 101.624 103.018 99.2027 103.509 95.832H109.717V102.744C109.717 105.219 110.41 106.456 111.797 106.456C113.013 106.456 113.621 105.347 113.621 103.128C113.621 102.957 113.621 102.776 113.621 102.584L113.333 95.832H120.533L119.861 111H114.453L114.101 108.056C114.058 108.141 114.005 108.259 113.941 108.408C113.877 108.557 113.695 108.824 113.397 109.208C113.119 109.571 112.799 109.901 112.437 110.2C112.074 110.477 111.573 110.733 110.933 110.968C110.293 111.203 109.589 111.32 108.821 111.32ZM134.316 95.384C135.809 95.384 137.089 96.0133 138.156 97.272C139.244 98.5307 139.788 100.173 139.788 102.2C139.788 104.205 139.543 107.139 139.052 111H133.452L132.812 103.832C132.599 101.549 131.98 100.408 130.956 100.408C129.74 100.408 129.089 101.56 129.004 103.864L128.78 111H122.892L122.22 95.832H129.452L129.324 98.552C129.431 98.3387 129.676 98.008 130.06 97.56C130.444 97.112 130.817 96.7493 131.18 96.472C132.119 95.7467 133.164 95.384 134.316 95.384ZM153.576 95.384C155.069 95.384 156.349 96.0133 157.416 97.272C158.504 98.5307 159.048 100.173 159.048 102.2C159.048 104.205 158.803 107.139 158.312 111H152.712L152.072 103.832C151.859 101.549 151.24 100.408 150.216 100.408C149 100.408 148.349 101.56 148.264 103.864L148.04 111H142.152L141.48 95.832H148.712L148.584 98.552C148.691 98.3387 148.936 98.008 149.32 97.56C149.704 97.112 150.077 96.7493 150.44 96.472C151.379 95.7467 152.424 95.384 153.576 95.384ZM171.844 107.448V107.192C171.78 107.555 171.609 107.96 171.332 108.408C171.076 108.835 170.788 109.197 170.468 109.496C170.148 109.795 169.689 110.061 169.092 110.296C168.516 110.531 167.748 110.648 166.788 110.648C165.828 110.648 164.921 110.435 164.068 110.008C163.215 109.56 162.553 108.952 162.084 108.184C161.188 106.755 160.74 105.187 160.74 103.48C160.74 101.752 160.985 99.2027 161.476 95.832H167.684V102.744C167.684 105.091 168.377 106.264 169.764 106.264C170.383 106.264 170.841 105.987 171.14 105.432C171.439 104.877 171.588 104.173 171.588 103.32C171.588 103.213 171.588 103.096 171.588 102.968L171.3 95.832H178.5L178.052 105.656C177.988 107.043 177.881 108.227 177.732 109.208C177.604 110.189 177.348 111.192 176.964 112.216C176.601 113.261 176.121 114.104 175.524 114.744C174.137 116.195 172.079 116.92 169.348 116.92C167.428 116.92 165.625 116.323 163.94 115.128L163.652 114.936L164.996 112.184C166.02 112.653 166.98 112.888 167.876 112.888C169.113 112.888 170.084 112.408 170.788 111.448C171.492 110.509 171.844 109.176 171.844 107.448ZM200.886 108.76C199.286 110.467 197.142 111.32 194.454 111.32C191.787 111.32 189.718 110.605 188.246 109.176C186.774 107.725 186.038 105.688 186.038 103.064C186.038 100.44 186.827 98.5093 188.406 97.272C189.984 96.0133 191.958 95.384 194.326 95.384C195.328 95.384 196.288 95.48 197.206 95.672C198.144 95.864 198.827 96.0667 199.254 96.28L199.894 96.568L199.19 99.864C198.315 99.608 197.408 99.48 196.47 99.48C195.552 99.48 194.71 99.7787 193.942 100.376C193.195 100.952 192.822 101.848 192.822 103.064C192.822 105.795 193.878 107.16 195.99 107.16C196.544 107.16 197.078 107.096 197.59 106.968C198.102 106.819 198.475 106.669 198.71 106.52L199.062 106.328L200.886 108.76ZM207.086 111.32C205.443 111.32 204.089 110.84 203.022 109.88C201.977 108.92 201.454 107.565 201.454 105.816C201.454 104.045 202.051 102.765 203.246 101.976C204.441 101.165 205.881 100.76 207.566 100.76C209.251 100.76 210.713 101.027 211.95 101.56C211.673 99.7893 210.553 98.904 208.59 98.904C207.694 98.904 206.585 99.0853 205.262 99.448L204.462 96.568C206.382 95.7787 208.334 95.384 210.318 95.384C216.035 95.384 218.894 97.816 218.894 102.68C218.894 104.344 218.702 106.648 218.318 109.592L218.158 111H212.878L212.686 109.24C211.235 110.627 209.369 111.32 207.086 111.32ZM209.966 107.352C210.926 107.352 211.747 107.085 212.43 106.552L212.238 104.44C211.705 104.077 211.107 103.896 210.446 103.896C209.806 103.896 209.273 104.056 208.846 104.376C208.441 104.696 208.238 105.091 208.238 105.56C208.238 106.029 208.398 106.445 208.718 106.808C209.038 107.171 209.454 107.352 209.966 107.352ZM227.665 97.912C228.796 96.2267 230.193 95.384 231.857 95.384C232.647 95.384 233.372 95.576 234.033 95.96L233.265 101.208C232.412 100.611 231.452 100.312 230.385 100.312C229.361 100.312 228.668 100.739 228.305 101.592C228.092 102.125 227.953 102.637 227.889 103.128L227.281 111H221.521L220.561 95.832H226.865L227.665 97.912ZM234.599 103.064C234.599 101.592 234.802 100.323 235.207 99.256C235.634 98.1893 236.188 97.3893 236.871 96.856C238.13 95.8747 239.527 95.384 241.063 95.384C241.831 95.384 242.535 95.544 243.175 95.864C243.836 96.1627 244.295 96.472 244.551 96.792L244.935 97.24L244.679 90.232H251.975L251.111 111H246.311L245.767 108.92C244.487 110.499 242.908 111.288 241.031 111.288C239.175 111.309 237.639 110.616 236.423 109.208C235.207 107.8 234.599 105.752 234.599 103.064ZM243.111 99.672C241.852 99.672 241.223 100.952 241.223 103.512C241.223 103.981 241.255 104.429 241.319 104.856C241.383 105.283 241.575 105.731 241.895 106.2C242.215 106.669 242.684 106.904 243.303 106.904C243.922 106.904 244.391 106.563 244.711 105.88C245.052 105.176 245.223 104.387 245.223 103.512C245.223 100.952 244.519 99.672 243.111 99.672Z" fill="#FFEDED"/>
</g>
<g filter="url(#filter2_d_1878_5518)">
<circle cx="170.364" cy="45.5197" r="28.466" shape-rendering="crispEdges"/>
<circle cx="170.364" cy="45.5197" r="27.5106" stroke="white" stroke-width="1.91081" shape-rendering="crispEdges"/>
</g>
<circle cx="194.311" cy="62.0696" r="10.1062" fill="white" stroke="black" stroke-width="1.13713"/>
<path d="M189.57 66.8079L189.571 66.8096C189.619 66.8576 189.676 66.8958 189.738 66.9218C189.801 66.9478 189.868 66.9612 189.935 66.9613C189.992 66.9613 190.049 66.9519 190.103 66.9335L193.036 65.9385L198.664 60.3101C199.008 59.966 199.201 59.4993 199.201 59.0127C199.201 58.5261 199.008 58.0594 198.664 57.7153C198.32 57.3712 197.853 57.178 197.366 57.178C196.88 57.178 196.413 57.3713 196.069 57.7154L190.441 63.3438L189.446 66.2768C189.414 66.368 189.409 66.4662 189.431 66.5602C189.453 66.6541 189.501 66.7399 189.57 66.8079ZM196.536 58.1828C196.757 57.964 197.055 57.8416 197.366 57.8422C197.676 57.8428 197.974 57.9664 198.193 58.186C198.413 58.4056 198.537 58.7032 198.537 59.0138C198.538 59.3243 198.415 59.6224 198.196 59.8429L197.456 60.583L195.796 58.9229L196.536 58.1828ZM191.017 63.7021L195.329 59.3903L196.989 61.0504L192.677 65.3621L190.165 66.2144L191.017 63.7021Z" fill="black"/>
<path d="M4.98828 130.014H332.988V177.714C332.988 188.207 324.482 196.714 313.988 196.714H23.9883C13.4949 196.714 4.98828 188.207 4.98828 177.714V130.014Z" fill="white"/>
<path d="M64.553 156.43L60.053 171H56.993L54.253 161.97C54.1996 161.83 54.1496 161.677 54.103 161.51C54.0563 161.337 54.0096 161.157 53.963 160.97C53.9163 161.157 53.8696 161.337 53.823 161.51C53.7763 161.677 53.7263 161.83 53.673 161.97L50.893 171H47.833L43.333 156.43H46.173C46.4663 156.43 46.7096 156.497 46.903 156.63C47.103 156.763 47.233 156.94 47.293 157.16L49.293 164.76C49.353 165 49.413 165.263 49.473 165.55C49.533 165.83 49.593 166.123 49.653 166.43C49.773 165.803 49.9196 165.247 50.093 164.76L52.453 157.16C52.513 156.973 52.6396 156.807 52.833 156.66C53.033 156.507 53.273 156.43 53.553 156.43H54.553C54.8463 156.43 55.083 156.5 55.263 156.64C55.443 156.773 55.5796 156.947 55.673 157.16L58.013 164.76C58.1863 165.227 58.333 165.757 58.453 166.35C58.5063 166.05 58.5596 165.77 58.613 165.51C58.673 165.243 58.733 164.993 58.793 164.76L60.793 157.16C60.8463 156.967 60.973 156.797 61.173 156.65C61.373 156.503 61.613 156.43 61.893 156.43H64.553ZM68.3163 161.54C68.6896 161.22 69.0929 160.963 69.5263 160.77C69.9663 160.57 70.4896 160.47 71.0963 160.47C71.6629 160.47 72.1629 160.57 72.5963 160.77C73.0363 160.963 73.4063 161.237 73.7063 161.59C74.0063 161.937 74.2329 162.353 74.3863 162.84C74.5396 163.32 74.6163 163.843 74.6163 164.41V171H71.5163V164.41C71.5163 163.903 71.3996 163.51 71.1663 163.23C70.9329 162.943 70.5896 162.8 70.1363 162.8C69.7963 162.8 69.4763 162.873 69.1763 163.02C68.8829 163.16 68.5963 163.353 68.3163 163.6V171H65.2163V156.03H68.3163V161.54ZM81.7325 166.78C81.1125 166.807 80.6025 166.86 80.2025 166.94C79.8025 167.02 79.4858 167.12 79.2525 167.24C79.0192 167.36 78.8558 167.497 78.7625 167.65C78.6758 167.803 78.6325 167.97 78.6325 168.15C78.6325 168.503 78.7292 168.753 78.9225 168.9C79.1158 169.04 79.3992 169.11 79.7725 169.11C80.1725 169.11 80.5225 169.04 80.8225 168.9C81.1225 168.76 81.4258 168.533 81.7325 168.22V166.78ZM76.1525 162.07C76.7792 161.517 77.4725 161.107 78.2325 160.84C78.9992 160.567 79.8192 160.43 80.6925 160.43C81.3192 160.43 81.8825 160.533 82.3825 160.74C82.8892 160.94 83.3158 161.223 83.6625 161.59C84.0158 161.95 84.2858 162.38 84.4725 162.88C84.6592 163.38 84.7525 163.927 84.7525 164.52V171H83.3325C83.0392 171 82.8158 170.96 82.6625 170.88C82.5158 170.8 82.3925 170.633 82.2925 170.38L82.0725 169.81C81.8125 170.03 81.5625 170.223 81.3225 170.39C81.0825 170.557 80.8325 170.7 80.5725 170.82C80.3192 170.933 80.0458 171.017 79.7525 171.07C79.4658 171.13 79.1458 171.16 78.7925 171.16C78.3192 171.16 77.8892 171.1 77.5025 170.98C77.1158 170.853 76.7858 170.67 76.5125 170.43C76.2458 170.19 76.0392 169.893 75.8925 169.54C75.7458 169.18 75.6725 168.767 75.6725 168.3C75.6725 167.927 75.7658 167.55 75.9525 167.17C76.1392 166.783 76.4625 166.433 76.9225 166.12C77.3825 165.8 78.0025 165.533 78.7825 165.32C79.5625 165.107 80.5458 164.987 81.7325 164.96V164.52C81.7325 163.913 81.6058 163.477 81.3525 163.21C81.1058 162.937 80.7525 162.8 80.2925 162.8C79.9258 162.8 79.6258 162.84 79.3925 162.92C79.1592 163 78.9492 163.09 78.7625 163.19C78.5825 163.29 78.4058 163.38 78.2325 163.46C78.0592 163.54 77.8525 163.58 77.6125 163.58C77.3992 163.58 77.2192 163.527 77.0725 163.42C76.9258 163.313 76.8058 163.187 76.7125 163.04L76.1525 162.07ZM90.0478 171.16C89.5545 171.16 89.1178 171.09 88.7378 170.95C88.3645 170.803 88.0478 170.6 87.7878 170.34C87.5345 170.073 87.3411 169.753 87.2078 169.38C87.0745 169.007 87.0078 168.59 87.0078 168.13V162.77H86.1278C85.9678 162.77 85.8311 162.72 85.7178 162.62C85.6045 162.513 85.5478 162.36 85.5478 162.16V160.95L87.1978 160.63L87.8078 158.1C87.8878 157.78 88.1145 157.62 88.4878 157.62H90.1078V160.65H92.6778V162.77H90.1078V167.92C90.1078 168.16 90.1645 168.36 90.2778 168.52C90.3978 168.673 90.5678 168.75 90.7878 168.75C90.9011 168.75 90.9945 168.74 91.0678 168.72C91.1478 168.693 91.2145 168.667 91.2678 168.64C91.3278 168.607 91.3811 168.58 91.4278 168.56C91.4811 168.533 91.5411 168.52 91.6078 168.52C91.7011 168.52 91.7745 168.543 91.8278 168.59C91.8878 168.63 91.9478 168.697 92.0078 168.79L92.9478 170.26C92.5478 170.56 92.0978 170.787 91.5978 170.94C91.0978 171.087 90.5811 171.16 90.0478 171.16ZM104.452 163.41C104.219 163.15 103.966 162.97 103.692 162.87C103.419 162.763 103.132 162.71 102.832 162.71C102.546 162.71 102.282 162.767 102.042 162.88C101.802 162.993 101.592 163.177 101.412 163.43C101.239 163.677 101.102 164 101.002 164.4C100.902 164.8 100.852 165.283 100.852 165.85C100.852 166.397 100.892 166.857 100.972 167.23C101.052 167.603 101.162 167.907 101.302 168.14C101.449 168.367 101.622 168.53 101.822 168.63C102.022 168.73 102.246 168.78 102.492 168.78C102.719 168.78 102.922 168.76 103.102 168.72C103.289 168.673 103.459 168.61 103.612 168.53C103.766 168.45 103.909 168.35 104.042 168.23C104.182 168.103 104.319 167.96 104.452 167.8V163.41ZM107.552 156.03V171H105.632C105.246 171 104.992 170.827 104.872 170.48L104.632 169.69C104.426 169.91 104.209 170.11 103.982 170.29C103.756 170.47 103.509 170.627 103.242 170.76C102.982 170.887 102.699 170.983 102.392 171.05C102.092 171.123 101.766 171.16 101.412 171.16C100.872 171.16 100.372 171.04 99.9125 170.8C99.4525 170.56 99.0558 170.213 98.7225 169.76C98.3892 169.307 98.1258 168.753 97.9325 168.1C97.7458 167.44 97.6525 166.69 97.6525 165.85C97.6525 165.077 97.7592 164.36 97.9725 163.7C98.1858 163.033 98.4858 162.46 98.8725 161.98C99.2658 161.493 99.7358 161.113 100.282 160.84C100.829 160.567 101.432 160.43 102.092 160.43C102.632 160.43 103.086 160.507 103.452 160.66C103.819 160.813 104.152 161.02 104.452 161.28V156.03H107.552ZM114.187 160.47C114.974 160.47 115.69 160.593 116.337 160.84C116.984 161.087 117.537 161.44 117.997 161.9C118.464 162.36 118.824 162.92 119.077 163.58C119.337 164.233 119.467 164.97 119.467 165.79C119.467 166.617 119.337 167.363 119.077 168.03C118.824 168.69 118.464 169.253 117.997 169.72C117.537 170.18 116.984 170.537 116.337 170.79C115.69 171.037 114.974 171.16 114.187 171.16C113.394 171.16 112.67 171.037 112.017 170.79C111.37 170.537 110.81 170.18 110.337 169.72C109.87 169.253 109.507 168.69 109.247 168.03C108.994 167.363 108.867 166.617 108.867 165.79C108.867 164.97 108.994 164.233 109.247 163.58C109.507 162.92 109.87 162.36 110.337 161.9C110.81 161.44 111.37 161.087 112.017 160.84C112.67 160.593 113.394 160.47 114.187 160.47ZM114.187 168.86C114.9 168.86 115.424 168.61 115.757 168.11C116.097 167.603 116.267 166.837 116.267 165.81C116.267 164.783 116.097 164.02 115.757 163.52C115.424 163.02 114.9 162.77 114.187 162.77C113.454 162.77 112.917 163.02 112.577 163.52C112.237 164.02 112.067 164.783 112.067 165.81C112.067 166.837 112.237 167.603 112.577 168.11C112.917 168.61 113.454 168.86 114.187 168.86ZM134.519 160.63L128.979 173.69C128.886 173.897 128.772 174.047 128.639 174.14C128.506 174.24 128.292 174.29 127.999 174.29H125.679L127.679 170.09L123.539 160.63H126.279C126.519 160.63 126.702 160.683 126.829 160.79C126.962 160.897 127.059 161.023 127.119 161.17L128.819 165.64C128.979 166.047 129.109 166.463 129.209 166.89C129.282 166.677 129.356 166.463 129.429 166.25C129.502 166.037 129.579 165.827 129.659 165.62L131.199 161.17C131.259 161.017 131.366 160.89 131.519 160.79C131.672 160.683 131.839 160.63 132.019 160.63H134.519ZM139.619 160.47C140.406 160.47 141.123 160.593 141.769 160.84C142.416 161.087 142.969 161.44 143.429 161.9C143.896 162.36 144.256 162.92 144.509 163.58C144.769 164.233 144.899 164.97 144.899 165.79C144.899 166.617 144.769 167.363 144.509 168.03C144.256 168.69 143.896 169.253 143.429 169.72C142.969 170.18 142.416 170.537 141.769 170.79C141.123 171.037 140.406 171.16 139.619 171.16C138.826 171.16 138.103 171.037 137.449 170.79C136.803 170.537 136.243 170.18 135.769 169.72C135.303 169.253 134.939 168.69 134.679 168.03C134.426 167.363 134.299 166.617 134.299 165.79C134.299 164.97 134.426 164.233 134.679 163.58C134.939 162.92 135.303 162.36 135.769 161.9C136.243 161.44 136.803 161.087 137.449 160.84C138.103 160.593 138.826 160.47 139.619 160.47ZM139.619 168.86C140.333 168.86 140.856 168.61 141.189 168.11C141.529 167.603 141.699 166.837 141.699 165.81C141.699 164.783 141.529 164.02 141.189 163.52C140.856 163.02 140.333 162.77 139.619 162.77C138.886 162.77 138.349 163.02 138.009 163.52C137.669 164.02 137.499 164.783 137.499 165.81C137.499 166.837 137.669 167.603 138.009 168.11C138.349 168.61 138.886 168.86 139.619 168.86ZM155.52 160.63V171H153.6C153.214 171 152.96 170.827 152.84 170.48L152.66 169.88C152.46 170.073 152.254 170.25 152.04 170.41C151.827 170.563 151.597 170.697 151.35 170.81C151.11 170.917 150.847 171 150.56 171.06C150.28 171.127 149.974 171.16 149.64 171.16C149.074 171.16 148.57 171.063 148.13 170.87C147.697 170.67 147.33 170.393 147.03 170.04C146.73 169.687 146.504 169.27 146.35 168.79C146.197 168.31 146.12 167.783 146.12 167.21V160.63H149.22V167.21C149.22 167.723 149.337 168.12 149.57 168.4C149.804 168.68 150.147 168.82 150.6 168.82C150.94 168.82 151.257 168.75 151.55 168.61C151.85 168.463 152.14 168.267 152.42 168.02V160.63H155.52ZM165.485 171.16C164.992 171.16 164.555 171.09 164.175 170.95C163.802 170.803 163.485 170.6 163.225 170.34C162.972 170.073 162.779 169.753 162.645 169.38C162.512 169.007 162.445 168.59 162.445 168.13V162.77H161.565C161.405 162.77 161.269 162.72 161.155 162.62C161.042 162.513 160.985 162.36 160.985 162.16V160.95L162.635 160.63L163.245 158.1C163.325 157.78 163.552 157.62 163.925 157.62H165.545V160.65H168.115V162.77H165.545V167.92C165.545 168.16 165.602 168.36 165.715 168.52C165.835 168.673 166.005 168.75 166.225 168.75C166.339 168.75 166.432 168.74 166.505 168.72C166.585 168.693 166.652 168.667 166.705 168.64C166.765 168.607 166.819 168.58 166.865 168.56C166.919 168.533 166.979 168.52 167.045 168.52C167.139 168.52 167.212 168.543 167.265 168.59C167.325 168.63 167.385 168.697 167.445 168.79L168.385 170.26C167.985 170.56 167.535 170.787 167.035 170.94C166.535 171.087 166.019 171.16 165.485 171.16ZM172.311 161.54C172.685 161.22 173.088 160.963 173.521 160.77C173.961 160.57 174.485 160.47 175.091 160.47C175.658 160.47 176.158 160.57 176.591 160.77C177.031 160.963 177.401 161.237 177.701 161.59C178.001 161.937 178.228 162.353 178.381 162.84C178.535 163.32 178.611 163.843 178.611 164.41V171H175.511V164.41C175.511 163.903 175.395 163.51 175.161 163.23C174.928 162.943 174.585 162.8 174.131 162.8C173.791 162.8 173.471 162.873 173.171 163.02C172.878 163.16 172.591 163.353 172.311 163.6V171H169.211V156.03H172.311V161.54ZM183.547 160.63V171H180.447V160.63H183.547ZM183.867 157.79C183.867 158.037 183.817 158.27 183.717 158.49C183.617 158.703 183.481 158.893 183.307 159.06C183.134 159.22 182.931 159.35 182.697 159.45C182.471 159.543 182.227 159.59 181.967 159.59C181.714 159.59 181.477 159.543 181.257 159.45C181.037 159.35 180.841 159.22 180.667 159.06C180.501 158.893 180.367 158.703 180.267 158.49C180.174 158.27 180.127 158.037 180.127 157.79C180.127 157.537 180.174 157.3 180.267 157.08C180.367 156.86 180.501 156.667 180.667 156.5C180.841 156.333 181.037 156.203 181.257 156.11C181.477 156.017 181.714 155.97 181.967 155.97C182.227 155.97 182.471 156.017 182.697 156.11C182.931 156.203 183.134 156.333 183.307 156.5C183.481 156.667 183.617 156.86 183.717 157.08C183.817 157.3 183.867 157.537 183.867 157.79ZM188.33 161.75C188.53 161.563 188.736 161.39 188.95 161.23C189.163 161.07 189.39 160.937 189.63 160.83C189.876 160.717 190.14 160.63 190.42 160.57C190.706 160.503 191.016 160.47 191.35 160.47C191.916 160.47 192.416 160.57 192.85 160.77C193.29 160.963 193.66 161.237 193.96 161.59C194.26 161.937 194.486 162.353 194.64 162.84C194.793 163.32 194.87 163.843 194.87 164.41V171H191.77V164.41C191.77 163.903 191.653 163.51 191.42 163.23C191.186 162.943 190.843 162.8 190.39 162.8C190.05 162.8 189.73 162.873 189.43 163.02C189.136 163.16 188.85 163.353 188.57 163.6V171H185.47V160.63H187.39C187.776 160.63 188.03 160.803 188.15 161.15L188.33 161.75ZM199.736 156.03V164.42H200.196C200.389 164.42 200.536 164.393 200.636 164.34C200.736 164.28 200.836 164.183 200.936 164.05L202.896 161.13C203.016 160.963 203.152 160.84 203.306 160.76C203.459 160.673 203.656 160.63 203.896 160.63H206.736L204.056 164.32C203.802 164.653 203.502 164.927 203.156 165.14C203.309 165.253 203.449 165.387 203.576 165.54C203.702 165.687 203.822 165.853 203.936 166.04L206.856 171H204.056C203.822 171 203.622 170.963 203.456 170.89C203.289 170.81 203.149 170.673 203.036 170.48L201.076 166.81C200.982 166.643 200.886 166.537 200.786 166.49C200.686 166.437 200.536 166.41 200.336 166.41H199.736V171H196.636V156.03H199.736ZM217.307 166.78C216.687 166.807 216.177 166.86 215.777 166.94C215.377 167.02 215.06 167.12 214.827 167.24C214.593 167.36 214.43 167.497 214.337 167.65C214.25 167.803 214.207 167.97 214.207 168.15C214.207 168.503 214.303 168.753 214.497 168.9C214.69 169.04 214.973 169.11 215.347 169.11C215.747 169.11 216.097 169.04 216.397 168.9C216.697 168.76 217 168.533 217.307 168.22V166.78ZM211.727 162.07C212.353 161.517 213.047 161.107 213.807 160.84C214.573 160.567 215.393 160.43 216.267 160.43C216.893 160.43 217.457 160.533 217.957 160.74C218.463 160.94 218.89 161.223 219.237 161.59C219.59 161.95 219.86 162.38 220.047 162.88C220.233 163.38 220.327 163.927 220.327 164.52V171H218.907C218.613 171 218.39 170.96 218.237 170.88C218.09 170.8 217.967 170.633 217.867 170.38L217.647 169.81C217.387 170.03 217.137 170.223 216.897 170.39C216.657 170.557 216.407 170.7 216.147 170.82C215.893 170.933 215.62 171.017 215.327 171.07C215.04 171.13 214.72 171.16 214.367 171.16C213.893 171.16 213.463 171.1 213.077 170.98C212.69 170.853 212.36 170.67 212.087 170.43C211.82 170.19 211.613 169.893 211.467 169.54C211.32 169.18 211.247 168.767 211.247 168.3C211.247 167.927 211.34 167.55 211.527 167.17C211.713 166.783 212.037 166.433 212.497 166.12C212.957 165.8 213.577 165.533 214.357 165.32C215.137 165.107 216.12 164.987 217.307 164.96V164.52C217.307 163.913 217.18 163.477 216.927 163.21C216.68 162.937 216.327 162.8 215.867 162.8C215.5 162.8 215.2 162.84 214.967 162.92C214.733 163 214.523 163.09 214.337 163.19C214.157 163.29 213.98 163.38 213.807 163.46C213.633 163.54 213.427 163.58 213.187 163.58C212.973 163.58 212.793 163.527 212.647 163.42C212.5 163.313 212.38 163.187 212.287 163.04L211.727 162.07ZM225.168 168.18C225.401 168.433 225.655 168.613 225.928 168.72C226.201 168.827 226.478 168.88 226.758 168.88C227.051 168.88 227.321 168.827 227.568 168.72C227.815 168.607 228.025 168.427 228.198 168.18C228.378 167.927 228.518 167.597 228.618 167.19C228.718 166.777 228.768 166.27 228.768 165.67C228.768 165.15 228.728 164.71 228.648 164.35C228.575 163.983 228.461 163.687 228.308 163.46C228.161 163.227 227.975 163.06 227.748 162.96C227.528 162.853 227.275 162.8 226.988 162.8C226.608 162.8 226.278 162.883 225.998 163.05C225.718 163.217 225.441 163.46 225.168 163.78V168.18ZM225.168 161.73C225.568 161.35 226.005 161.047 226.478 160.82C226.958 160.587 227.491 160.47 228.078 160.47C228.665 160.47 229.198 160.59 229.678 160.83C230.158 161.07 230.568 161.413 230.908 161.86C231.248 162.3 231.508 162.833 231.688 163.46C231.875 164.087 231.968 164.787 231.968 165.56C231.968 166.4 231.861 167.163 231.648 167.85C231.435 168.537 231.131 169.127 230.738 169.62C230.351 170.107 229.888 170.487 229.348 170.76C228.808 171.027 228.211 171.16 227.558 171.16C227.245 171.16 226.965 171.13 226.718 171.07C226.471 171.01 226.245 170.927 226.038 170.82C225.831 170.707 225.641 170.573 225.468 170.42C225.301 170.267 225.138 170.1 224.978 169.92L224.868 170.44C224.815 170.653 224.728 170.8 224.608 170.88C224.488 170.96 224.328 171 224.128 171H222.068V156.03H225.168V161.73ZM238.092 160.47C238.879 160.47 239.596 160.593 240.242 160.84C240.889 161.087 241.442 161.44 241.902 161.9C242.369 162.36 242.729 162.92 242.982 163.58C243.242 164.233 243.372 164.97 243.372 165.79C243.372 166.617 243.242 167.363 242.982 168.03C242.729 168.69 242.369 169.253 241.902 169.72C241.442 170.18 240.889 170.537 240.242 170.79C239.596 171.037 238.879 171.16 238.092 171.16C237.299 171.16 236.576 171.037 235.922 170.79C235.276 170.537 234.716 170.18 234.242 169.72C233.776 169.253 233.412 168.69 233.152 168.03C232.899 167.363 232.772 166.617 232.772 165.79C232.772 164.97 232.899 164.233 233.152 163.58C233.412 162.92 233.776 162.36 234.242 161.9C234.716 161.44 235.276 161.087 235.922 160.84C236.576 160.593 237.299 160.47 238.092 160.47ZM238.092 168.86C238.806 168.86 239.329 168.61 239.662 168.11C240.002 167.603 240.172 166.837 240.172 165.81C240.172 164.783 240.002 164.02 239.662 163.52C239.329 163.02 238.806 162.77 238.092 162.77C237.359 162.77 236.822 163.02 236.482 163.52C236.142 164.02 235.972 164.783 235.972 165.81C235.972 166.837 236.142 167.603 236.482 168.11C236.822 168.61 237.359 168.86 238.092 168.86ZM253.994 160.63V171H252.074C251.687 171 251.434 170.827 251.314 170.48L251.134 169.88C250.934 170.073 250.727 170.25 250.514 170.41C250.3 170.563 250.07 170.697 249.824 170.81C249.584 170.917 249.32 171 249.034 171.06C248.754 171.127 248.447 171.16 248.114 171.16C247.547 171.16 247.044 171.063 246.604 170.87C246.17 170.67 245.804 170.393 245.504 170.04C245.204 169.687 244.977 169.27 244.824 168.79C244.67 168.31 244.594 167.783 244.594 167.21V160.63H247.694V167.21C247.694 167.723 247.81 168.12 248.044 168.4C248.277 168.68 248.62 168.82 249.074 168.82C249.414 168.82 249.73 168.75 250.024 168.61C250.324 168.463 250.614 168.267 250.894 168.02V160.63H253.994ZM259.57 171.16C259.077 171.16 258.64 171.09 258.26 170.95C257.887 170.803 257.57 170.6 257.31 170.34C257.057 170.073 256.863 169.753 256.73 169.38C256.597 169.007 256.53 168.59 256.53 168.13V162.77H255.65C255.49 162.77 255.353 162.72 255.24 162.62C255.127 162.513 255.07 162.36 255.07 162.16V160.95L256.72 160.63L257.33 158.1C257.41 157.78 257.637 157.62 258.01 157.62H259.63V160.65H262.2V162.77H259.63V167.92C259.63 168.16 259.687 168.36 259.8 168.52C259.92 168.673 260.09 168.75 260.31 168.75C260.423 168.75 260.517 168.74 260.59 168.72C260.67 168.693 260.737 168.667 260.79 168.64C260.85 168.607 260.903 168.58 260.95 168.56C261.003 168.533 261.063 168.52 261.13 168.52C261.223 168.52 261.297 168.543 261.35 168.59C261.41 168.63 261.47 168.697 261.53 168.79L262.47 170.26C262.07 170.56 261.62 170.787 261.12 170.94C260.62 171.087 260.103 171.16 259.57 171.16ZM267.685 171V160.63H269.605C269.991 160.63 270.245 160.803 270.365 161.15L270.535 161.71C270.708 161.53 270.888 161.367 271.075 161.22C271.261 161.067 271.461 160.937 271.675 160.83C271.895 160.717 272.128 160.63 272.375 160.57C272.628 160.503 272.905 160.47 273.205 160.47C273.831 160.47 274.348 160.633 274.755 160.96C275.168 161.28 275.481 161.71 275.695 162.25C275.868 161.93 276.078 161.657 276.325 161.43C276.578 161.203 276.848 161.02 277.135 160.88C277.428 160.74 277.735 160.637 278.055 160.57C278.381 160.503 278.705 160.47 279.025 160.47C279.618 160.47 280.145 160.56 280.605 160.74C281.065 160.913 281.448 161.17 281.755 161.51C282.068 161.843 282.305 162.257 282.465 162.75C282.625 163.237 282.705 163.79 282.705 164.41V171H279.605V164.41C279.605 163.337 279.145 162.8 278.225 162.8C277.805 162.8 277.455 162.94 277.175 163.22C276.901 163.493 276.765 163.89 276.765 164.41V171H273.665V164.41C273.665 163.817 273.548 163.4 273.315 163.16C273.081 162.92 272.738 162.8 272.285 162.8C272.005 162.8 271.738 162.863 271.485 162.99C271.238 163.117 271.005 163.287 270.785 163.5V171H267.685ZM290.906 164.57C290.906 164.323 290.873 164.083 290.806 163.85C290.746 163.617 290.643 163.41 290.496 163.23C290.356 163.043 290.17 162.893 289.936 162.78C289.703 162.667 289.42 162.61 289.086 162.61C288.5 162.61 288.04 162.78 287.706 163.12C287.373 163.453 287.153 163.937 287.046 164.57H290.906ZM287.006 166.37C287.106 167.237 287.37 167.867 287.796 168.26C288.223 168.647 288.773 168.84 289.446 168.84C289.806 168.84 290.116 168.797 290.376 168.71C290.636 168.623 290.866 168.527 291.066 168.42C291.273 168.313 291.46 168.217 291.626 168.13C291.8 168.043 291.98 168 292.166 168C292.413 168 292.6 168.09 292.726 168.27L293.626 169.38C293.306 169.747 292.96 170.047 292.586 170.28C292.22 170.507 291.84 170.687 291.446 170.82C291.06 170.947 290.67 171.033 290.276 171.08C289.89 171.133 289.52 171.16 289.166 171.16C288.44 171.16 287.756 171.043 287.116 170.81C286.483 170.57 285.926 170.217 285.446 169.75C284.973 169.283 284.596 168.703 284.316 168.01C284.043 167.317 283.906 166.51 283.906 165.59C283.906 164.897 284.023 164.24 284.256 163.62C284.496 163 284.836 162.457 285.276 161.99C285.723 161.523 286.26 161.153 286.886 160.88C287.52 160.607 288.233 160.47 289.026 160.47C289.713 160.47 290.34 160.577 290.906 160.79C291.48 161.003 291.97 161.313 292.376 161.72C292.79 162.127 293.11 162.627 293.336 163.22C293.57 163.807 293.686 164.473 293.686 165.22C293.686 165.453 293.676 165.643 293.656 165.79C293.636 165.937 293.6 166.053 293.546 166.14C293.493 166.227 293.42 166.287 293.326 166.32C293.24 166.353 293.126 166.37 292.986 166.37H287.006ZM298.946 157.76C299.193 157.553 299.46 157.36 299.746 157.18C300.04 157 300.353 156.843 300.686 156.71C301.02 156.57 301.376 156.463 301.756 156.39C302.143 156.31 302.56 156.27 303.006 156.27C303.633 156.27 304.196 156.353 304.696 156.52C305.203 156.687 305.633 156.927 305.986 157.24C306.34 157.547 306.61 157.92 306.796 158.36C306.99 158.793 307.086 159.277 307.086 159.81C307.086 160.317 307.016 160.757 306.876 161.13C306.736 161.497 306.56 161.817 306.346 162.09C306.133 162.363 305.896 162.6 305.636 162.8C305.383 163 305.14 163.187 304.906 163.36C304.68 163.527 304.48 163.693 304.306 163.86C304.14 164.027 304.033 164.213 303.986 164.42L303.706 165.82H301.586L301.366 164.21C301.313 163.883 301.346 163.6 301.466 163.36C301.586 163.113 301.75 162.893 301.956 162.7C302.17 162.5 302.406 162.313 302.666 162.14C302.926 161.96 303.17 161.77 303.396 161.57C303.623 161.363 303.813 161.137 303.966 160.89C304.126 160.637 304.206 160.337 304.206 159.99C304.206 159.59 304.073 159.273 303.806 159.04C303.546 158.8 303.186 158.68 302.726 158.68C302.373 158.68 302.076 158.717 301.836 158.79C301.603 158.863 301.4 158.947 301.226 159.04C301.06 159.127 300.913 159.207 300.786 159.28C300.66 159.353 300.533 159.39 300.406 159.39C300.12 159.39 299.906 159.267 299.766 159.02L298.946 157.76ZM300.786 169.43C300.786 169.19 300.83 168.967 300.916 168.76C301.01 168.553 301.133 168.373 301.286 168.22C301.446 168.067 301.633 167.947 301.846 167.86C302.06 167.767 302.293 167.72 302.546 167.72C302.793 167.72 303.023 167.767 303.236 167.86C303.45 167.947 303.636 168.067 303.796 168.22C303.956 168.373 304.08 168.553 304.166 168.76C304.26 168.967 304.306 169.19 304.306 169.43C304.306 169.67 304.26 169.897 304.166 170.11C304.08 170.317 303.956 170.497 303.796 170.65C303.636 170.803 303.45 170.923 303.236 171.01C303.023 171.097 302.793 171.14 302.546 171.14C302.293 171.14 302.06 171.097 301.846 171.01C301.633 170.923 301.446 170.803 301.286 170.65C301.133 170.497 301.01 170.317 300.916 170.11C300.83 169.897 300.786 169.67 300.786 169.43Z" fill="#2B2B2B"/>
</g>
<defs>
<filter id="filter0_d_1878_5518" x="0.988281" y="0.689941" width="336" height="204.024" filterUnits="userSpaceOnUse" color-interpolation-filters="sRGB">
<feFlood flood-opacity="0" result="BackgroundImageFix"/>
<feColorMatrix in="SourceAlpha" type="matrix" values="0 0 0 0 0 0 0 0 0 0 0 0 0 0 0 0 0 0 127 0" result="hardAlpha"/>
<feOffset dy="4"/>
<feGaussianBlur stdDeviation="2"/>
<feComposite in2="hardAlpha" operator="out"/>
<feColorMatrix type="matrix" values="0 0 0 0 0 0 0 0 0 0 0 0 0 0 0 0 0 0 0.25 0"/>
<feBlend mode="normal" in2="BackgroundImageFix" result="effect1_dropShadow_1878_5518"/>
<feBlend mode="normal" in="SourceGraphic" in2="effect1_dropShadow_1878_5518" result="shape"/>
</filter>
<filter id="filter1_d_1878_5518" x="69.8516" y="74.2321" width="198.125" height="58.688" filterUnits="userSpaceOnUse" color-interpolation-filters="sRGB">
<feFlood flood-opacity="0" result="BackgroundImageFix"/>
<feColorMatrix in="SourceAlpha" type="matrix" values="0 0 0 0 0 0 0 0 0 0 0 0 0 0 0 0 0 0 127 0" result="hardAlpha"/>
<feOffset/>
<feGaussianBlur stdDeviation="8"/>
<feComposite in2="hardAlpha" operator="out"/>
<feColorMatrix type="matrix" values="0 0 0 0 0 0 0 0 0 0 0 0 0 0 0 0 0 0 0.25 0"/>
<feBlend mode="normal" in2="BackgroundImageFix" result="effect1_dropShadow_1878_5518"/>
<feBlend mode="normal" in="SourceGraphic" in2="effect1_dropShadow_1878_5518" result="shape"/>
</filter>
<filter id="filter2_d_1878_5518" x="133.937" y="9.09202" width="72.857" height="72.8554" filterUnits="userSpaceOnUse" color-interpolation-filters="sRGB">
<feFlood flood-opacity="0" result="BackgroundImageFix"/>
<feColorMatrix in="SourceAlpha" type="matrix" values="0 0 0 0 0 0 0 0 0 0 0 0 0 0 0 0 0 0 127 0" result="hardAlpha"/>
<feOffset/>
<feGaussianBlur stdDeviation="3.98085"/>
<feComposite in2="hardAlpha" operator="out"/>
<feColorMatrix type="matrix" values="0 0 0 0 0 0 0 0 0 0 0 0 0 0 0 0 0 0 0.25 0"/>
<feBlend mode="normal" in2="BackgroundImageFix" result="effect1_dropShadow_1878_5518"/>
<feBlend mode="normal" in="SourceGraphic" in2="effect1_dropShadow_1878_5518" result="shape"/>
</filter>
<linearGradient id="paint0_linear_1878_5518" x1="15.7135" y1="10.6699" x2="320.663" y2="146.229" gradientUnits="userSpaceOnUse">
<stop stop-color="#8D81E3"/>
<stop offset="0.607127" stop-color="#6C60CA"/>
</linearGradient>
</defs>
</svg>
