<svg width="72" height="24" viewBox="0 0 72 24" fill="none" xmlns="http://www.w3.org/2000/svg">
<g clip-path="url(#clip0_757_1407)">
<path d="M66.307 0.852614H6.20513C5.98605 0.852614 5.7696 0.852614 5.5511 0.853764C5.36819 0.854914 5.18675 0.858255 5.00209 0.861066C4.60092 0.86561 4.20069 0.899578 3.80489 0.962675C3.40964 1.02715 3.02678 1.14869 2.66924 1.3232C2.31214 1.49919 1.98585 1.72786 1.7022 2.00093C1.41707 2.27323 1.17939 2.58797 0.998296 2.93306C0.816706 3.27745 0.690791 3.6465 0.6249 4.02746C0.558383 4.40795 0.522589 4.79281 0.51784 5.17861C0.512296 5.35491 0.511711 5.53179 0.508789 5.70811V18.9988C0.511711 19.1773 0.512296 19.3503 0.51784 19.5289C0.52259 19.9147 0.558384 20.2995 0.6249 20.68C0.69061 21.0612 0.816532 21.4304 0.998296 21.775C1.1793 22.1189 1.41702 22.4324 1.7022 22.7032C1.98478 22.9775 2.31128 23.2063 2.66924 23.3809C3.02677 23.5559 3.4096 23.6782 3.80489 23.7437C4.20076 23.8062 4.60094 23.8402 5.00209 23.8453C5.18675 23.8492 5.36819 23.8515 5.5511 23.8515C5.76959 23.8526 5.98606 23.8526 6.20513 23.8526H66.307C66.5217 23.8526 66.7399 23.8526 66.9546 23.8515C67.1366 23.8515 67.3233 23.8492 67.5054 23.8453C67.9058 23.8405 68.3052 23.8065 68.7002 23.7437C69.0968 23.6777 69.481 23.5555 69.8403 23.3809C70.1979 23.2062 70.5241 22.9774 70.8064 22.7032C71.0909 22.4313 71.3291 22.1181 71.5124 21.775C71.6928 21.4302 71.8175 21.061 71.8822 20.68C71.9488 20.2995 71.9859 19.9147 71.9931 19.5289C71.9954 19.3503 71.9954 19.1773 71.9954 18.9988C72.0001 18.7899 72.0001 18.5822 72.0001 18.3699V6.33589C72.0001 6.12532 72.0001 5.91643 71.9954 5.70811C71.9954 5.53179 71.9954 5.35491 71.9931 5.17859C71.9859 4.79276 71.9488 4.40797 71.8822 4.02744C71.8173 3.6467 71.6926 3.27768 71.5124 2.93303C71.1436 2.24135 70.5588 1.67833 69.8403 1.32315C69.481 1.14907 69.0968 1.02755 68.7002 0.962623C68.3053 0.899248 67.9058 0.865268 67.5054 0.860986C67.3233 0.85818 67.1366 0.85481 66.9546 0.853689C66.7399 0.852539 66.5217 0.852539 66.307 0.852539V0.852614Z" fill="#A6A6A6"/>
<path d="M5.55393 23.3492C5.3719 23.3492 5.19428 23.347 5.01368 23.3431C4.63955 23.3384 4.26631 23.307 3.89699 23.2493C3.55263 23.1922 3.21903 23.086 2.9072 22.9342C2.59823 22.7837 2.31643 22.5863 2.07259 22.3497C1.82521 22.1158 1.61926 21.8446 1.4629 21.5467C1.30481 21.2469 1.19541 20.9255 1.13849 20.5938C1.07703 20.2374 1.04378 19.877 1.03902 19.5157C1.03523 19.3944 1.03027 18.9907 1.03027 18.9907V5.70784C1.03027 5.70784 1.03555 5.31028 1.03905 5.19348C1.04361 4.83277 1.07667 4.47292 1.13794 4.11704C1.19496 3.78441 1.30445 3.46212 1.46262 3.16133C1.61841 2.86366 1.82322 2.59221 2.0691 2.35751C2.31471 2.12058 2.59741 1.92219 2.90691 1.76959C3.21802 1.6183 3.55099 1.51286 3.89466 1.45682C4.26518 1.3985 4.63973 1.36697 5.01515 1.36249L5.55422 1.35547H66.9516L67.4971 1.36277C67.8691 1.36703 68.2402 1.39828 68.6074 1.45626C68.9545 1.513 69.291 1.61917 69.6056 1.77127C70.2256 2.07881 70.7302 2.56536 71.0484 3.16273C71.2041 3.46145 71.3119 3.78111 71.3682 4.11086C71.4302 4.46966 71.4649 4.83234 71.472 5.19601C71.4737 5.35885 71.4737 5.53376 71.4737 5.70784C71.4785 5.92346 71.4785 6.1287 71.4785 6.33562V18.3696C71.4785 18.5785 71.4785 18.7823 71.4737 18.9878C71.4737 19.1748 71.4737 19.3461 71.4714 19.5224C71.4644 19.8796 71.4303 20.2358 71.3693 20.5882C71.3136 20.9223 71.2047 21.2462 71.0467 21.5484C70.8892 21.8431 70.6845 22.112 70.4399 22.3452C70.1959 22.5831 69.9136 22.7817 69.6039 22.9331C69.2901 23.0861 68.9541 23.1927 68.6074 23.2493C68.2381 23.3073 67.8648 23.3387 67.4906 23.3431C67.3157 23.347 67.1324 23.3492 66.9545 23.3492L66.3069 23.3504L5.55393 23.3492Z" fill="white"/>
<path d="M15.3067 12.5256C15.3131 12.0457 15.4456 11.5751 15.6918 11.1577C15.9379 10.7403 16.2898 10.3896 16.7146 10.1382C16.4447 9.76722 16.0887 9.46193 15.6748 9.24656C15.2608 9.03119 14.8005 8.91168 14.3302 8.89752C13.3269 8.79617 12.3543 9.4753 11.8431 9.4753C11.322 9.4753 10.5349 8.90758 9.68726 8.92437C9.13901 8.94141 8.6047 9.09485 8.13638 9.36974C7.66807 9.64462 7.28172 10.0316 7.01499 10.4929C5.85955 12.4182 6.7214 15.2478 7.82821 16.8041C8.38197 17.5662 9.02916 18.4175 9.87599 18.3873C10.7047 18.3542 11.0142 17.8787 12.0144 17.8787C13.0054 17.8787 13.2958 18.3873 14.1598 18.3681C15.049 18.3542 15.6093 17.6026 16.1436 16.8333C16.5415 16.2903 16.8477 15.6902 17.0508 15.0551C16.5342 14.8448 16.0933 14.4928 15.7832 14.043C15.473 13.5932 15.3073 13.0655 15.3067 12.5256Z" fill="black"/>
<path d="M13.675 7.87381C14.1598 7.31364 14.3986 6.59363 14.3408 5.8667C13.6001 5.94158 12.9159 6.2823 12.4245 6.82097C12.1842 7.08413 12.0002 7.39028 11.883 7.72193C11.7657 8.05357 11.7176 8.4042 11.7412 8.75377C12.1117 8.75745 12.4782 8.68016 12.8132 8.52773C13.1481 8.37531 13.4428 8.15172 13.675 7.87381Z" fill="black"/>
<path d="M25.7819 16.458H22.954L22.2749 18.3879H21.0771L23.7557 11.2476H25.0001L27.6787 18.3879H26.4605L25.7819 16.458ZM23.2469 15.5674H25.4885L24.3835 12.4352H24.3526L23.2469 15.5674Z" fill="black"/>
<path d="M33.4633 15.7851C33.4633 17.4029 32.5636 18.4422 31.206 18.4422C30.8621 18.4596 30.52 18.3833 30.2191 18.2222C29.9181 18.0612 29.6703 17.8218 29.5041 17.5314H29.4784V20.11H28.3682V13.1819H29.4429V14.0478H29.4633C29.6371 13.7588 29.8891 13.5207 30.1923 13.3586C30.4956 13.1966 30.8389 13.1167 31.1856 13.1274C32.5584 13.1274 33.4633 14.1719 33.4633 15.7851ZM32.3221 15.7851C32.3221 14.7311 31.7562 14.0382 30.8927 14.0382C30.0444 14.0382 29.4738 14.7457 29.4738 15.7851C29.4738 16.834 30.0444 17.5365 30.8927 17.5365C31.7562 17.5365 32.3221 16.8486 32.3221 15.7851Z" fill="black"/>
<path d="M39.4169 15.7851C39.4169 17.4029 38.5172 18.4422 37.1596 18.4422C36.8157 18.4596 36.4737 18.3833 36.1727 18.2222C35.8717 18.0612 35.6239 17.8218 35.4577 17.5314H35.432V20.11H34.3218V13.1819H35.3965V14.0478H35.4169C35.5907 13.7588 35.8427 13.5207 36.1459 13.3586C36.4492 13.1966 36.7925 13.1167 37.1392 13.1274C38.512 13.1274 39.4169 14.1719 39.4169 15.7851ZM38.2757 15.7851C38.2757 14.7311 37.7098 14.0382 36.8463 14.0382C35.998 14.0382 35.4274 14.7457 35.4274 15.7851C35.4274 16.834 35.998 17.5365 36.8463 17.5365C37.7098 17.5365 38.2757 16.8486 38.2757 15.7851H38.2757Z" fill="black"/>
<path d="M43.3514 16.3983C43.4337 17.1064 44.1484 17.5713 45.125 17.5713C46.0608 17.5713 46.7341 17.1064 46.7341 16.4679C46.7341 15.9137 46.328 15.5819 45.3666 15.3544L44.4051 15.1315C43.0428 14.8148 42.4103 14.2016 42.4103 13.2066C42.4103 11.9746 43.5258 11.1284 45.1098 11.1284C46.6775 11.1284 47.7522 11.9746 47.7884 13.2066H46.6676C46.6005 12.494 45.9885 12.0639 45.0941 12.0639C44.1997 12.0639 43.5877 12.4991 43.5877 13.1325C43.5877 13.6373 43.9786 13.9344 44.9348 14.1618L45.7522 14.3549C47.2744 14.7014 47.9068 15.2899 47.9068 16.3343C47.9068 17.6701 46.8012 18.5068 45.0427 18.5068C43.3975 18.5068 42.2866 17.6898 42.2148 16.3983L43.3514 16.3983Z" fill="black"/>
<path d="M50.3029 11.9502V13.1822H51.3314V14.0284H50.3029V16.8983C50.3029 17.3442 50.5088 17.552 50.961 17.552C51.0831 17.5499 51.205 17.5417 51.3262 17.5272V18.3684C51.1229 18.4049 50.9163 18.4215 50.7095 18.4178C49.6144 18.4178 49.1873 18.0219 49.1873 17.0123V14.0284H48.4009V13.1822H49.1873V11.9502H50.3029Z" fill="black"/>
<path d="M51.9272 15.7854C51.9272 14.1474 52.9296 13.1182 54.4926 13.1182C56.0609 13.1182 57.0585 14.1474 57.0585 15.7854C57.0585 17.4279 56.0661 18.4526 54.4926 18.4526C52.9196 18.4526 51.9272 17.4279 51.9272 15.7854ZM55.9272 15.7854C55.9272 14.6618 55.3922 13.9986 54.4926 13.9986C53.5929 13.9986 53.0585 14.6668 53.0585 15.7854C53.0585 16.9135 53.5929 17.5716 54.4926 17.5716C55.3922 17.5716 55.9272 16.9135 55.9272 15.7854H55.9272Z" fill="black"/>
<path d="M57.9741 13.1818H59.0331V14.0679H59.0587C59.1304 13.7912 59.2988 13.5466 59.5358 13.3753C59.7727 13.204 60.0637 13.1165 60.3598 13.1274C60.4877 13.1269 60.6153 13.1403 60.7402 13.1672V14.1668C60.5787 14.1192 60.4102 14.0974 60.2413 14.1022C60.08 14.0959 59.9192 14.1233 59.77 14.1824C59.6207 14.2416 59.4865 14.3311 59.3766 14.4449C59.2667 14.5587 59.1837 14.694 59.1332 14.8416C59.0828 14.9892 59.0661 15.1455 59.0844 15.2999V18.3877H57.9741L57.9741 13.1818Z" fill="black"/>
<path d="M65.8592 16.859C65.7099 17.8041 64.7536 18.4526 63.5302 18.4526C61.9566 18.4526 60.98 17.438 60.98 15.8101C60.98 14.1772 61.9619 13.1182 63.4835 13.1182C64.98 13.1182 65.9211 14.1076 65.9211 15.686V16.0521H62.1008V16.1167C62.0831 16.3083 62.108 16.5013 62.1739 16.6829C62.2397 16.8645 62.3449 17.0306 62.4825 17.17C62.6202 17.3095 62.787 17.4192 62.9721 17.4918C63.1571 17.5644 63.3561 17.5983 63.5558 17.5913C63.8182 17.6149 64.0815 17.5564 64.3066 17.4245C64.5316 17.2926 64.7064 17.0943 64.805 16.859L65.8592 16.859ZM62.106 15.3053H64.8102C64.8202 15.133 64.793 14.9606 64.7305 14.7989C64.668 14.6372 64.5714 14.4897 64.4468 14.3657C64.3222 14.2416 64.1723 14.1437 64.0066 14.078C63.8408 14.0123 63.6627 13.9803 63.4835 13.984C63.3027 13.983 63.1235 14.0164 62.9561 14.0824C62.7888 14.1484 62.6368 14.2456 62.5087 14.3684C62.3806 14.4913 62.2791 14.6373 62.21 14.7981C62.1409 14.9589 62.1055 15.1313 62.106 15.3053V15.3053Z" fill="black"/>
<path d="M23.1075 5.87255C23.3402 5.85647 23.5738 5.89031 23.7913 5.97164C24.0089 6.05296 24.2049 6.17974 24.3654 6.34282C24.5259 6.50591 24.6467 6.70123 24.7192 6.91471C24.7918 7.12819 24.8142 7.35451 24.7848 7.57733C24.7848 8.67342 24.1693 9.30348 23.1075 9.30348H21.8198V5.87255H23.1075ZM22.3735 8.81827H23.0456C23.2119 8.82784 23.3784 8.80159 23.5328 8.74144C23.6873 8.68129 23.8259 8.58874 23.9385 8.47054C24.0511 8.35234 24.1349 8.21146 24.1838 8.05815C24.2327 7.90485 24.2455 7.74298 24.2212 7.58432C24.2437 7.42629 24.2297 7.26542 24.18 7.11324C24.1304 6.96106 24.0463 6.82133 23.934 6.70407C23.8216 6.58681 23.6837 6.49492 23.5301 6.43499C23.3765 6.37505 23.2111 6.34855 23.0456 6.35739H22.3735V8.81827Z" fill="black"/>
<path d="M25.4103 8.00797C25.3934 7.83782 25.4136 7.66614 25.4697 7.50395C25.5257 7.34176 25.6164 7.19264 25.7359 7.06615C25.8553 6.93966 26.0009 6.83859 26.1633 6.76943C26.3257 6.70028 26.5014 6.66455 26.679 6.66455C26.8566 6.66455 27.0322 6.70028 27.1946 6.76943C27.357 6.83859 27.5026 6.93966 27.6221 7.06615C27.7415 7.19264 27.8322 7.34176 27.8883 7.50395C27.9443 7.66614 27.9646 7.83782 27.9476 8.00797C27.9649 8.1783 27.9449 8.35021 27.889 8.51266C27.8331 8.67511 27.7424 8.82451 27.623 8.95125C27.5035 9.07799 27.3578 9.17926 27.1952 9.24857C27.0326 9.31788 26.8568 9.35368 26.679 9.35368C26.5012 9.35368 26.3253 9.31788 26.1627 9.24857C26.0002 9.17926 25.8545 9.07799 25.735 8.95125C25.6155 8.82451 25.5249 8.67511 25.469 8.51266C25.413 8.35021 25.3931 8.1783 25.4103 8.00797ZM27.4015 8.00797C27.4015 7.44673 27.1396 7.11852 26.6798 7.11852C26.2184 7.11852 25.9587 7.44673 25.9587 8.00797C25.9587 8.57371 26.2184 8.89939 26.6798 8.89939C27.1396 8.89939 27.4016 8.57146 27.4016 8.00797H27.4015Z" fill="black"/>
<path d="M31.3206 9.30354H30.7698L30.2138 7.3966H30.1718L29.6181 9.30354H29.0726L28.3311 6.71436H28.8696L29.3515 8.69006H29.3912L29.9442 6.71436H30.4536L31.0067 8.69006H31.0487L31.5283 6.71436H32.0592L31.3206 9.30354Z" fill="black"/>
<path d="M32.6826 6.71415H33.1937V7.12546H33.2334C33.3007 6.97773 33.4142 6.8539 33.5581 6.77121C33.702 6.68852 33.8691 6.6511 34.0362 6.66417C34.1671 6.6547 34.2985 6.67369 34.4207 6.71975C34.543 6.7658 34.6529 6.83774 34.7423 6.93022C34.8317 7.02271 34.8984 7.13337 34.9373 7.25402C34.9763 7.37467 34.9865 7.5022 34.9673 7.62718V9.3033H34.4364V7.7555C34.4364 7.33941 34.2486 7.13248 33.8559 7.13248C33.767 7.1285 33.6783 7.14306 33.5958 7.17516C33.5133 7.20726 33.4391 7.25615 33.378 7.31847C33.317 7.38079 33.2707 7.45507 33.2423 7.53623C33.214 7.61738 33.2041 7.70348 33.2135 7.78862V9.30333H32.6826L32.6826 6.71415Z" fill="black"/>
<path d="M35.8135 5.70361H36.3444V9.30354H35.8135V5.70361Z" fill="black"/>
<path d="M37.0822 8.00802C37.0653 7.83785 37.0855 7.66617 37.1416 7.50397C37.1976 7.34177 37.2883 7.19265 37.4078 7.06615C37.5273 6.93966 37.6729 6.8386 37.8353 6.76944C37.9977 6.70028 38.1734 6.66455 38.351 6.66455C38.5286 6.66455 38.7042 6.70028 38.8667 6.76944C39.0291 6.8386 39.1747 6.93966 39.2942 7.06615C39.4136 7.19265 39.5043 7.34177 39.5604 7.50397C39.6165 7.66617 39.6367 7.83785 39.6198 8.00802C39.637 8.17835 39.617 8.35027 39.5611 8.51272C39.5051 8.67517 39.4145 8.82456 39.295 8.9513C39.1755 9.07803 39.0298 9.1793 38.8672 9.24861C38.7046 9.31791 38.5288 9.35372 38.351 9.35372C38.1732 9.35372 37.9973 9.31791 37.8347 9.24861C37.6721 9.1793 37.5264 9.07803 37.4069 8.9513C37.2874 8.82456 37.1968 8.67517 37.1409 8.51272C37.0849 8.35027 37.0649 8.17835 37.0822 8.00802ZM39.0734 8.00802C39.0734 7.44678 38.8114 7.11857 38.3517 7.11857C37.8902 7.11857 37.6306 7.44678 37.6306 8.00802C37.6306 8.57376 37.8902 8.89944 38.3517 8.89944C38.8114 8.89943 39.0734 8.57151 39.0734 8.00802H39.0734Z" fill="black"/>
<path d="M40.1787 8.57148C40.1787 8.10541 40.5393 7.83673 41.1793 7.79854L41.908 7.75811V7.53463C41.908 7.26117 41.7201 7.10675 41.3572 7.10675C41.0609 7.10675 40.8555 7.21147 40.7966 7.39453H40.2826C40.3368 6.9498 40.7715 6.66455 41.3817 6.66455C42.0562 6.66455 42.4366 6.9877 42.4366 7.53463V9.30371H41.9255V8.93984H41.8835C41.7982 9.07036 41.6785 9.17677 41.5365 9.24819C41.3946 9.31961 41.2355 9.35349 41.0754 9.34637C40.9625 9.35767 40.8484 9.34608 40.7404 9.31233C40.6324 9.27857 40.5329 9.22342 40.4484 9.15041C40.364 9.0774 40.2963 8.98817 40.2498 8.88845C40.2034 8.78874 40.1792 8.68076 40.1787 8.57148ZM41.908 8.35024V8.13377L41.2511 8.1742C40.8806 8.19806 40.7125 8.31935 40.7125 8.54761C40.7125 8.78064 40.9226 8.91625 41.2114 8.91625C41.296 8.9245 41.3815 8.91627 41.4628 8.89207C41.544 8.86787 41.6194 8.82818 41.6844 8.77537C41.7494 8.72256 41.8027 8.65771 41.8411 8.58468C41.8795 8.51164 41.9023 8.43191 41.908 8.35024Z" fill="black"/>
<path d="M43.1348 8.00783C43.1348 7.18969 43.5718 6.67141 44.2515 6.67141C44.4196 6.66395 44.5864 6.70271 44.7325 6.78315C44.8786 6.86359 44.9979 6.98239 45.0764 7.12566H45.1161V5.70361H45.647V9.30354H45.1383V8.89447H45.0963C45.0117 9.03677 44.8882 9.15409 44.7393 9.23372C44.5904 9.31335 44.4217 9.35225 44.2515 9.34621C43.5671 9.34624 43.1348 8.82794 43.1348 8.00783ZM43.6832 8.00783C43.6832 8.557 43.9522 8.88746 44.402 8.88746C44.8495 8.88746 45.126 8.55224 45.126 8.01008C45.126 7.47046 44.8466 7.13045 44.402 7.13045C43.9551 7.13045 43.6832 7.46315 43.6832 8.00783H43.6832Z" fill="black"/>
<path d="M47.8434 8.00797C47.8265 7.83782 47.8467 7.66614 47.9028 7.50395C47.9588 7.34176 48.0495 7.19264 48.169 7.06615C48.2884 6.93966 48.434 6.83859 48.5964 6.76943C48.7588 6.70028 48.9345 6.66455 49.1121 6.66455C49.2897 6.66455 49.4653 6.70028 49.6277 6.76943C49.7901 6.83859 49.9357 6.93966 50.0552 7.06615C50.1746 7.19264 50.2653 7.34176 50.3214 7.50395C50.3774 7.66614 50.3977 7.83782 50.3807 8.00797C50.398 8.1783 50.378 8.35021 50.3221 8.51266C50.2662 8.67511 50.1756 8.82451 50.0561 8.95125C49.9366 9.07799 49.7909 9.17926 49.6283 9.24857C49.4657 9.31788 49.2899 9.35368 49.1121 9.35368C48.9343 9.35368 48.7584 9.31788 48.5958 9.24857C48.4333 9.17926 48.2876 9.07799 48.1681 8.95125C48.0486 8.82451 47.958 8.67511 47.9021 8.51266C47.8462 8.35021 47.8262 8.1783 47.8434 8.00797ZM49.8346 8.00797C49.8346 7.44673 49.5727 7.11852 49.1129 7.11852C48.6515 7.11852 48.3918 7.44673 48.3918 8.00797C48.3918 8.57371 48.6515 8.89939 49.1129 8.89939C49.5727 8.89939 49.8346 8.57146 49.8346 8.00797Z" fill="black"/>
<path d="M51.0933 6.71415H51.6043V7.12546H51.644C51.7113 6.97773 51.8248 6.8539 51.9687 6.77121C52.1127 6.68852 52.2798 6.6511 52.4468 6.66417C52.5777 6.6547 52.7092 6.67369 52.8314 6.71975C52.9536 6.7658 53.0635 6.83774 53.153 6.93022C53.2424 7.02271 53.309 7.13337 53.348 7.25402C53.3869 7.37467 53.3972 7.5022 53.378 7.62718V9.3033H52.8471V7.7555C52.8471 7.33941 52.6592 7.13248 52.2665 7.13248C52.1777 7.1285 52.089 7.14306 52.0065 7.17516C51.924 7.20726 51.8497 7.25615 51.7887 7.31847C51.7277 7.38079 51.6814 7.45507 51.653 7.53623C51.6246 7.61738 51.6148 7.70348 51.6242 7.78862V9.30333H51.0933V6.71415Z" fill="black"/>
<path d="M56.378 6.06982V6.72624H56.9609V7.15665H56.378V8.48803C56.378 8.75924 56.4941 8.878 56.7584 8.878C56.8261 8.87779 56.8937 8.87386 56.9609 8.86621V9.29184C56.8655 9.30826 56.7689 9.31699 56.6721 9.31795C56.0816 9.31795 55.8465 9.11805 55.8465 8.61886V7.15663H55.4194V6.72622H55.8465V6.06982H56.378Z" fill="black"/>
<path d="M57.686 5.70361H58.2123V7.13045H58.2543C58.3249 6.98134 58.4415 6.8568 58.5883 6.7738C58.7351 6.6908 58.9049 6.65338 59.0746 6.66663C59.2048 6.65981 59.335 6.68073 59.4558 6.72791C59.5767 6.77508 59.6852 6.84734 59.7737 6.93954C59.8622 7.03173 59.9284 7.14159 59.9677 7.26126C60.007 7.38094 60.0184 7.50749 60.0011 7.63189V9.30354H59.4696V7.75794C59.4696 7.34438 59.2695 7.13493 58.8943 7.13493C58.8031 7.12773 58.7113 7.1398 58.6254 7.17031C58.5395 7.20081 58.4616 7.24902 58.3971 7.31154C58.3325 7.37406 58.283 7.4494 58.2519 7.53228C58.2208 7.61516 58.2089 7.70358 58.217 7.79135V9.30353H57.6861L57.686 5.70361Z" fill="black"/>
<path d="M63.0966 8.60466C63.0245 8.84129 62.8682 9.04598 62.6551 9.18292C62.442 9.31985 62.1857 9.38032 61.9309 9.35373C61.7537 9.35823 61.5776 9.32556 61.4148 9.25798C61.252 9.1904 61.1064 9.08953 60.9882 8.96238C60.8699 8.83522 60.7818 8.68483 60.7301 8.52163C60.6783 8.35843 60.664 8.18634 60.6882 8.0173C60.6646 7.84775 60.6792 7.67528 60.7308 7.5116C60.7825 7.34791 60.8701 7.19682 60.9877 7.06855C61.1053 6.94029 61.2502 6.83784 61.4125 6.76814C61.5749 6.69845 61.7509 6.66314 61.9286 6.66459C62.6771 6.66459 63.1287 7.15679 63.1287 7.96984V8.14815H61.2291V8.17678C61.2208 8.2718 61.2332 8.36744 61.2655 8.45757C61.2978 8.5477 61.3494 8.63033 61.4168 8.70017C61.4843 8.77001 61.5662 8.82551 61.6572 8.86311C61.7483 8.90071 61.8465 8.91959 61.9455 8.91853C62.0725 8.9332 62.2012 8.9112 62.3152 8.8553C62.4291 8.79941 62.5232 8.71215 62.5855 8.60464L63.0966 8.60466ZM61.2291 7.77023H62.5879C62.5946 7.68333 62.5823 7.59605 62.5518 7.51399C62.5214 7.43192 62.4735 7.3569 62.4111 7.29373C62.3487 7.23056 62.2733 7.18065 62.1897 7.1472C62.1061 7.11375 62.0162 7.0975 61.9257 7.0995C61.8338 7.09838 61.7427 7.11498 61.6577 7.1483C61.5726 7.18161 61.4953 7.23098 61.4304 7.29349C61.3655 7.356 61.3142 7.43039 61.2797 7.51227C61.2451 7.59414 61.2279 7.68186 61.2291 7.77023H61.2291Z" fill="black"/>
</g>
<defs>
<clipPath id="clip0_757_1407">
<rect width="71.4913" height="23" fill="white" transform="translate(0.508789 0.852539)"/>
</clipPath>
</defs>
</svg>
