<svg width="24" height="22" viewBox="0 0 24 22" fill="none" xmlns="http://www.w3.org/2000/svg">
<path d="M21.0008 13.1028L18.3105 11.5757V7.49412C18.3108 6.62414 18.1368 5.76315 17.799 4.96332C17.4612 4.16349 16.9667 3.44147 16.3454 2.841L15.572 2.09683C14.7622 1.31363 13.6858 0.876432 12.5662 0.875977C11.4466 0.876518 10.37 1.31369 9.55991 2.09683L8.79039 2.841C8.1689 3.44119 7.67414 4.16297 7.33606 4.96261C6.99799 5.76224 6.82365 6.62309 6.82359 7.49301V11.5757L4.14807 13.1017C3.46074 13.4333 2.8802 13.9554 2.47374 14.6075C2.06729 15.2597 1.85156 16.0152 1.85156 16.7865V21.4929H23.3023V16.7898C23.3022 16.0176 23.0859 15.2613 22.6785 14.6086C22.2711 13.956 21.6894 13.4339 21.0008 13.1028Z" fill="#DEE1EC"/>
<path d="M14.9485 4.5336C13.7666 2.90487 11.3737 2.92041 10.2027 4.5336L10.0269 4.77499C9.00369 6.18443 8.45178 7.88825 8.45168 9.63788V10.5446C8.45199 10.872 8.55163 11.1913 8.73709 11.4593C8.92255 11.7273 9.18487 11.9311 9.48847 12.043L10.2262 12.3143C11.7439 12.8731 13.4073 12.8731 14.925 12.3143L15.6627 12.043C15.9663 11.9311 16.2286 11.7273 16.4141 11.4593C16.5996 11.1913 16.6992 10.872 16.6995 10.5446V9.63788C16.6994 7.88825 16.1475 6.18443 15.1243 4.77499L14.9485 4.5336ZM5.47656 16.6423H5.80518V21.1372H5.47656V16.6423ZM19.5465 16.6423H19.8751V21.1372H19.5465V16.6423Z" fill="#5E6175"/>
<path d="M13.1128 9.36355H12.0913C12.0918 9.01303 12.1743 8.66762 12.3322 8.35573C12.4901 8.04383 12.7187 7.77435 12.9994 7.56945C13.0942 7.50067 13.17 7.40835 13.2195 7.30135C13.2689 7.19435 13.2904 7.07627 13.2818 6.95844C13.2733 6.84061 13.235 6.72698 13.1706 6.62848C13.1062 6.52997 13.0179 6.44989 12.9142 6.39592C12.8104 6.34195 12.6947 6.3159 12.5782 6.32029C12.4617 6.32467 12.3482 6.35933 12.2487 6.42094C12.1492 6.48255 12.067 6.56904 12.01 6.67211C11.953 6.77518 11.9231 6.89137 11.9232 7.00952H10.8984C10.8985 6.71398 10.9735 6.42342 11.1162 6.16568C11.259 5.90795 11.4647 5.69169 11.7136 5.53763C11.9625 5.38357 12.2463 5.29688 12.5378 5.28587C12.8293 5.27486 13.1187 5.3399 13.3782 5.47475C13.6378 5.6096 13.8588 5.80975 14.0201 6.056C14.1813 6.30225 14.2775 6.58635 14.2993 6.88106C14.3211 7.17578 14.2678 7.47122 14.1445 7.73907C14.0212 8.00692 13.8321 8.2382 13.5953 8.41073C13.4462 8.51947 13.3246 8.66257 13.2407 8.82822C13.1568 8.99388 13.113 9.17736 13.1128 9.36355ZM12.0787 10.1649H13.1057V11.2054H12.0787V10.1649Z" fill="#E1830E"/>
<path d="M6.84998 11.2202C6.84998 11.2202 7.35003 13.5676 12.5943 13.9588C12.5943 13.9588 7.72795 15.5776 5.67188 11.8922L6.84998 11.2202Z" fill="url(#paint0_linear_424_670)"/>
<path d="M18.3341 11.2202C18.3341 11.2202 17.8341 13.5676 12.5898 13.9588C12.5898 13.9588 17.4573 15.5759 19.5133 11.89L18.3341 11.2202Z" fill="url(#paint1_linear_424_670)"/>
<path d="M10.0732 13.7216C7.07395 12.9136 6.70261 11.322 6.68837 11.2549L7.00932 11.1844C7.0126 11.1983 7.3719 12.6494 10.1575 13.3997C11.7535 13.8286 13.4322 13.8286 15.0282 13.3997C17.8138 12.6494 18.1715 11.1977 18.1769 11.1838L18.5001 11.2532C18.4859 11.3204 18.1167 12.9119 15.1148 13.7199C13.463 14.1648 11.7252 14.1654 10.0732 13.7216ZM17.244 1.70597L18.0103 0.929562L18.2426 1.16497L17.4763 1.94137L17.244 1.70597ZM16.3044 0.148438H16.633V1.24665H16.3044V0.148438ZM17.9595 2.49525H19.0434V2.82821H17.9595V2.49525ZM0.338864 14.0867C0.274235 14.0001 0.231687 13.8986 0.214989 13.7914C0.198292 13.6841 0.207961 13.5743 0.243138 13.4717C0.278316 13.3692 0.337917 13.277 0.416663 13.2033C0.495409 13.1296 0.59087 13.0768 0.69459 13.0494C0.79831 13.0221 0.907089 13.021 1.01129 13.0465C1.11549 13.0719 1.2119 13.1229 1.29198 13.1951C1.37206 13.2673 1.43334 13.3583 1.47039 13.4602C1.50743 13.5621 1.51911 13.6717 1.50437 13.7793C1.48617 13.9083 1.43072 14.0291 1.345 14.1263C1.25927 14.2236 1.1471 14.293 1.02256 14.3258C0.898024 14.3587 0.766684 14.3535 0.645041 14.311C0.523398 14.2684 0.416878 14.1904 0.338864 14.0867ZM0.858633 13.362C0.796629 13.362 0.735951 13.3802 0.683841 13.4142C0.63173 13.4482 0.590386 13.4968 0.564742 13.554C0.539099 13.6112 0.530238 13.6746 0.539217 13.7368C0.548196 13.7989 0.574636 13.8572 0.615382 13.9045C0.656128 13.9519 0.70946 13.9864 0.769014 14.0038C0.828568 14.0213 0.89183 14.0211 0.951251 14.0031C1.01067 13.9852 1.06374 13.9503 1.10413 13.9027C1.14452 13.855 1.17053 13.7966 1.17904 13.7343C1.18529 13.688 1.18168 13.6408 1.16844 13.5959C1.15521 13.5511 1.13266 13.5097 1.10231 13.4744C1.07196 13.4391 1.03451 13.4109 0.992485 13.3915C0.950455 13.3721 0.904816 13.362 0.858633 13.362ZM3.07847 11.7343C2.98341 11.7344 2.89059 11.7051 2.81243 11.6503C2.73426 11.5955 2.67448 11.5179 2.64108 11.4277C2.60768 11.3375 2.60225 11.2392 2.62552 11.1458C2.64879 11.0524 2.69965 10.9685 2.77129 10.9052C2.84294 10.8419 2.93195 10.8023 3.02643 10.7916C3.1209 10.781 3.21632 10.7998 3.29993 10.8457C3.38354 10.8915 3.45135 10.9621 3.49429 11.048C3.53722 11.1339 3.55323 11.2311 3.54018 11.3265C3.52472 11.4394 3.46947 11.543 3.38462 11.6179C3.29977 11.6929 3.19104 11.7342 3.07847 11.7343ZM3.0593 11.4014C3.08181 11.4046 3.10476 11.4022 3.12612 11.3943C3.14748 11.3864 3.16659 11.3733 3.18173 11.3561C3.19688 11.3389 3.20761 11.3182 3.21295 11.2958C3.2183 11.2734 3.21811 11.2501 3.21238 11.2278C3.20666 11.2055 3.19559 11.1849 3.18016 11.168C3.16472 11.1511 3.1454 11.1383 3.12391 11.1308C3.10242 11.1233 3.07943 11.1212 3.05698 11.1249C3.03453 11.1285 3.01331 11.1377 2.99522 11.1517C2.97356 11.1684 2.95726 11.1912 2.94836 11.2172C2.93947 11.2433 2.93838 11.2714 2.94522 11.2981C2.95207 11.3248 2.96656 11.3489 2.98685 11.3672C3.00715 11.3856 3.03235 11.3975 3.0593 11.4014Z" fill="#5E6175"/>
<path d="M23.4903 21.1373H23.1617V16.4343C23.1595 15.694 22.9512 14.9694 22.5606 14.3437C22.1701 13.7181 21.6131 13.2168 20.9539 12.8977C20.9331 12.8871 20.72 12.7656 18.1716 11.3172V7.13858C18.1698 6.29136 17.9991 5.45322 17.6697 4.67451C17.3402 3.89579 16.8589 3.19255 16.2546 2.60699L15.4862 1.86172C14.7066 1.10848 13.6707 0.688271 12.5935 0.688271C11.5163 0.688271 10.4804 1.10848 9.7008 1.86172L8.92964 2.60699C8.32531 3.19255 7.84399 3.89579 7.51457 4.67451C7.18516 5.45322 7.01445 6.29136 7.01268 7.13858V11.3172L4.24351 12.8966C3.58535 13.2162 3.02946 13.7173 2.63963 14.3425C2.24979 14.9676 2.04182 15.6915 2.03956 16.4309V21.1373H1.71094V16.4309C1.71309 15.6298 1.93772 14.8455 2.35915 14.1677C2.78057 13.4899 3.38177 12.9459 4.09399 12.598L6.68078 11.1225V7.13858C6.68248 6.24641 6.86209 5.36378 7.20882 4.54368C7.55555 3.72358 8.06225 2.98292 8.69851 2.36615L9.46967 1.62088C10.3104 0.808612 11.4274 0.355469 12.5891 0.355469C13.7508 0.355469 14.8678 0.808612 15.7085 1.62088L16.4802 2.36615C17.1165 2.98292 17.6232 3.72358 17.9699 4.54368C18.3167 5.36378 18.4963 6.24641 18.498 7.13858V11.1225L21.0979 12.5997C21.8118 12.9465 22.4148 13.4903 22.8375 14.1685C23.2603 14.8468 23.4858 15.6321 23.4881 16.4343L23.4903 21.1373Z" fill="#5E6175"/>
<path d="M10.9067 18.3701H10.5781V16.1148C10.5781 14.9905 10.9352 13.7747 10.9506 13.7236L11.2649 13.8196C11.2617 13.8313 10.9067 15.0405 10.9067 16.1148V18.3701ZM14.469 18.3701H14.1404V16.1143C14.1404 15.0405 13.7855 13.8313 13.7822 13.8191L14.0966 13.7236C14.1119 13.7747 14.469 14.9905 14.469 16.1143V18.3701Z" fill="#5E6175"/>
<path d="M10.7442 18.7403C10.946 18.7403 11.1095 18.5746 11.1095 18.3701C11.1095 18.1657 10.946 18 10.7442 18C10.5425 18 10.3789 18.1657 10.3789 18.3701C10.3789 18.5746 10.5425 18.7403 10.7442 18.7403Z" fill="#E1830E"/>
<path d="M14.3067 18.7403C14.5085 18.7403 14.672 18.5746 14.672 18.3701C14.672 18.1657 14.5085 18 14.3067 18C14.105 18 13.9414 18.1657 13.9414 18.3701C13.9414 18.5746 14.105 18.7403 14.3067 18.7403Z" fill="#E1830E"/>
<defs>
<linearGradient id="paint0_linear_424_670" x1="5.67188" y1="12.7663" x2="12.5943" y2="12.7663" gradientUnits="userSpaceOnUse">
<stop stop-color="#CACFDD"/>
<stop offset="1" stop-color="#EEF0F1"/>
</linearGradient>
<linearGradient id="paint1_linear_424_670" x1="5.66909" y1="12.7663" x2="12.5915" y2="12.7663" gradientUnits="userSpaceOnUse">
<stop stop-color="#CACFDD"/>
<stop offset="1" stop-color="#EEF0F1"/>
</linearGradient>
</defs>
</svg>
