<svg width="46" height="47" viewBox="0 0 46 47" fill="none" xmlns="http://www.w3.org/2000/svg">
<path d="M29.6796 35.4815C34.5124 36.8094 38.3533 40.713 39.7911 45.7094H12.2656C13.7037 40.713 17.5442 36.8094 22.3771 35.4814" fill="#CEE9F0"/>
<path d="M24.1433 35.4815C21.6483 36.8094 19.6646 40.713 18.9226 45.7094H12.2656C13.7037 40.713 17.5442 36.8094 22.3771 35.4814L24.1433 35.4815Z" fill="#82C3D9"/>
<path d="M29.7103 29.1587V34.9602C29.7103 37.0966 28.0602 38.8276 26.0258 38.8276C23.9905 38.8276 22.341 37.0966 22.341 34.9602V30.3555M35.588 20.9512C35.588 20.0864 36.2554 19.3857 37.0793 19.3857C37.9028 19.3857 38.5706 20.0863 38.5706 20.9512V21.3143C38.5706 23.3038 37.3753 25.0775 35.5879 25.7394H16.4631C14.6757 25.0775 13.4805 23.3038 13.4805 21.3143V20.9512C13.4805 20.0864 14.1482 19.3857 14.9718 19.3857C15.7954 19.3857 16.4631 20.0863 16.4631 20.9512" fill="#E8B182"/>
<path d="M35.5897 7.70312V23.5342C35.5897 26.3057 34.5191 28.8152 32.7891 30.632C31.0583 32.448 28.6679 33.5712 26.0273 33.5712C20.7459 33.5712 16.4648 29.0775 16.4648 23.5342V16.8499C16.4648 15.0016 17.3687 13.3746 18.7372 12.428" fill="#FFD0A6"/>
<path d="M28.8342 7.33447L18.5702 10.005L18.8313 12.401L18.7369 12.4275C17.3684 13.3741 16.4648 15.0011 16.4648 16.8494V23.5337C16.4648 29.0773 20.7459 33.5711 26.0269 33.5711C22.3687 33.5711 19.4036 29.0773 19.4036 23.5337V17.648C19.4036 15.8982 22.0524 13.4785 26.5399 14.4581C31.0276 15.438 28.8342 7.33447 28.8342 7.33447Z" fill="#E8B182"/>
<path d="M41.2921 8.28975C41.2921 11.6811 39.7115 14.5542 35.5899 15.5302C34.6136 15.7613 33.5732 15.8867 32.494 15.8867C29.1569 15.8867 26.1944 14.6933 24.3335 12.8486C23.602 13.1947 22.7774 13.3909 21.9047 13.3909C20.7229 13.3909 19.6299 13.0348 18.7375 12.4281C17.3689 13.3746 16.4655 15.0016 16.4655 16.8499V19.386C15.0908 17.0219 14.6328 15.3036 14.6328 13.9591C14.6328 11.2711 16.4655 10.0835 16.4655 8.23882C16.4655 5.39365 18.9008 3.08661 21.9047 3.08661C22.8054 3.08661 23.6547 3.29577 24.403 3.66325C26.268 1.85637 29.1981 0.692383 32.494 0.692383C38.1288 0.692383 41.2921 4.09409 41.2921 8.28975Z" fill="#715475"/>
<path d="M24.3335 12.8484C23.602 13.1946 22.7774 13.3908 21.9047 13.3908C20.7229 13.3908 19.6299 13.0347 18.7375 12.4279C17.369 13.3745 16.4655 15.0015 16.4655 16.8498V19.3858C15.0908 17.0218 14.6328 15.3035 14.6328 13.9589C14.6328 11.271 16.4655 10.0834 16.4655 8.23869C16.4655 5.39351 18.9008 3.08647 21.9047 3.08647C22.8054 3.08647 23.6547 3.29563 24.403 3.66312C25.6889 2.41702 27.4821 1.47679 29.5525 1.0127C26.2987 1.85551 22.9538 7.42188 24.3335 12.8484Z" fill="#542F4D"/>
<path d="M13.6756 4.00008C13.6756 4.00008 15.4906 -0.76299 18.7174 1.14222C21.9442 3.04752 19.3225 8.97495 13.6755 11.939C8.02856 8.97495 5.40644 3.04761 8.63369 1.14222C11.8605 -0.76299 13.6756 4.00008 13.6756 4.00008ZM5.77941 13.8687C5.77941 13.8687 6.94633 10.8062 9.02108 12.0311C11.0959 13.2563 9.41028 17.0671 5.77941 18.9727C2.14863 17.0671 0.463 13.2563 2.53783 12.0311C4.61249 10.8062 5.77941 13.8687 5.77941 13.8687ZM8.93785 23.5271C8.93785 23.5271 9.68855 21.5562 11.0237 22.3443C12.3589 23.1327 11.2739 25.5852 8.93785 26.8115C6.60134 25.5852 5.51635 23.1327 6.85154 22.3443C8.18673 21.5562 8.93785 23.5271 8.93785 23.5271ZM40.3686 32.7502C40.3686 32.7502 41.5355 29.6878 43.6102 30.9126C45.685 32.1378 43.9994 35.9486 40.3686 37.8543C36.7378 35.9487 35.0522 32.1378 37.1269 30.9126C39.2017 29.6878 40.3686 32.7502 40.3686 32.7502Z" fill="#FFDEE9"/>
<path d="M32.7231 22.9888H31.5535C31.0044 22.9888 30.5593 23.456 30.5593 24.0324C30.5593 24.6088 31.0045 25.076 31.5535 25.076H32.7231C33.2722 25.076 33.7173 24.6087 33.7173 24.0324C33.7173 23.4564 33.2721 22.9888 32.7231 22.9888ZM20.4998 22.9888H19.3302C18.7811 22.9888 18.3359 23.456 18.3359 24.0324C18.3359 24.6088 18.7812 25.076 19.3302 25.076H20.4998C21.0489 25.076 21.494 24.6087 21.494 24.0324C21.494 23.4564 21.0488 22.9888 20.4998 22.9888Z" fill="#FF7266"/>
<path d="M26.7876 31.041H25.267C25.0925 31.0409 24.9252 30.9681 24.8019 30.8386C24.6786 30.709 24.6093 30.5334 24.6094 30.3502C24.6094 29.9687 24.9038 29.6597 25.267 29.6597H26.7876C26.9621 29.6597 27.1295 29.7324 27.2529 29.862C27.3763 29.9915 27.4456 30.1671 27.4456 30.3503C27.4456 30.5335 27.3763 30.7092 27.2529 30.8387C27.1295 30.9682 26.9621 31.041 26.7876 31.041Z" fill="#E8B182"/>
<path d="M35.9758 38.2487C35.9113 38.1871 35.8357 38.1396 35.7536 38.109C35.6714 38.0783 35.5843 38.0651 35.4972 38.0701C35.4101 38.0751 35.3249 38.0982 35.2464 38.1381C35.1679 38.178 35.0977 38.2338 35.04 38.3024C34.9823 38.371 34.9381 38.451 34.9101 38.5377C34.882 38.6244 34.8707 38.716 34.8767 38.8073C34.8827 38.8987 34.906 38.9878 34.9451 39.0696C34.9842 39.1514 35.0385 39.2242 35.1047 39.2838C36.797 40.8531 38.0884 42.8214 38.8738 45.0186H13.1823C14.6568 40.9066 17.8981 37.6759 21.8919 36.3488C22.4527 38.1853 24.0944 39.5185 26.0279 39.5185C27.961 39.5185 29.6025 38.1854 30.1636 36.3491C31.254 36.7099 32.2967 37.2133 33.2673 37.8473C33.3715 37.9154 33.4917 37.9516 33.6144 37.9517C33.7263 37.9517 33.8363 37.9218 33.9341 37.8649C34.032 37.8079 34.1144 37.7257 34.1735 37.626C34.2657 37.4705 34.2953 37.2829 34.2558 37.1045C34.2163 36.926 34.1109 36.7714 33.9628 36.6745C32.8423 35.9418 31.6343 35.3682 30.3703 34.9685V33.2512C31.4286 32.7294 32.4036 32.0133 33.2552 31.1202C34.5334 29.7777 35.4312 28.1422 35.8915 26.3584C37.8924 25.5764 39.231 23.5618 39.231 21.3145V20.9513C39.231 19.707 38.2667 18.6949 37.0817 18.6949C36.7862 18.6949 36.5046 18.7579 36.2479 18.8716V17.8325C36.2479 17.6494 36.1786 17.4737 36.0552 17.3442C35.9318 17.2146 35.7645 17.1419 35.59 17.1419C35.4155 17.1419 35.2481 17.2146 35.1247 17.3442C35.0013 17.4737 34.932 17.6494 34.932 17.8325V23.5338C34.932 26.0302 34.0059 28.3777 32.3247 30.1434C30.6422 31.9085 28.4059 32.8806 26.0279 32.8806C21.1179 32.8806 17.1235 28.6878 17.1235 23.5338V16.8499C17.1235 15.4399 17.7332 14.1243 18.773 13.2535C19.7166 13.7965 20.7898 14.0816 21.9047 14.0816C22.7016 14.0816 23.4719 13.9375 24.201 13.6522C26.2656 15.516 29.2601 16.5773 32.4944 16.5773C33.5982 16.5773 34.6885 16.4516 35.735 16.2038C39.7433 15.2543 41.9505 12.4439 41.9505 8.28936C41.9505 5.97878 41.0588 3.88661 39.44 2.398C37.7349 0.830459 35.333 0.00178389 32.494 0.00178389C29.308 0.00178389 26.3422 1.03763 24.2796 2.85711C23.5282 2.55089 22.7313 2.39619 21.9047 2.39619C21.4656 2.39619 21.0322 2.44087 20.6097 2.52859C20.356 1.68641 19.8225 1.00111 19.0424 0.540187C18.0685 -0.034738 17.1023 -0.151554 16.1697 0.193637C15.0231 0.617762 14.1904 1.67264 13.6781 2.52361C13.1655 1.67264 12.3328 0.617762 11.1862 0.193637C10.254 -0.151554 9.28745 -0.034738 8.31349 0.540187C6.47746 1.62452 6.06469 3.88625 7.23627 6.44323C7.31283 6.60679 7.44785 6.73197 7.61194 6.79151C7.77602 6.85105 7.95587 6.84012 8.11231 6.76111C8.26876 6.6821 8.38912 6.5414 8.44719 6.36967C8.50527 6.19793 8.49634 6.00906 8.42236 5.8442C8.012 4.94892 7.243 2.75733 8.95859 1.74414C9.59532 1.36823 10.1798 1.28676 10.7458 1.49492C12.1956 2.0287 13.059 4.23561 13.067 4.2569C13.1159 4.385 13.2002 4.49478 13.3091 4.57211C13.418 4.64944 13.5464 4.69076 13.6779 4.69076C13.8094 4.69076 13.9378 4.64944 14.0467 4.57211C14.1556 4.49478 14.2399 4.385 14.2888 4.2569C14.5237 3.64056 15.3977 1.94379 16.6071 1.49637C17.1741 1.28639 17.7595 1.3675 18.3973 1.74414C19.1257 2.17425 19.4843 2.86671 19.4623 3.80196C19.3985 6.55262 16.4877 9.58819 13.6775 11.1617C12.0104 10.2356 10.5245 8.96977 9.46858 7.5707C9.41496 7.4996 9.34852 7.44029 9.27305 7.39615C9.19759 7.35201 9.11458 7.32391 9.02877 7.31346C8.94295 7.30301 8.85602 7.31041 8.77293 7.33523C8.68984 7.36006 8.61223 7.40182 8.54452 7.45814C8.47677 7.51445 8.42025 7.58422 8.37819 7.66346C8.33613 7.7427 8.30935 7.82986 8.29938 7.91997C8.28942 8.01008 8.29646 8.10136 8.32011 8.18861C8.34376 8.27586 8.38355 8.35736 8.43721 8.42846C9.69012 10.088 11.4003 11.5157 13.3837 12.5564C13.4751 12.6043 13.5759 12.6293 13.6781 12.6294C13.7787 12.6294 13.8795 12.6049 13.9722 12.5565C14.0342 12.5239 14.0957 12.4896 14.157 12.4563C14.0355 12.947 13.9743 13.452 13.9749 13.959C13.9749 15.3627 14.4268 16.932 15.3489 18.7304C15.2251 18.7071 15.0996 18.6953 14.9738 18.695C13.7888 18.695 12.8246 19.707 12.8246 20.9513V21.3145C12.8246 23.5632 14.1648 25.5793 16.168 26.3602C16.962 29.4082 19.0067 31.9188 21.6852 33.2438V34.9604C21.6852 34.9631 21.6855 34.9664 21.6855 34.9692C16.908 36.4826 13.0843 40.4743 11.6354 45.5097C11.6056 45.6128 11.5993 45.7219 11.6169 45.828C11.6346 45.9342 11.6757 46.0346 11.7369 46.1211C11.7981 46.2076 11.8777 46.2779 11.9694 46.3263C12.0611 46.3748 12.1623 46.4 12.265 46.4H39.7905C39.9985 46.4 40.1945 46.2967 40.3186 46.1211C40.4427 45.9454 40.4805 45.7189 40.4201 45.5097C39.6141 42.7081 38.0772 40.1972 35.9758 38.2487ZM37.0813 20.0766C37.541 20.0766 37.9146 20.4688 37.9146 20.9514V21.3145C37.9146 22.6813 37.249 23.9324 36.192 24.661C36.2288 24.2889 36.2479 23.9129 36.2479 23.5341V20.9513C36.2479 20.4688 36.6217 20.0766 37.0813 20.0766ZM16.0567 11.2464C17.1329 10.4452 18.0819 9.51986 18.8593 8.50704C20.0444 6.96215 20.7216 5.3309 20.7746 3.90392C21.1459 3.81965 21.5248 3.7773 21.9047 3.77759C22.6864 3.77759 23.4331 3.94959 24.1242 4.28871C24.2425 4.34684 24.3747 4.36668 24.5038 4.3457C24.6329 4.32471 24.7531 4.26386 24.8492 4.1709C26.6782 2.399 29.4645 1.383 32.494 1.383C35.0093 1.383 37.1113 2.0935 38.5726 3.43729C39.9021 4.65964 40.6343 6.38297 40.6343 8.28963C40.6343 9.9361 40.24 11.3188 39.462 12.3992C38.5943 13.6039 37.2429 14.4308 35.4453 14.8564C34.4936 15.0815 33.5007 15.1959 32.494 15.1959C29.4672 15.1959 26.5853 14.1307 24.7855 12.3465C24.6907 12.2525 24.5714 12.1902 24.4428 12.1675C24.3141 12.1448 24.182 12.1628 24.0631 12.219C23.3882 12.5383 22.6621 12.7005 21.9047 12.7005C20.8865 12.7005 19.9149 12.4056 19.0953 11.848C18.988 11.775 18.8627 11.7365 18.7349 11.737C18.607 11.7376 18.482 11.7773 18.3753 11.8512C16.853 12.9041 15.9121 14.6355 15.8159 16.5291C15.4645 15.5835 15.2905 14.7322 15.2905 13.9589C15.2908 12.8492 15.645 12.0347 16.0567 11.2464ZM14.1405 21.3145V20.9514C14.1405 20.4688 14.5145 20.0766 14.9742 20.0766C15.4335 20.0766 15.8076 20.4688 15.8076 20.9514V23.5342C15.8076 23.9147 15.8267 24.2907 15.8639 24.6613C14.8069 23.9327 14.1405 22.6817 14.1405 21.3145ZM26.0276 34.262C27.069 34.262 28.0868 34.0991 29.0544 33.7858V34.9603C29.0544 36.712 27.6967 38.1372 26.0279 38.1372C24.3588 38.1372 23.0011 36.712 23.0011 34.9604V33.7819C23.9812 34.1009 25.0015 34.2628 26.0276 34.262Z" fill="black"/>
<path d="M26.8603 24.6807C27.0349 24.6807 27.2022 24.6079 27.3256 24.4784C27.449 24.3488 27.5183 24.1732 27.5183 23.99C27.5183 23.8068 27.449 23.6312 27.3256 23.5016C27.2022 23.3721 27.0349 23.2993 26.8603 23.2993H25.1933C25.0188 23.2993 24.8514 23.3721 24.728 23.5016C24.6046 23.6312 24.5353 23.8068 24.5353 23.99C24.5353 24.1732 24.6046 24.3488 24.728 24.4784C24.8514 24.6079 25.0188 24.6807 25.1933 24.6807H26.8603ZM22.1513 27.4975C23.3101 28.3814 24.6685 28.8232 26.0267 28.8232C27.3848 28.8232 28.7432 28.3814 29.9023 27.4974C30.0434 27.3896 30.1379 27.2275 30.1652 27.0466C30.1925 26.8658 30.1502 26.6809 30.0477 26.5328C29.9969 26.4594 29.9329 26.3972 29.8592 26.3498C29.7855 26.3024 29.7037 26.2707 29.6184 26.2565C29.533 26.2423 29.4458 26.2459 29.3618 26.267C29.2778 26.2882 29.1986 26.3266 29.1287 26.3799C27.2731 27.7948 24.7802 27.7948 22.9245 26.3799C22.8546 26.3266 22.7754 26.2883 22.6914 26.2671C22.6074 26.246 22.5202 26.2424 22.4349 26.2566C22.3495 26.2708 22.2677 26.3025 22.194 26.3499C22.1204 26.3973 22.0563 26.4595 22.0056 26.5329C21.9548 26.6062 21.9183 26.6894 21.8981 26.7776C21.878 26.8658 21.8746 26.9573 21.8881 27.0468C21.9016 27.1364 21.9319 27.2223 21.977 27.2996C22.0222 27.3769 22.0814 27.4442 22.1513 27.4975ZM23.4235 21.6876C23.5356 21.7735 23.6708 21.8197 23.8096 21.8196C24.0133 21.8196 24.2136 21.7208 24.3424 21.5346C24.5562 21.2263 24.4909 20.7944 24.197 20.5699C23.6363 20.1408 22.9603 19.9096 22.2664 19.9096C21.5725 19.9096 20.8965 20.1408 20.3358 20.5699C20.1969 20.6784 20.1043 20.8401 20.0781 21.0198C20.052 21.1996 20.0944 21.3829 20.1962 21.53C20.298 21.6771 20.451 21.7762 20.6219 21.8057C20.7928 21.8352 20.9679 21.7927 21.1092 21.6876C21.4453 21.4303 21.8504 21.2917 22.2663 21.2917C22.6822 21.2917 23.0874 21.4303 23.4234 21.6876H23.4235ZM31.3302 21.8196C31.534 21.8196 31.7343 21.7208 31.8631 21.5346C32.077 21.2263 32.0115 20.7944 31.7178 20.5699C31.1571 20.1408 30.4811 19.9096 29.7872 19.9096C29.0933 19.9096 28.4173 20.1408 27.8566 20.5699C27.7182 20.6787 27.6261 20.8402 27.6003 21.0196C27.5745 21.199 27.6169 21.3819 27.7185 21.5288C27.8201 21.6756 27.9726 21.7746 28.1432 21.8043C28.3137 21.834 28.4886 21.7921 28.6299 21.6876C28.9659 21.4303 29.3711 21.2917 29.787 21.2917C30.2029 21.2917 30.6081 21.4303 30.9441 21.6876C31.0563 21.7734 31.1915 21.8197 31.3302 21.8196ZM6.07524 19.5904C8.68018 18.2233 10.533 15.8291 10.5809 13.7689C10.6045 12.7447 10.1661 11.9135 9.34557 11.4292C8.66732 11.0284 7.96178 10.9456 7.30519 11.1885C6.63876 11.4353 6.13326 11.9688 5.78109 12.4745C5.42902 11.9687 4.92352 11.4353 4.25709 11.1885C3.6005 10.9456 2.89496 11.0288 2.2167 11.4292C1.39616 11.9135 0.957402 12.7444 0.981404 13.7689C1.02923 15.8291 2.88175 18.2233 5.48669 19.5904C5.57804 19.6384 5.67878 19.6633 5.78092 19.6633C5.88306 19.6633 5.98389 19.6384 6.07524 19.5904ZM2.297 13.7351C2.28517 13.2251 2.47001 12.8647 2.86189 12.6331C3.08784 12.4997 3.29927 12.4335 3.50095 12.4335C3.60887 12.4335 3.71377 12.4523 3.81694 12.4901C4.50591 12.7432 5.02807 13.7575 5.17104 14.1267C5.22006 14.2541 5.30416 14.3632 5.4126 14.4401C5.52103 14.5169 5.64886 14.5581 5.77971 14.5583H5.78144C5.91249 14.5582 6.04053 14.517 6.1492 14.4402C6.25788 14.3633 6.34227 14.2542 6.39158 14.1267C6.53455 13.7572 7.05628 12.7432 7.74533 12.4901C8.04146 12.3815 8.35366 12.4282 8.70038 12.6331C9.09261 12.8647 9.27745 13.2251 9.26562 13.7351C9.23662 14.9756 8.00943 16.9188 5.78144 18.1939C3.55327 16.9188 2.32566 14.9756 2.297 13.7351ZM43.9346 30.3107C43.2565 29.9104 42.5509 29.8272 41.8943 30.07C41.2278 30.3167 40.7223 30.8502 40.3702 31.3561C40.0182 30.8502 39.5127 30.3167 38.8462 30.07C38.1896 29.8272 37.4841 29.9104 36.8059 30.3107C35.9853 30.795 35.5466 31.6262 35.5705 32.6503C35.6184 34.711 37.4709 37.1048 40.0758 38.472C40.1672 38.5199 40.2679 38.5448 40.3701 38.5448C40.4722 38.5448 40.5729 38.5199 40.6643 38.472C43.2692 37.1048 45.1221 34.7107 45.17 32.6503C45.1939 31.6262 44.7552 30.795 43.9346 30.3107ZM40.3702 37.075C38.1424 35.8003 36.9148 33.8572 36.8861 32.6167C36.8741 32.1066 37.0592 31.7462 37.451 31.5147C37.677 31.3812 37.8881 31.315 38.0898 31.315C38.1977 31.315 38.3029 31.3338 38.4061 31.3717C39.0951 31.6248 39.6172 32.6386 39.7598 33.0082C39.8089 33.1359 39.8933 33.2454 40.002 33.3225C40.1108 33.3996 40.239 33.4408 40.3702 33.4408C40.5018 33.4408 40.6303 33.3995 40.7392 33.322C40.848 33.2446 40.9323 33.1347 40.9811 33.0065C41.1115 32.6642 41.64 31.6287 42.3317 31.3728C42.6325 31.2613 42.9368 31.3062 43.2895 31.5147C43.6814 31.7462 43.8665 32.1066 43.8544 32.6167C43.8258 33.8572 42.5985 35.8004 40.3702 37.075ZM11.3478 21.7424C10.851 21.449 10.33 21.3894 9.84201 21.57C9.47102 21.7073 9.17117 21.9651 8.93919 22.2398C8.70712 21.9651 8.40762 21.7073 8.03663 21.57C7.54831 21.3894 7.02762 21.449 6.53049 21.7424C5.93218 22.0957 5.59867 22.7251 5.61585 23.4685C5.64891 24.8818 6.8944 26.5105 8.64504 27.4291C8.7364 27.4771 8.83716 27.5021 8.93932 27.5021C9.04148 27.5021 9.14223 27.4771 9.23359 27.4291C10.9842 26.5105 12.2297 24.8817 12.2624 23.4685C12.2796 22.7251 11.9465 22.0957 11.3478 21.7424ZM8.93919 26.0276C7.69638 25.275 6.94836 24.1517 6.93153 23.4348C6.92479 23.1354 7.05119 23.02 7.17568 22.9464C7.30173 22.8721 7.39688 22.8487 7.47147 22.8487C7.52206 22.8487 7.56282 22.8593 7.59726 22.872C7.92776 22.9928 8.23296 23.5393 8.3294 23.7854C8.37842 23.9131 8.46272 24.0224 8.57146 24.0994C8.68019 24.1764 8.80838 24.2174 8.93953 24.2173C9.07101 24.2173 9.19947 24.176 9.30834 24.0986C9.41721 24.0212 9.50148 23.9113 9.55028 23.7832C9.63929 23.5496 9.94656 22.9959 10.2794 22.8728C10.365 22.8409 10.4905 22.8207 10.703 22.9464C10.8274 23.02 10.9539 23.1354 10.9469 23.4348C10.9303 24.1517 10.1819 25.275 8.93919 26.0276Z" fill="black"/>
</svg>
