<svg width="50" height="49" viewBox="0 0 50 49" fill="none" xmlns="http://www.w3.org/2000/svg">
<g clip-path="url(#clip0_424_1307)">
<path d="M18.9616 2.69988C15.3618 6.29966 15.3618 12.1361 18.9616 15.7359C20.2623 17.0367 21.8552 17.8671 23.5291 18.2278L25.4795 20.6367L27.3936 8.83656L25.4795 0C23.1204 0 20.7614 0.899992 18.9616 2.69988Z" fill="#FFDD00"/>
<path d="M31.9984 2.69988C30.1985 0.899992 27.8396 0 25.4805 0V20.6367L27.431 18.2277C29.1048 17.867 30.6977 17.0366 31.9985 15.7358C35.5982 12.136 35.5982 6.29966 31.9984 2.69988Z" fill="#FFBB17"/>
<path d="M9.86114 39.3062C4.95645 39.3062 0.980469 43.2822 0.980469 48.1869V49.0001H13.2305L15.1445 44.6935L13.2305 39.3062H9.86114V39.3062Z" fill="#FF4C4C"/>
<path d="M26.4375 48.5993L25.4805 48.1868C25.4805 43.2821 21.5045 39.3062 16.5998 39.3062H13.2305V49.0001H25.4805L26.4375 48.5993Z" fill="#EC2424"/>
<path d="M13.1554 20.6373C10.0035 20.6782 7.49609 23.3056 7.49609 26.4577V27.5975L13.2316 28.5546L14.1886 24.99L13.2316 20.6382C13.2061 20.6382 13.181 20.637 13.1554 20.6373Z" fill="#B6766B"/>
<path d="M18.966 26.3722C18.966 23.2047 16.398 20.6384 13.2305 20.6382V28.5546L18.966 27.5975V26.3722Z" fill="#9E4C63"/>
<path d="M7.49609 27.5977V32.6759C7.49609 34.7603 8.60826 36.5848 10.2713 37.5889V39.3683C10.2713 41.0032 11.5966 42.3285 13.2315 42.3285L14.1886 31.1036L13.2316 27.5977H7.49609Z" fill="#FDD1A3"/>
<path d="M13.2305 27.5977V42.3287C14.8654 42.3287 16.1907 41.0034 16.1907 39.3685V37.5891C17.8537 36.5848 18.9659 34.7605 18.9659 32.676V27.5978H13.2305V27.5977Z" fill="#FFBB85"/>
<path d="M23.241 4.94922L21.2109 6.97937L23.4496 9.21806L21.2109 11.4567L23.241 13.4869L25.4798 11.2482L26.4368 9.21806L25.4798 7.18791L23.241 4.94922Z" fill="#00719B"/>
<path d="M29.7493 6.97937L27.7193 4.94922L25.4805 7.18791V11.2482L27.7193 13.4869L29.7493 11.4567L27.5106 9.21806L29.7493 6.97937Z" fill="#004C82"/>
<path d="M34.3611 39.3062C29.4565 39.3062 25.4805 43.2821 25.4805 48.1868V49.0001H37.7305L38.6875 45.0763L37.7305 39.3062H34.3611Z" fill="#B9E600"/>
<path d="M49.9805 48.1868C49.9805 43.2821 46.0045 39.3062 41.0998 39.3062H37.7305V49H49.9805V48.1868Z" fill="#77CC00"/>
<path d="M37.6554 20.6373C34.5035 20.6782 31.9961 23.3056 31.9961 26.4577V27.5975L37.7316 28.5546L38.6886 25.1699L37.7316 20.6382C37.7061 20.6382 37.681 20.637 37.6554 20.6373Z" fill="#9E4C63"/>
<path d="M43.466 26.3722C43.466 23.2047 40.898 20.6384 37.7305 20.6382V28.5546L43.466 27.5975V26.3722Z" fill="#833048"/>
<path d="M31.9961 27.5977V32.6759C31.9961 34.7603 33.1083 36.5848 34.7713 37.5889V39.3683C34.7713 41.0032 36.0967 42.3285 37.7315 42.3285L38.6886 32.6349L37.7316 27.5977H31.9961Z" fill="#FFCDBE"/>
<path d="M37.7305 27.5977V42.3287C39.3654 42.3287 40.6908 41.0034 40.6908 39.3685V37.5891C42.3538 36.5848 43.466 34.7605 43.466 32.676V27.5978H37.7305V27.5977Z" fill="#FFBEAA"/>
</g>
<defs>
<clipPath id="clip0_424_1307">
<rect width="49" height="49" fill="white" transform="translate(0.980469)"/>
</clipPath>
</defs>
</svg>
