<svg width="58" height="58" viewBox="0 0 58 58" fill="none" xmlns="http://www.w3.org/2000/svg">
<g clip-path="url(#clip0_424_1191)">
<path d="M8.85977 29.1167C8.72195 29.1393 8.58167 29.1543 8.43761 29.1543C7.84735 29.1543 7.30407 28.9549 6.8641 28.6221C6.66816 29.5961 6.64902 31.0572 7.39625 32.958C8.24435 35.1158 5.0479 36.9093 5.33022 39.918L8.52111 39.0983C8.89926 39.0013 9.2663 38.864 9.61613 38.6887L11.181 37.9037C11.4755 37.7559 11.7236 37.5271 11.897 37.2433C12.0705 36.9595 12.1624 36.632 12.1624 36.2978V34.3448C10.3077 33.316 9.00851 31.37 8.85977 29.1167Z" fill="#FCDD86"/>
<path d="M23.9457 42.4507C22.6797 42.6581 21.5638 41.7887 21.3404 40.5981C19.0157 44.7492 16.6562 42.8087 15.6509 41.6265C15.5741 41.5362 15.5312 41.4211 15.5298 41.3016H14.8124C14.811 41.4211 14.7681 41.5362 14.6912 41.6265C13.5846 42.9279 10.8377 45.1493 8.3019 39.1538L3.99417 40.2603C3.45757 40.3978 2.9782 40.7062 2.62602 41.1404C2.27385 41.5747 2.06732 42.1122 2.03658 42.6744L1.53627 56.6587C1.53082 56.7584 1.54541 56.8581 1.57914 56.9519C1.61288 57.0456 1.66505 57.1314 1.73247 57.2039C1.79989 57.2765 1.88115 57.3342 1.97126 57.3737C2.06137 57.4132 2.15845 57.4335 2.25656 57.4335H6.26371C6.53312 57.4335 6.75155 57.2113 6.75155 56.9372V48.1957L7.45915 50.5021C7.92183 52.0101 8.15718 53.5808 8.15718 55.1607V56.9369C8.15718 57.2111 8.3756 57.4333 8.64502 57.4333H18.3201L18.5327 53.4852C18.5583 53.0179 18.73 52.5711 19.0228 52.2101C19.3155 51.849 19.714 51.5926 20.1601 51.4784L22.7966 50.8032C22.9438 50.2871 23.0629 49.9241 23.5904 48.1955V50.5997L24.4057 50.3909L25.6706 49.7563C25.7241 49.7103 26.9598 49.3031 26.9598 47.9143V47.0504C25.2725 46.1877 24.0784 44.4615 23.9457 42.4507Z" fill="#FC657E"/>
<path d="M21.5904 39.0311C20.8861 38.8165 20.5481 38.5793 19.5346 38.0884C18.7161 39.0637 17.4392 40.2946 15.9062 40.7786C15.5455 40.8925 15.4065 41.3359 15.6537 41.6266C16.659 42.809 19.0185 44.7493 21.3432 40.5982C21.2408 40.0626 21.3283 39.5073 21.5904 39.0311ZM14.4415 40.7786C12.9086 40.2949 11.6316 39.0637 10.8131 38.0884L9.61725 38.6883C9.26743 38.8637 8.90038 39.001 8.52222 39.0979L8.30469 39.1539C10.8405 45.1494 13.5874 42.928 14.694 41.6266C14.941 41.3359 14.8022 40.8923 14.4415 40.7786Z" fill="#EDF4FC"/>
<path d="M19.1652 37.9031C18.8706 37.7553 18.6226 37.5265 18.4491 37.2427C18.2757 36.9589 18.1838 36.6314 18.1838 36.2972V34.3442C17.2871 34.8415 16.2611 35.1245 15.1732 35.1245C14.0853 35.1245 13.0593 34.8415 12.1629 34.3442V36.2972C12.1629 36.6314 12.071 36.9589 11.8975 37.2427C11.7241 37.5265 11.476 37.7553 11.1814 37.9031L10.8125 38.0882C11.631 39.0635 12.9079 40.2944 14.4409 40.7784C14.5507 40.8122 14.6467 40.8816 14.7141 40.9761C14.7816 41.0705 14.8168 41.1848 14.8145 41.3015H15.5319C15.5296 41.1848 15.5648 41.0705 15.6323 40.976C15.6997 40.8816 15.7957 40.8122 15.9055 40.7784C17.4385 40.2947 18.7155 39.0635 19.5339 38.0882L19.1652 37.9031Z" fill="#F9D0B4"/>
<path d="M23.6757 47.6359C23.544 47.6152 23.4094 47.6435 23.2964 47.7154C23.1835 47.7874 23.0997 47.8983 23.0605 48.0278C22.8574 48.6935 22.7149 49.1563 22.608 49.5037C22.4591 49.9876 22.3787 50.2484 22.3008 50.5175C22.2623 50.6496 22.2726 50.7915 22.3295 50.9165C22.3865 51.0415 22.4862 51.1411 22.6102 51.1966C22.7341 51.2522 22.8737 51.2598 23.0027 51.2182C23.1318 51.1766 23.2416 51.0885 23.3114 50.9704C23.396 51.0207 23.4921 51.0474 23.5901 51.0477C23.688 51.0481 23.7843 51.0222 23.8693 50.9726C23.9543 50.9229 24.0248 50.8514 24.0739 50.7651C24.123 50.6789 24.1488 50.5809 24.1488 50.4813V48.1959C24.1488 48.0604 24.1011 47.9294 24.0143 47.8266C23.9275 47.7239 23.8073 47.6562 23.6757 47.6359ZM18.3217 56.8672H8.71562V55.1609C8.71587 53.5237 8.47196 51.896 7.99221 50.3333L7.28461 48.0269C7.24526 47.8974 7.16146 47.7867 7.04853 47.7149C6.93559 47.643 6.80103 47.6149 6.66941 47.6356C6.53783 47.6561 6.41779 47.7238 6.33107 47.8265C6.24435 47.9293 6.19668 48.0603 6.19671 48.1957V56.8672H2.25859C2.23617 56.8672 2.21398 56.8626 2.19338 56.8536C2.17278 56.8446 2.15421 56.8314 2.1388 56.8148C2.12055 56.7951 2.09049 56.7532 2.0945 56.6793L2.59414 42.7056C2.61694 42.2636 2.77874 41.8407 3.05567 41.4993C3.3326 41.1579 3.71001 40.9161 4.13225 40.8095L8.43997 39.703C8.51085 39.6848 8.57751 39.6526 8.63614 39.6081C8.69478 39.5637 8.74424 39.508 8.7817 39.4441C8.81917 39.3802 8.8439 39.3095 8.85449 39.2359C8.86508 39.1623 8.86132 39.0873 8.84343 39.0152C8.82553 38.943 8.79385 38.8752 8.7502 38.8156C8.70654 38.7559 8.65177 38.7056 8.58899 38.6674C8.52622 38.6293 8.45669 38.6042 8.38436 38.5934C8.31203 38.5826 8.23832 38.5864 8.16744 38.6046L3.86016 39.7109C2.51509 40.0553 1.55968 41.2334 1.48197 42.6535L0.982328 56.6272C0.972978 56.8038 0.998964 56.9804 1.05871 57.1464C1.11845 57.3125 1.21071 57.4644 1.32989 57.5931C1.44954 57.7214 1.59355 57.8236 1.75319 57.8935C1.91284 57.9635 2.08478 57.9997 2.25859 58H6.26574C6.54262 57.9997 6.80808 57.8876 7.00389 57.6884C7.1997 57.4892 7.30986 57.2191 7.31022 56.9374V52.1816C7.5048 53.1624 7.60273 54.1604 7.60257 55.1609V56.9374C7.60286 57.2191 7.71297 57.4892 7.90875 57.6884C8.10452 57.8876 8.36996 57.9997 8.64682 58H18.3219C18.395 58 18.4674 57.9853 18.5349 57.9568C18.6024 57.9283 18.6638 57.8866 18.7155 57.834C18.7672 57.7814 18.8081 57.7189 18.8361 57.6502C18.8641 57.5815 18.8784 57.5078 18.8784 57.4335C18.8784 57.3591 18.864 57.2854 18.836 57.2167C18.808 57.148 18.767 57.0856 18.7153 57.033C18.6636 56.9804 18.6022 56.9387 18.5347 56.9102C18.4672 56.8818 18.3948 56.8671 18.3217 56.8672Z" fill="black"/>
<path d="M23.4819 28.6216C23.0276 28.9672 22.4756 29.1539 21.9084 29.1538C21.7669 29.1528 21.6258 29.1402 21.4863 29.1162C21.3377 31.3696 20.0383 33.3155 18.1836 34.3441V36.2971C18.1836 36.6313 18.2755 36.9588 18.449 37.2426C18.6224 37.5264 18.8705 37.7551 19.1651 37.9029L20.7299 38.688C21.0066 38.8264 21.2943 38.941 21.5898 39.0305C21.7345 38.7673 21.9279 38.5352 22.1593 38.3468V36.3243C22.1583 35.1554 22.4287 34.0028 22.9487 32.9605L22.9498 32.9573C23.697 31.0567 23.6779 29.5956 23.4819 28.6216Z" fill="#FCDD86"/>
<path d="M21.9065 23.7764C21.7683 23.7764 21.6329 23.7881 21.5004 23.8092V28.6846C21.5004 28.8298 21.4939 28.9735 21.4844 29.1164C21.6222 29.1391 21.7625 29.1541 21.9065 29.1541C23.3658 29.1541 24.549 27.9503 24.549 26.4652C24.549 24.9803 23.3658 23.7764 21.9065 23.7764Z" fill="#F9D0B4"/>
<path d="M21.1126 22.9911C20.4722 22.84 19.6945 22.4625 18.8032 21.6385C18.7618 21.5996 18.7131 21.5695 18.6601 21.5501C18.607 21.5307 18.5507 21.5224 18.4944 21.5256C18.4381 21.5288 18.3831 21.5435 18.3325 21.5688C18.2819 21.5941 18.2368 21.6295 18.2 21.673C17.2361 22.8178 13.8181 26.291 8.84375 24.8494V28.6846C8.84375 32.2267 11.6917 35.1246 15.1728 35.1246C18.6538 35.1246 21.5018 32.2267 21.5018 28.6846V23.4816C21.502 23.2451 21.3392 23.0446 21.1126 22.9911Z" fill="#F9D0B4"/>
<path d="M8.84549 28.6847V24.8494C8.38859 24.7162 7.94131 24.551 7.50688 24.3549C7.36232 24.2902 7.20228 24.2703 7.04666 24.2975C6.89104 24.3247 6.74671 24.3978 6.63161 24.5078C6.36789 24.7583 6.15768 25.0614 6.01407 25.3982C5.87046 25.7349 5.79653 26.0982 5.79688 26.4653C5.79688 27.9502 6.97985 29.1541 8.43936 29.1541C8.58342 29.1541 8.72369 29.1392 8.86152 29.1165C8.85146 28.9728 8.84612 28.8288 8.84549 28.6847Z" fill="#F9D0B4"/>
<path d="M15.1727 14.2349C10.4393 14.2349 6.56641 18.1757 6.56641 22.9922V24.5747C6.588 24.5527 6.6076 24.5292 6.62986 24.5079C6.74493 24.3978 6.88926 24.3247 7.04489 24.2975C7.20052 24.2703 7.36058 24.2903 7.50512 24.355C7.93956 24.5511 8.38684 24.7164 8.84373 24.8495C13.8181 26.2914 17.2361 22.818 18.2 21.6731C18.2368 21.6297 18.2819 21.5943 18.3324 21.5689C18.383 21.5436 18.4381 21.5289 18.4944 21.5257C18.5507 21.5224 18.607 21.5308 18.6601 21.5502C18.7131 21.5696 18.7618 21.5997 18.8031 21.6387C19.6944 22.4627 20.4722 22.8402 21.1125 22.9913C21.339 23.0447 21.5017 23.2453 21.5017 23.4818V23.8094C21.9132 23.7435 22.3341 23.7778 22.73 23.9095C23.1258 24.0412 23.4854 24.2665 23.7791 24.567V22.992C23.7791 18.1757 19.9062 14.2349 15.1727 14.2349Z" fill="#FCDD86"/>
<path d="M21.9083 23.21C21.8094 23.21 21.7119 23.2149 21.6155 23.2242C21.5427 23.2311 21.4719 23.2525 21.4073 23.2872C21.3426 23.3219 21.2853 23.3693 21.2386 23.4265C21.1919 23.4838 21.1568 23.5498 21.1352 23.6209C21.1136 23.6919 21.106 23.7666 21.1127 23.8407C21.1412 24.152 21.412 24.3772 21.7186 24.3523C21.7811 24.3464 21.8442 24.343 21.9083 24.343C23.0585 24.343 23.9941 25.295 23.9941 26.4654C23.9941 27.6356 23.0585 28.5876 21.9083 28.5876C21.8419 28.5876 21.7765 28.5833 21.7121 28.5763C21.6394 28.5683 21.5659 28.5749 21.4958 28.5958C21.4256 28.6167 21.3602 28.6515 21.3032 28.6981C21.2463 28.7447 21.1989 28.8023 21.1638 28.8675C21.1287 28.9328 21.1066 29.0044 21.0987 29.0784C21.0908 29.1523 21.0973 29.2271 21.1179 29.2985C21.1384 29.3699 21.1725 29.4365 21.2184 29.4945C21.3109 29.6115 21.4453 29.6864 21.5921 29.7026C21.6999 29.7146 21.8063 29.7205 21.9083 29.7205C23.6722 29.7205 25.1074 28.2603 25.1074 26.4654C25.1072 24.6704 23.6722 23.21 21.9083 23.21ZM17.4601 30.3793C17.404 30.3315 17.3393 30.2954 17.2696 30.2731C17.1998 30.2508 17.1265 30.2426 17.0537 30.2492C16.9808 30.2557 16.91 30.2767 16.8452 30.3111C16.7803 30.3455 16.7228 30.3925 16.6759 30.4495C16.367 30.8245 15.8398 31.0483 15.2651 31.0483C14.6904 31.0483 14.1632 30.8247 13.8544 30.4495C13.7595 30.3344 13.6236 30.2623 13.4766 30.2492C13.3295 30.236 13.1833 30.2828 13.0702 30.3793C12.957 30.4758 12.8862 30.6141 12.8732 30.7637C12.8603 30.9134 12.9063 31.0621 13.0011 31.1773C13.5188 31.8055 14.3651 32.1809 15.2651 32.1809C16.1651 32.1809 17.0114 31.8057 17.5291 31.1773C17.576 31.1203 17.6115 31.0544 17.6335 30.9834C17.6554 30.9125 17.6634 30.8378 17.657 30.7637C17.6506 30.6896 17.6299 30.6176 17.5961 30.5516C17.5623 30.4856 17.5161 30.4271 17.4601 30.3793Z" fill="black"/>
<path d="M21.2401 22.439C20.5801 22.2833 19.8868 21.873 19.1792 21.2187C19.0816 21.129 18.9675 21.06 18.8434 21.0156C18.7194 20.9712 18.5879 20.9524 18.4567 20.9602C18.3268 20.9681 18.1999 21.0026 18.0835 21.0617C17.9671 21.1208 17.8636 21.2033 17.7793 21.3041C16.899 22.3497 13.664 25.6569 8.99822 24.3043C8.9154 24.2801 8.82818 24.2759 8.74347 24.2919C8.65876 24.3079 8.57886 24.3437 8.51009 24.3966C8.44132 24.4494 8.38556 24.5177 8.3472 24.5963C8.30884 24.6748 8.28894 24.7613 8.28906 24.8489V28.6842C8.28906 32.5478 11.378 35.6909 15.1747 35.6909C18.9714 35.6909 22.0604 32.5478 22.0604 28.6842V23.4814C22.0606 22.9818 21.7235 22.5532 21.2401 22.439ZM20.9473 28.6842C20.9473 31.9231 18.3578 34.558 15.1749 34.558C11.9921 34.558 9.40257 31.9231 9.40257 28.6842V25.5708C14.1708 26.5697 17.4747 23.3677 18.5321 22.1497C19.3353 22.8699 20.1471 23.3346 20.9473 23.5324V28.6842Z" fill="black"/>
<path d="M7.27982 24.8728C7.73789 25.0794 8.2094 25.2535 8.69101 25.3941C8.833 25.4353 8.98523 25.4173 9.11422 25.3442C9.2432 25.2711 9.33838 25.1489 9.3788 25.0044C9.41922 24.86 9.40158 24.7051 9.32976 24.5738C9.25794 24.4426 9.13782 24.3457 8.99583 24.3046C8.56365 24.1784 8.14056 24.022 7.72958 23.8365C7.48521 23.7264 7.21433 23.6922 6.95092 23.7381C6.6875 23.7841 6.44329 23.9081 6.24892 24.0948C5.93067 24.399 5.67686 24.7662 5.50307 25.1739C5.32928 25.5815 5.23918 26.021 5.23828 26.4653C5.23828 28.2604 6.6733 29.7206 8.43741 29.7206C8.52691 29.7206 8.61486 29.7158 8.70214 29.7076C8.84912 29.6937 8.98465 29.621 9.07893 29.5055C9.17321 29.3899 9.21852 29.241 9.2049 29.0914C9.19834 29.0173 9.17744 28.9452 9.14341 28.8793C9.10939 28.8134 9.0629 28.755 9.00662 28.7074C8.95035 28.6599 8.88539 28.6241 8.81549 28.6021C8.74558 28.5802 8.6721 28.5725 8.59928 28.5796C8.54584 28.5846 8.49196 28.5875 8.43718 28.5875C7.28694 28.5875 6.35134 27.6355 6.35134 26.4651C6.35038 26.1753 6.40843 25.8885 6.52182 25.6227C6.63522 25.357 6.8015 25.118 7.01018 24.9208C7.04552 24.8868 7.08994 24.864 7.13789 24.8555C7.18584 24.847 7.2352 24.853 7.27982 24.8728Z" fill="black"/>
<path d="M15.1749 13.6685C10.1224 13.6685 6.01194 17.851 6.01194 22.9922V24.4406C6.01194 24.5908 6.07058 24.7349 6.17497 24.8411C6.27937 24.9473 6.42095 25.007 6.56858 25.007C6.71621 25.007 6.85779 24.9473 6.96218 24.8411C7.06657 24.7349 7.12522 24.5908 7.12522 24.4406V22.9922C7.12522 18.4757 10.7363 14.8013 15.1749 14.8013C19.6136 14.8013 23.2246 18.4759 23.2246 22.9922V24.4028C23.2246 24.553 23.2832 24.6971 23.3876 24.8033C23.492 24.9095 23.6336 24.9692 23.7812 24.9692C23.9289 24.9692 24.0705 24.9095 24.1748 24.8033C24.2792 24.6971 24.3379 24.553 24.3379 24.4028V22.9922C24.3379 17.851 20.2274 13.6685 15.1749 13.6685ZM24.0573 28.6596C24.0446 28.5864 24.0178 28.5164 23.9784 28.4537C23.9391 28.391 23.8879 28.3368 23.8279 28.2942C23.7679 28.2517 23.7003 28.2216 23.6289 28.2057C23.5574 28.1898 23.4836 28.1884 23.4116 28.2015C23.2663 28.2279 23.1372 28.3119 23.0528 28.435C22.9683 28.5582 22.9354 28.7105 22.9612 28.8583C23.1631 30.0122 22.981 31.3571 22.4344 32.7475L22.4255 32.7718C22.3757 32.9118 22.3821 33.0661 22.4434 33.2013C22.5046 33.3366 22.6156 33.4418 22.7526 33.4944C22.8895 33.5469 23.0412 33.5425 23.1749 33.482C23.3086 33.4216 23.4136 33.31 23.4671 33.1714L23.4711 33.1605C24.1014 31.5538 24.2987 30.0394 24.0573 28.6596ZM7.9152 32.7473C7.36814 31.356 7.18623 30.0109 7.38862 28.8568C7.41458 28.7089 7.38175 28.5566 7.29736 28.4334C7.21297 28.3102 7.08393 28.2261 6.93863 28.1997C6.79334 28.1733 6.64368 28.2067 6.52259 28.2926C6.40149 28.3785 6.31888 28.5098 6.29293 28.6576C6.05046 30.0399 6.2484 31.5574 6.88163 33.168C7.18912 33.9503 6.78122 34.6944 6.09009 35.8439C5.4239 36.9523 4.66865 38.2084 4.7664 39.8192C4.77748 39.9676 4.84552 40.1056 4.9558 40.2034C5.06608 40.3011 5.20975 40.3508 5.35573 40.3416C5.50172 40.3325 5.63829 40.2652 5.73592 40.1544C5.83355 40.0436 5.88439 39.8981 5.87745 39.7494C5.80131 38.495 6.43098 37.448 7.03972 36.4353C7.73107 35.2855 8.44579 34.0967 7.9152 32.7473ZM22.1071 38.8185C22.0757 38.7399 22.0275 38.6696 21.9659 38.6125C21.9043 38.5555 21.8309 38.5132 21.7511 38.4888C21.4852 38.408 21.2264 38.305 20.9773 38.1807L19.7814 37.5808C19.6705 37.525 19.5444 37.5085 19.4232 37.5339C19.3019 37.5592 19.1925 37.625 19.1121 37.7208C18.3551 38.6227 17.1557 39.7918 15.7422 40.2379C15.5688 40.2918 15.4114 40.3889 15.2843 40.5205C15.1572 40.6521 15.0644 40.8139 15.0144 40.9912C14.9655 41.1642 14.96 41.3468 14.9983 41.5225C15.0366 41.6982 15.1174 41.8614 15.2335 41.9972C15.9054 42.7872 16.9573 43.6932 18.2471 43.6932C18.3373 43.6932 18.4288 43.6887 18.5212 43.6796C19.7425 43.5577 20.8549 42.6154 21.8277 40.8788C21.8933 40.7617 21.9158 40.6246 21.8909 40.4921C21.8125 40.0871 21.8786 39.667 22.0773 39.3072C22.1596 39.1574 22.1705 38.9775 22.1071 38.8185ZM20.7647 40.486C20.0101 41.7767 19.2195 42.472 18.4128 42.5522C17.4554 42.6497 16.5783 41.8345 16.1176 41.305C17.5887 40.8263 18.822 39.7331 19.6708 38.7879L20.4853 39.1968C20.6055 39.2571 20.7286 39.3135 20.8542 39.3659C20.7515 39.7295 20.7211 40.1103 20.7647 40.486Z" fill="black"/>
<path d="M15.3318 40.9909C15.2818 40.8136 15.1891 40.6518 15.062 40.5202C14.9349 40.3887 14.7775 40.2915 14.6041 40.2376C13.1902 39.7913 11.991 38.6224 11.234 37.7205C11.1536 37.6248 11.0441 37.5591 10.9229 37.5337C10.8017 37.5083 10.6757 37.5248 10.5647 37.5805L9.3688 38.1804C9.05403 38.3382 8.72378 38.4616 8.38354 38.5488L8.16601 38.6048C8.08797 38.6249 8.01517 38.6621 7.9526 38.7136C7.89003 38.7652 7.83918 38.8299 7.80357 38.9034C7.76795 38.9769 7.74841 39.0573 7.74629 39.1392C7.74417 39.2211 7.75951 39.3025 7.79128 39.3778C8.89543 41.9883 10.2011 43.4294 11.672 43.6607C11.8084 43.6823 11.9458 43.6929 12.0839 43.6929C13.1116 43.6929 14.1726 43.1027 15.1129 41.9971C15.2288 41.8612 15.3096 41.698 15.3478 41.5223C15.386 41.3466 15.3805 41.1639 15.3318 40.9909ZM11.8421 42.5413C10.8889 42.3913 9.93946 41.3514 9.07801 39.5224C9.34615 39.4324 9.60781 39.3235 9.86109 39.1966L10.6753 38.7878C11.5239 39.7331 12.757 40.826 14.2285 41.3049C13.7489 41.8566 12.8369 42.6963 11.8421 42.5413ZM19.7786 37.5803L19.4095 37.3952C19.2075 37.2948 19.0375 37.1386 18.9188 36.9444C18.8001 36.7502 18.7377 36.5259 18.7386 36.2972V34.5366C18.7386 34.3864 18.68 34.2423 18.5756 34.1361C18.4712 34.0299 18.3296 33.9702 18.182 33.9702C18.0343 33.9702 17.8928 34.0299 17.7884 34.1361C17.684 34.2423 17.6253 34.3864 17.6253 34.5366V36.2972C17.6253 37.2014 18.1205 38.0114 18.9172 38.4111L19.2861 38.5962C19.4179 38.6576 19.568 38.6643 19.7045 38.6149C19.841 38.5655 19.9533 38.4639 20.0174 38.3317C20.0815 38.1994 20.0924 38.047 20.0478 37.9067C20.0033 37.7664 19.9067 37.6493 19.7786 37.5803Z" fill="black"/>
<path d="M15.4919 40.7353H14.8531C14.7054 40.7353 14.5638 40.7949 14.4595 40.9012C14.3551 41.0074 14.2964 41.1514 14.2964 41.3017C14.2964 41.4519 14.3551 41.596 14.4595 41.7022C14.5638 41.8084 14.7054 41.8681 14.8531 41.8681H15.4919C15.6395 41.8681 15.7811 41.8084 15.8855 41.7022C15.9899 41.596 16.0485 41.4519 16.0485 41.3017C16.0485 41.1514 15.9899 41.0074 15.8855 40.9012C15.7811 40.7949 15.6395 40.7353 15.4919 40.7353ZM12.162 33.9844C12.0144 33.9844 11.8728 34.0441 11.7684 34.1503C11.664 34.2565 11.6054 34.4006 11.6054 34.5508V36.2974C11.6063 36.5261 11.5439 36.7504 11.4252 36.9446C11.3064 37.1388 11.1363 37.295 10.9343 37.3953L10.5654 37.5804C10.4362 37.6488 10.3385 37.7659 10.2933 37.9067C10.248 38.0475 10.2587 38.2008 10.3231 38.3336C10.3875 38.4665 10.5004 38.5684 10.6378 38.6175C10.7751 38.6667 10.9259 38.6591 11.0579 38.5965L11.4266 38.4114C11.8155 38.2183 12.143 37.9175 12.3715 37.5436C12.6 37.1698 12.7204 36.7379 12.7187 36.2976V34.5508C12.7187 34.4006 12.66 34.2565 12.5556 34.1503C12.4513 34.0441 12.3097 33.9844 12.162 33.9844Z" fill="black"/>
<path d="M49.8489 22.6417C49.8472 22.548 49.8103 22.4586 49.7458 22.3917C49.6813 22.3249 49.594 22.2858 49.502 22.2824C46.7112 22.1992 45.2406 21.0736 44.6757 20.51C44.6395 20.4737 44.5961 20.4456 44.5485 20.4275C44.5009 20.4094 44.45 20.4018 44.3993 20.405C44.3486 20.4083 44.2991 20.4224 44.2541 20.4464C44.209 20.4704 44.1695 20.5038 44.138 20.5444C41.6843 23.6843 38.0646 23.2412 36.8476 22.982C36.6265 22.9349 36.4143 23.1045 36.4141 23.3345V28.8379C36.4141 32.5977 39.4371 35.6738 43.132 35.6738C46.827 35.6738 49.85 32.5977 49.85 28.8379V22.7486C49.8499 22.713 49.8495 22.6773 49.8489 22.6417Z" fill="#F9C1A8"/>
<path d="M48.3904 15.391C47.6746 15.391 47.0053 15.5967 46.4301 15.9479C45.7584 14.8069 44.5345 14.0366 43.1393 14.0366H41.1688C37.3549 14.0366 34.2344 17.2119 34.2344 21.0927V24.2544C34.5375 24.0068 34.888 23.8263 35.2636 23.7245C35.6392 23.6228 36.0316 23.602 36.4155 23.6635V23.335C36.4157 23.105 36.6279 22.9355 36.849 22.9824C38.0661 23.2416 41.6858 23.6848 44.1395 20.5449C44.1709 20.5043 44.2105 20.4709 44.2555 20.4468C44.3005 20.4228 44.35 20.4087 44.4008 20.4055C44.4515 20.4022 44.5023 20.4099 44.55 20.428C44.5976 20.4461 44.6409 20.4742 44.6772 20.5104C45.2423 21.0741 46.7127 22.1994 49.5035 22.2828C49.6938 22.2885 49.8466 22.4482 49.8504 22.6421C49.851 22.6777 49.8515 22.7133 49.8515 22.7491V23.6635C50.2788 23.5952 50.7159 23.6288 51.1283 23.7617C51.5407 23.8947 51.9172 24.1233 52.2279 24.4295V19.2958C52.2279 17.1482 50.501 15.391 48.3904 15.391Z" fill="#414344"/>
<path d="M50.2789 23.6282C50.1322 23.6282 49.9883 23.6406 49.8478 23.663V28.8382C49.8478 28.9922 49.8409 29.145 49.8309 29.2965C49.9772 29.3205 50.1262 29.3364 50.2789 29.3364C51.8279 29.3364 53.0837 28.0586 53.0837 26.4824C53.0837 24.906 51.8279 23.6282 50.2789 23.6282ZM36.4116 28.838V23.6628C36.2691 23.6399 36.1249 23.6283 35.9806 23.6279C34.4316 23.6279 33.1758 24.9057 33.1758 26.4819C33.1758 28.0581 34.4316 29.3359 35.9806 29.3359C36.1335 29.3359 36.2823 29.3201 36.4286 29.2961C36.4179 29.1436 36.4122 28.9908 36.4116 28.838Z" fill="#F9C1A8"/>
<path d="M56.6808 42.8562C56.6493 42.2819 56.4383 41.7328 56.0786 41.2892C55.7188 40.8456 55.229 40.5306 54.6809 40.3902L49.4636 39.054L47.6196 38.1289C47.231 37.934 46.9038 37.6323 46.675 37.258C46.4463 36.8836 46.325 36.4516 46.325 36.0108V34.8472C45.3457 35.3906 44.2479 35.6748 43.1324 35.6739C42.0914 35.6743 41.0648 35.4261 40.1352 34.9493V36.0108C40.1352 36.91 39.6333 37.7311 38.8407 38.1289L37.1739 38.9652C38.1645 40.6379 36.7911 42.7678 34.8551 42.4508V42.4506C34.7266 44.3979 33.6033 46.0795 32 46.9678V47.9148C32 49.303 33.2364 49.7113 33.2892 49.7568L34.5541 50.3914L38.7999 51.4789C39.246 51.5932 39.6445 51.8495 39.9372 52.2105C40.23 52.5715 40.4017 53.0182 40.4273 53.4856L40.64 57.4336H56.6875C56.7877 57.4336 56.8869 57.4128 56.9789 57.3725C57.071 57.3322 57.154 57.2731 57.2229 57.1991C57.2918 57.125 57.3451 57.0373 57.3795 56.9416C57.414 56.8458 57.4289 56.7439 57.4233 56.642L56.6808 42.8562Z" fill="#70D6F9"/>
<path d="M47.6193 38.1289C47.2308 37.934 46.9036 37.6323 46.6748 37.258C46.4461 36.8836 46.3248 36.4516 46.3248 36.0108V34.8472C45.3455 35.3906 44.2476 35.6748 43.1322 35.6739C42.0912 35.6743 41.0646 35.4261 40.135 34.9493V36.0108C40.135 36.91 39.6331 37.7311 38.8405 38.1289L38.5508 38.2742C39.4258 40.0019 41.1975 41.1911 43.2299 41.1911C45.2623 41.1911 47.0338 40.0017 47.909 38.2742L47.6193 38.1289Z" fill="#F9C1A8"/>
<path d="M50.4038 22.6307C50.3998 22.3915 50.3054 22.1631 50.1402 21.9929C49.975 21.8226 49.7518 21.7237 49.5168 21.7165C46.8763 21.6375 45.523 20.5638 45.0637 20.1057C44.9714 20.0144 44.8616 19.9437 44.7411 19.8979C44.6206 19.8522 44.492 19.8324 44.3636 19.8399C44.235 19.8483 44.1096 19.8839 43.9954 19.9447C43.8811 20.0054 43.7807 20.0898 43.7006 20.1925C41.4807 23.0326 38.2466 22.7025 36.9599 22.428C36.8261 22.3994 36.6878 22.4016 36.5551 22.4344C36.4223 22.4672 36.2984 22.5297 36.1924 22.6174C36.0866 22.7044 36.0015 22.8145 35.9432 22.9395C35.8849 23.0645 35.8549 23.2013 35.8555 23.3396V28.8385C35.8555 32.9203 39.119 36.2408 43.1301 36.2408C47.1413 36.2408 50.4047 32.9203 50.4047 28.8385V22.7492L50.4038 22.6307ZM49.2917 28.8381C49.2917 32.2952 46.5276 35.1075 43.1303 35.1075C39.733 35.1075 36.969 32.2952 36.969 28.8381V23.5832C38.3419 23.8304 41.9253 24.1109 44.4393 21.0625C45.1781 21.7378 46.687 22.7193 49.2917 22.8417V28.8381Z" fill="black"/>
<path d="M48.388 14.8244C47.7757 14.8244 47.1692 14.9581 46.6079 15.2143C45.7794 14.127 44.492 13.4702 43.1367 13.4702H41.1662C37.0357 13.4702 33.6751 16.8897 33.6751 21.0927V24.2544C33.6751 24.3611 33.7047 24.4656 33.7606 24.5559C33.8164 24.6462 33.8961 24.7187 33.9907 24.7649C34.0852 24.8111 34.1906 24.8292 34.2948 24.8171C34.399 24.8051 34.4977 24.7633 34.5796 24.6966C34.822 24.4973 35.103 24.3522 35.4042 24.2705C35.7054 24.1889 36.0201 24.1727 36.3278 24.2229C36.4072 24.2351 36.4882 24.2299 36.5653 24.2075C36.6425 24.1852 36.7141 24.1462 36.7752 24.0933C36.8361 24.0401 36.885 23.9741 36.9186 23.8999C36.9521 23.8257 36.9695 23.745 36.9695 23.6633V23.5833C38.3422 23.8302 41.9259 24.1105 44.4399 21.0626C45.1787 21.7379 46.6876 22.7194 49.2922 22.8417V23.6633C49.2923 23.7449 49.3097 23.8256 49.3433 23.8998C49.3768 23.974 49.4258 24.0399 49.4867 24.0931C49.5477 24.1462 49.6192 24.1854 49.6964 24.2078C49.7736 24.2302 49.8546 24.2353 49.9339 24.2229C50.2765 24.1679 50.627 24.1948 50.9576 24.3014C51.2883 24.408 51.59 24.5914 51.839 24.8371C51.9176 24.9142 52.0168 24.966 52.1242 24.9862C52.2316 25.0064 52.3425 24.994 52.443 24.9506C52.5436 24.9071 52.6293 24.8345 52.6895 24.7418C52.7498 24.6491 52.7819 24.5404 52.7819 24.4293V19.2956C52.7821 16.8301 50.811 14.8244 48.388 14.8244ZM51.6689 23.3674C51.2714 23.1832 50.8422 23.0802 50.4057 23.0642L50.4046 22.6306C50.4006 22.3914 50.3062 22.163 50.141 21.9927C49.9758 21.8225 49.7526 21.7235 49.5176 21.7164C46.8771 21.6373 45.5238 20.5637 45.0644 20.1056C44.9722 20.0143 44.8624 19.9435 44.7419 19.8978C44.6214 19.852 44.4928 19.8323 44.3644 19.8398C44.2358 19.8481 44.1103 19.8838 43.9961 19.9445C43.8819 20.0053 43.7815 20.0897 43.7013 20.1923C41.4814 23.0327 38.2476 22.7022 36.9606 22.4278C36.8269 22.3993 36.6886 22.4015 36.5559 22.4343C36.4231 22.467 36.2992 22.5295 36.1931 22.6172C36.0529 22.7325 35.9497 22.8878 35.8968 23.0631C35.5176 23.0734 35.1428 23.1489 34.7884 23.2865V21.0925C34.7884 17.5141 37.6495 14.6028 41.1662 14.6028H43.1367C44.2778 14.6028 45.3559 15.2297 45.9502 16.2388C46.0262 16.3675 46.1493 16.4603 46.2924 16.4969C46.4356 16.5334 46.5872 16.5107 46.7139 16.4337C47.2192 16.1234 47.7979 15.9588 48.388 15.9572C50.1971 15.9572 51.6689 17.4548 51.6689 19.2956V23.3674ZM52.5334 45.5331C52.3858 45.5331 52.2442 45.5928 52.1398 45.699C52.0354 45.8052 51.9768 45.9493 51.9768 46.0995V57.2573C51.9768 57.4075 52.0354 57.5516 52.1398 57.6578C52.2442 57.764 52.3858 57.8237 52.5334 57.8237C52.6811 57.8237 52.8227 57.764 52.927 57.6578C53.0314 57.5516 53.0901 57.4075 53.0901 57.2573V46.0995C53.0901 45.9493 53.0314 45.8052 52.927 45.699C52.8227 45.5928 52.6811 45.5331 52.5334 45.5331ZM33.9238 45.5331C33.7762 45.5331 33.6346 45.5928 33.5302 45.699C33.4258 45.8052 33.3672 45.9493 33.3672 46.0995V49.9758C33.3672 50.126 33.4258 50.2701 33.5302 50.3763C33.6346 50.4825 33.7762 50.5422 33.9238 50.5422C34.0715 50.5422 34.213 50.4825 34.3174 50.3763C34.4218 50.2701 34.4805 50.126 34.4805 49.9758V46.0995C34.4805 45.9493 34.4218 45.8052 34.3174 45.699C34.213 45.5928 34.0715 45.5331 33.9238 45.5331Z" fill="black"/>
<path d="M50.2806 23.0617C50.1127 23.0617 49.9389 23.0758 49.7645 23.1032C49.6332 23.1239 49.5134 23.1917 49.4269 23.2944C49.3404 23.397 49.2929 23.5278 49.2929 23.663V28.8382C49.2929 28.9628 49.288 29.0962 49.2773 29.2585C49.268 29.3994 49.3107 29.5388 49.3971 29.6493C49.4835 29.7598 49.6074 29.8335 49.7445 29.8559C49.938 29.8876 50.1134 29.9028 50.2809 29.9028C52.1345 29.9028 53.6423 28.3685 53.6423 26.4824C53.6423 24.5963 52.1342 23.0617 50.2806 23.0617ZM50.4062 28.7664V24.1982C51.5876 24.2648 52.5288 25.2637 52.5288 26.4824C52.529 27.7008 51.5878 28.6998 50.4062 28.7664ZM36.9702 28.838V23.6628C36.9703 23.5276 36.9227 23.3968 36.8362 23.2941C36.7497 23.1914 36.63 23.1236 36.4987 23.103C36.3279 23.0758 36.1554 23.062 35.9825 23.0615C34.1289 23.0615 32.6211 24.5958 32.6211 26.4822C32.6211 28.3681 34.1289 29.9026 35.9825 29.9026C36.1497 29.9026 36.3254 29.8874 36.5189 29.8557C36.6559 29.8332 36.7797 29.7596 36.8661 29.6491C36.9525 29.5386 36.9953 29.3993 36.986 29.2585C36.9761 29.1185 36.9709 28.9783 36.9702 28.838ZM35.857 28.7664C34.6755 28.6998 33.7344 27.7008 33.7344 26.4824C33.7344 25.2637 34.6755 24.2648 35.857 24.1982V28.7664ZM40.1344 34.5437C39.9868 34.5437 39.8452 34.6034 39.7408 34.7096C39.6364 34.8158 39.5778 34.9599 39.5778 35.1101V36.0109C39.5791 36.3463 39.4874 36.6752 39.3134 36.9599C39.1394 37.2447 38.89 37.4738 38.5938 37.6209L37.0061 38.4175C36.9405 38.4504 36.882 38.4961 36.8337 38.552C36.7855 38.6079 36.7486 38.673 36.7251 38.7434C36.7016 38.8138 36.692 38.8883 36.6967 38.9625C36.7015 39.0367 36.7206 39.1093 36.7529 39.176C36.7853 39.2427 36.8302 39.3023 36.8851 39.3514C36.9401 39.4004 37.004 39.438 37.0732 39.4619C37.1424 39.4858 37.2156 39.4956 37.2886 39.4908C37.3615 39.4859 37.4328 39.4665 37.4984 39.4336L39.0864 38.637C39.5694 38.397 39.9761 38.0233 40.26 37.5588C40.5438 37.0944 40.6933 36.5579 40.6913 36.0109V35.1101C40.6912 34.9599 40.6324 34.8159 40.528 34.7097C40.4236 34.6035 40.282 34.5438 40.1344 34.5437ZM57.9785 56.6109L57.2357 42.8246C57.1999 42.129 56.9453 41.4635 56.5097 40.9263C56.074 40.389 55.4803 40.0084 54.8159 39.8405L49.6559 38.5192L47.865 37.6207C47.5689 37.4735 47.3195 37.2444 47.1455 36.9597C46.9715 36.6749 46.8798 36.346 46.8811 36.0107V35.0793C46.8811 34.9291 46.8225 34.785 46.7181 34.6788C46.6137 34.5726 46.4721 34.5129 46.3245 34.5129C46.1768 34.5129 46.0353 34.5726 45.9309 34.6788C45.8265 34.785 45.7678 34.9291 45.7678 35.0793V36.0107C45.7678 37.1335 46.3828 38.1397 47.3727 38.6368L49.2168 39.5618C49.252 39.5795 49.2889 39.5936 49.327 39.6033L54.5443 40.9393C54.978 41.0489 55.3656 41.2973 55.6501 41.648C55.9345 41.9986 56.1008 42.433 56.1242 42.8871L56.867 56.6734C56.8685 56.6984 56.8648 56.7234 56.8564 56.7468C56.8479 56.7703 56.8348 56.7917 56.8178 56.8098C56.8011 56.828 56.7808 56.8426 56.7582 56.8525C56.7357 56.8624 56.7114 56.8674 56.6869 56.8674H40.6394C40.5663 56.8674 40.4939 56.882 40.4264 56.9105C40.3588 56.9389 40.2975 56.9807 40.2458 57.0333C40.1941 57.0859 40.1531 57.1483 40.1251 57.217C40.0971 57.2857 40.0828 57.3594 40.0828 57.4338C40.0828 57.5082 40.0971 57.5818 40.1251 57.6505C40.1531 57.7192 40.1941 57.7817 40.2458 57.8343C40.2975 57.8869 40.3588 57.9286 40.4264 57.9571C40.4939 57.9855 40.5663 58.0002 40.6394 58.0002H56.6869C57.0409 58.0002 57.3834 57.8502 57.6267 57.5885C57.7473 57.4582 57.8406 57.3044 57.901 57.1364C57.9615 56.9683 57.9879 56.7896 57.9785 56.6109Z" fill="black"/>
<path d="M48.0881 37.9572C47.9595 37.8835 47.8074 37.8647 47.6652 37.9051C47.5231 37.9455 47.4025 38.0416 47.33 38.1725C46.4919 39.6852 44.9208 40.6248 43.2293 40.6248C41.5238 40.6248 39.9462 39.6737 39.1122 38.1426C39.0774 38.0763 39.03 38.0177 38.9728 37.9703C38.9155 37.9228 38.8496 37.8875 38.7788 37.8662C38.708 37.8449 38.6338 37.8382 38.5604 37.8464C38.487 37.8546 38.416 37.8776 38.3514 37.914C38.2868 37.9504 38.23 37.9995 38.1843 38.0584C38.1385 38.1174 38.1048 38.185 38.0849 38.2574C38.0651 38.3297 38.0597 38.4054 38.0689 38.4799C38.078 38.5545 38.1017 38.6264 38.1385 38.6915C39.1687 40.5826 41.1194 41.7574 43.2293 41.7574C45.3218 41.7574 47.2649 40.5967 48.2996 38.7284C48.3356 38.6637 48.3586 38.5924 48.3674 38.5185C48.3762 38.4447 48.3707 38.3698 48.351 38.2982C48.3314 38.2266 48.298 38.1596 48.2529 38.1011C48.2078 38.0426 48.1518 37.9937 48.0881 37.9572ZM45.4868 30.4011C45.4308 30.3534 45.366 30.3173 45.2963 30.295C45.2266 30.2727 45.1532 30.2646 45.0804 30.2711C45.0076 30.2776 44.9367 30.2987 44.8719 30.3331C44.8071 30.3675 44.7496 30.4146 44.7026 30.4716C44.3902 30.8509 43.8565 31.0774 43.2752 31.0774C42.6938 31.0774 42.1603 30.8509 41.8479 30.4716C41.7531 30.3565 41.6172 30.2844 41.4702 30.2712C41.3231 30.258 41.1769 30.3047 41.0637 30.4011C41.0077 30.4489 40.9614 30.5074 40.9276 30.5733C40.8938 30.6392 40.8731 30.7113 40.8666 30.7854C40.8602 30.8595 40.8682 30.9341 40.8901 31.0051C40.9121 31.076 40.9475 31.1419 40.9945 31.1989C41.516 31.8321 42.3685 32.21 43.2752 32.21C44.1818 32.21 45.0344 31.8321 45.5558 31.1989C45.6506 31.0838 45.6966 30.9351 45.6836 30.7855C45.6707 30.6359 45.5999 30.4976 45.4868 30.4011ZM46.0419 25.8418C45.8075 25.8418 45.5826 25.9366 45.4169 26.1052C45.2511 26.2739 45.1579 26.5027 45.1579 26.7413C45.1579 26.9798 45.2511 27.2086 45.4169 27.3773C45.5826 27.5459 45.8075 27.6407 46.0419 27.6407C46.2763 27.6407 46.5012 27.5459 46.6669 27.3773C46.8327 27.2086 46.9258 26.9798 46.9258 26.7413C46.9258 26.5027 46.8327 26.2739 46.6669 26.1052C46.5012 25.9366 46.2763 25.8418 46.0419 25.8418ZM40.5285 25.8418C40.294 25.8418 40.0692 25.9366 39.9034 26.1052C39.7377 26.2739 39.6445 26.5027 39.6445 26.7413C39.6445 26.9798 39.7377 27.2086 39.9034 27.3773C40.0692 27.5459 40.294 27.6407 40.5285 27.6407C40.7629 27.6407 40.9877 27.5459 41.1535 27.3773C41.3193 27.2086 41.4124 26.9798 41.4124 26.7413C41.4124 26.5027 41.3193 26.2739 41.1535 26.1052C40.9877 25.9366 40.7629 25.8418 40.5285 25.8418ZM17.9872 26.2949C17.7528 26.2949 17.5279 26.3897 17.3622 26.5584C17.1964 26.727 17.1033 26.9558 17.1033 27.1944C17.1033 27.4329 17.1964 27.6617 17.3622 27.8304C17.5279 27.9991 17.7528 28.0938 17.9872 28.0938C18.2216 28.0938 18.4465 27.9991 18.6122 27.8304C18.778 27.6617 18.8711 27.4329 18.8711 27.1944C18.8711 26.9558 18.778 26.727 18.6122 26.5584C18.4465 26.3897 18.2216 26.2949 17.9872 26.2949ZM12.4738 26.2949C12.2394 26.2949 12.0145 26.3897 11.8487 26.5584C11.683 26.727 11.5898 26.9558 11.5898 27.1944C11.5898 27.4329 11.683 27.6617 11.8487 27.8304C12.0145 27.9991 12.2394 28.0938 12.4738 28.0938C12.7082 28.0938 12.9331 27.9991 13.0988 27.8304C13.2646 27.6617 13.3577 27.4329 13.3577 27.1944C13.3577 26.9558 13.2646 26.727 13.0988 26.5584C12.9331 26.3897 12.7082 26.2949 12.4738 26.2949Z" fill="black"/>
<path d="M34.2673 37.2398H34.2611C32.5442 37.2398 31.0221 36.3931 30.0749 35.0879C30.0066 34.9924 29.9171 34.9148 29.8137 34.8612C29.7103 34.8077 29.596 34.7798 29.48 34.7798C29.3639 34.7798 29.2496 34.8077 29.1462 34.8612C29.0428 34.9148 28.9533 34.9924 28.885 35.0879C27.9376 36.3929 26.4158 37.2398 24.6989 37.2398C24.6445 37.2398 24.5904 37.2389 24.5365 37.2371C24.4581 37.2346 24.38 37.2483 24.3068 37.2772C24.2337 37.3061 24.167 37.3497 24.1107 37.4054C24.0545 37.4611 24.0098 37.5277 23.9794 37.6013C23.949 37.6749 23.9334 37.754 23.9336 37.8338V42.0778C23.9336 45.1375 26.3937 47.6408 29.4007 47.6408C32.4077 47.6408 34.8678 45.1375 34.8678 42.0778V37.8379C34.8676 37.5028 34.5968 37.2393 34.2673 37.2398Z" fill="#F9C1A8"/>
<path d="M29.4818 28.8745C25.4381 28.8745 22.1602 32.21 22.1602 36.3246V38.3471C22.4068 38.1455 22.6921 37.9986 22.9977 37.9158C23.3034 37.833 23.6227 37.816 23.9352 37.8661V37.8335C23.935 37.7536 23.9505 37.6745 23.981 37.6009C24.0114 37.5273 24.0561 37.4607 24.1123 37.405C24.1686 37.3494 24.2353 37.3058 24.3084 37.2768C24.3816 37.2479 24.4597 37.2343 24.5381 37.2367C24.592 37.2385 24.6461 37.2394 24.7004 37.2394C26.4173 37.2394 27.9394 36.3928 28.8866 35.0875C28.9549 34.9921 29.0444 34.9144 29.1478 34.8609C29.2512 34.8073 29.3655 34.7794 29.4815 34.7794C29.5976 34.7794 29.7119 34.8073 29.8153 34.8609C29.9187 34.9144 30.0082 34.9921 30.0765 35.0875C31.0239 36.3925 32.5457 37.2394 34.2626 37.2394H34.2689C34.5984 37.239 34.8689 37.5022 34.8689 37.8376V37.8659C35.2167 37.8104 35.5724 37.8378 35.908 37.9459C36.2436 38.0541 36.55 38.24 36.8029 38.4891V36.3241C36.8034 32.21 33.5254 28.8745 29.4818 28.8745Z" fill="#414344"/>
<path d="M35.219 37.8379C35.0997 37.8379 34.9826 37.8481 34.8681 37.8662V42.0776C34.8681 42.2031 34.8625 42.3272 34.8543 42.4507C34.9732 42.4702 35.0946 42.4831 35.2188 42.4831C36.4795 42.4831 37.5012 41.4432 37.5012 40.1606C37.5017 38.8778 36.4797 37.8379 35.219 37.8379ZM23.9341 42.0776V37.8662C23.8181 37.8476 23.7007 37.8381 23.5832 37.8379C22.3226 37.8379 21.3008 38.8778 21.3008 40.1604C21.3008 41.4432 22.3228 42.4829 23.5832 42.4829C23.7077 42.4829 23.8288 42.47 23.9477 42.4505C23.9393 42.3263 23.9347 42.202 23.9341 42.0776Z" fill="#F9C1A8"/>
<path d="M40.425 53.4855C40.3994 53.0182 40.2277 52.5714 39.9349 52.2104C39.6421 51.8494 39.2436 51.5931 38.7976 51.4789L34.5517 50.3914L33.051 49.6385C32.7348 49.4799 32.4686 49.2343 32.2824 48.9297C32.0963 48.6251 31.9976 48.2735 31.9976 47.9148V46.9678C31.2007 47.41 30.3072 47.6414 29.3995 47.6407C28.5242 47.6407 27.6957 47.4272 26.9603 47.0509V47.9148C26.9603 48.2735 26.8616 48.6251 26.6754 48.9297C26.4893 49.2343 26.2231 49.4798 25.9069 49.6385L24.4062 50.3914L20.1603 51.4789C19.7142 51.5931 19.3157 51.8495 19.0229 52.2105C18.7302 52.5716 18.5585 53.0184 18.5329 53.4857L18.3203 57.4336H40.6376L40.425 53.4855Z" fill="#F5C84C"/>
<path d="M33.0518 49.6385C32.7356 49.4799 32.4694 49.2343 32.2832 48.9297C32.0971 48.6251 31.9984 48.2735 31.9984 47.9148V46.9678C31.2014 47.41 30.308 47.6414 29.4003 47.6407C28.525 47.6407 27.6965 47.4272 26.9611 47.0509V47.9148C26.961 48.2735 26.8624 48.6251 26.6762 48.9297C26.4901 49.2343 26.2238 49.4798 25.9077 49.6385L25.6719 49.7568C26.3842 51.1628 27.8256 52.1307 29.4797 52.1307C31.1339 52.1307 32.5753 51.1628 33.2876 49.7568L33.0518 49.6385Z" fill="#F9C1A8"/>
<path d="M37.0506 54.0321C36.903 54.0321 36.7614 54.0918 36.657 54.198C36.5526 54.3042 36.494 54.4483 36.494 54.5985V57.3737C36.494 57.5239 36.5526 57.668 36.657 57.7742C36.7614 57.8804 36.903 57.9401 37.0506 57.9401C37.1983 57.9401 37.3399 57.8804 37.4442 57.7742C37.5486 57.668 37.6073 57.5239 37.6073 57.3737V54.5985C37.6073 54.4483 37.5486 54.3042 37.4442 54.198C37.3399 54.0918 37.1983 54.0321 37.0506 54.0321ZM21.9065 54.0321C21.7588 54.0321 21.6172 54.0918 21.5129 54.198C21.4085 54.3042 21.3498 54.4483 21.3498 54.5985V57.3737C21.3498 57.5239 21.4085 57.668 21.5129 57.7742C21.6172 57.8804 21.7588 57.9401 21.9065 57.9401C22.0541 57.9401 22.1957 57.8804 22.3001 57.7742C22.4045 57.668 22.4631 57.5239 22.4631 57.3737V54.5985C22.4631 54.4483 22.4045 54.3042 22.3001 54.198C22.1957 54.0918 22.0541 54.0321 21.9065 54.0321ZM35.2168 37.2715C35.112 37.2715 35.004 37.2778 34.8958 37.2907C34.8223 37.2983 34.7511 37.3206 34.6862 37.3564C34.6213 37.3922 34.564 37.4408 34.5178 37.4993C34.4715 37.5578 34.4371 37.6251 34.4167 37.6973C34.3962 37.7695 34.3901 37.8451 34.3986 37.9197C34.4071 37.9943 34.4301 38.0664 34.4663 38.1319C34.5025 38.1974 34.5511 38.2549 34.6093 38.3011C34.6676 38.3472 34.7342 38.3812 34.8055 38.4009C34.8767 38.4206 34.9511 38.4257 35.0242 38.4159C35.0875 38.4084 35.1516 38.4041 35.2168 38.4041C36.1685 38.4041 36.9427 39.1921 36.9427 40.1604C36.9427 41.1285 36.1685 41.9165 35.2168 41.9165C35.1565 41.9165 35.0939 41.9122 35.0256 41.9036C34.7208 41.8623 34.4424 42.0853 34.4042 42.3954C34.3859 42.5445 34.4266 42.6948 34.5172 42.8133C34.6079 42.9319 34.7411 43.0089 34.8875 43.0275C35.002 43.042 35.1097 43.0493 35.2168 43.0493C36.7823 43.0493 38.0559 41.7533 38.0559 40.1604C38.0559 38.5674 36.7826 37.2715 35.2168 37.2715ZM24.3441 42.4147C24.3369 42.3406 24.3153 42.2688 24.2807 42.2032C24.2461 42.1376 24.1992 42.0797 24.1425 42.0326C24.0859 41.9856 24.0206 41.9504 23.9506 41.9291C23.8805 41.9077 23.807 41.9007 23.7342 41.9083C23.6833 41.9136 23.6322 41.9164 23.5811 41.9167C22.6294 41.9167 21.8552 41.1287 21.8552 40.1606C21.8552 39.1923 22.6294 38.4043 23.5811 38.4043C23.6271 38.4043 23.6728 38.4066 23.718 38.4104C23.7908 38.4168 23.8642 38.4085 23.9339 38.386C24.0036 38.3635 24.0682 38.3273 24.1241 38.2794C24.1801 38.2315 24.2262 38.1728 24.2598 38.1068C24.2935 38.0408 24.314 37.9686 24.3203 37.8945C24.3265 37.8204 24.3184 37.7458 24.2963 37.6749C24.2742 37.604 24.2386 37.5382 24.1915 37.4813C24.1444 37.4244 24.0868 37.3774 24.0219 37.3432C23.957 37.3089 23.8861 37.288 23.8133 37.2817C23.7361 37.275 23.6587 37.2716 23.5813 37.2715C22.0158 37.2715 20.7422 38.5676 20.7422 40.1606C20.7422 41.7536 22.0158 43.0495 23.5813 43.0495C23.6708 43.0495 23.7592 43.0445 23.8465 43.0352C23.9933 43.0201 24.1282 42.9462 24.2216 42.8298C24.3149 42.7134 24.359 42.5641 24.3441 42.4147Z" fill="black"/>
<path d="M40.983 53.454C40.9527 52.8655 40.7373 52.3025 40.3687 51.8479C40.0001 51.3933 39.4978 51.0713 38.9357 50.9292L34.7471 49.8567L33.2994 49.1303C33.0758 49.0192 32.8875 48.8463 32.7561 48.6313C32.6247 48.4163 32.5556 48.168 32.5566 47.9148V47.1533C32.5566 47.0031 32.4979 46.859 32.3935 46.7528C32.2892 46.6466 32.1476 46.5869 31.9999 46.5869C31.8523 46.5869 31.7107 46.6466 31.6063 46.7528C31.5019 46.859 31.4433 47.0031 31.4433 47.1533V47.9148C31.4433 48.8695 31.9659 49.7244 32.8071 50.1464L34.3078 50.8993C34.3429 50.917 34.3799 50.9308 34.418 50.9408L38.6638 52.0283C38.9953 52.1119 39.2916 52.3016 39.509 52.5696C39.7264 52.8376 39.8534 53.1695 39.8713 53.5166L40.0521 56.867H18.9104L19.091 53.5168C19.1089 53.1697 19.2359 52.8377 19.4533 52.5696C19.6707 52.3016 19.967 52.1117 20.2985 52.028L24.5443 50.9405C24.5824 50.9306 24.6193 50.917 24.6545 50.8991L26.155 50.1462C26.5656 49.9424 26.9113 49.6249 27.1526 49.2301C27.3939 48.8354 27.5209 48.3794 27.519 47.9146V47.2476C27.519 47.0974 27.4603 46.9533 27.3559 46.8471C27.2516 46.7408 27.11 46.6812 26.9623 46.6812C26.8147 46.6812 26.6731 46.7408 26.5687 46.8471C26.4643 46.9533 26.4057 47.0974 26.4057 47.2476V47.9146C26.4067 48.1677 26.3376 48.4161 26.2062 48.6311C26.0748 48.8461 25.8865 49.019 25.6629 49.1301L24.2152 49.8564L20.0266 50.929C19.4644 51.0711 18.962 51.3932 18.5934 51.8479C18.2248 52.3025 18.0095 52.8657 17.9793 53.4542L17.7664 57.4023C17.7624 57.4792 17.7738 57.5561 17.7999 57.6284C17.8261 57.7006 17.8664 57.7667 17.9184 57.8226C17.9704 57.8785 18.0331 57.923 18.1026 57.9535C18.1721 57.9839 18.2469 57.9997 18.3226 57.9998H40.6399C40.7156 57.9999 40.7905 57.9842 40.86 57.9538C40.9295 57.9234 40.9922 57.8789 41.0442 57.823C41.0963 57.7671 41.1365 57.701 41.1626 57.6287C41.1886 57.5564 41.1999 57.4794 41.1956 57.4026L40.983 53.454Z" fill="black"/>
<path d="M33.4918 49.389C33.4279 49.3528 33.3577 49.3297 33.2851 49.3211C33.2125 49.3125 33.1389 49.3185 33.0686 49.3388C32.9983 49.3591 32.9326 49.3934 32.8752 49.4395C32.8179 49.4857 32.7701 49.5429 32.7345 49.6079C32.0728 50.8144 30.8257 51.564 29.48 51.564C28.1527 51.564 26.9141 50.8298 26.2474 49.6473C26.2112 49.5825 26.1628 49.5257 26.1049 49.48C26.047 49.4343 25.9808 49.4007 25.9101 49.3811C25.8395 49.3614 25.7657 49.3562 25.693 49.3657C25.6203 49.3751 25.5502 49.3991 25.4867 49.4362C25.4231 49.4733 25.3674 49.5228 25.3227 49.5818C25.278 49.6409 25.2452 49.7083 25.2262 49.7803C25.2071 49.8523 25.2022 49.9274 25.2118 50.0013C25.2213 50.0752 25.2451 50.1465 25.2818 50.211C26.1464 51.7444 27.755 52.6969 29.48 52.6969C31.2289 52.6969 32.8485 51.7247 33.7066 50.1598C33.7785 50.0286 33.7962 49.8737 33.756 49.7292C33.7157 49.5847 33.6207 49.4623 33.4918 49.389ZM31.3835 43.2685C31.3274 43.2207 31.2627 43.1846 31.193 43.1623C31.1232 43.1399 31.0499 43.1318 30.9771 43.1383C30.9042 43.1448 30.8334 43.1659 30.7686 43.2003C30.7038 43.2347 30.6462 43.2817 30.5993 43.3387C30.3644 43.6239 29.9598 43.7943 29.5171 43.7943C29.0745 43.7943 28.6699 43.6239 28.435 43.3387C28.3402 43.2236 28.2043 43.1515 28.0572 43.1383C27.9102 43.1251 27.764 43.172 27.6508 43.2685C27.5377 43.365 27.4669 43.5032 27.4539 43.6529C27.441 43.8025 27.487 43.9513 27.5818 44.0664C28.0258 44.6052 28.7494 44.9269 29.5171 44.9269C30.2849 44.9269 31.0085 44.6052 31.4525 44.0664C31.4994 44.0094 31.5349 43.9436 31.5568 43.8726C31.5788 43.8016 31.5868 43.727 31.5804 43.6529C31.574 43.5788 31.5533 43.5067 31.5195 43.4407C31.4857 43.3748 31.4395 43.3162 31.3835 43.2685ZM31.7686 39.6392C31.5779 39.6392 31.3949 39.7163 31.26 39.8536C31.125 39.9908 31.0492 40.177 31.0492 40.3712C31.0492 40.5653 31.125 40.7515 31.26 40.8888C31.3949 41.0261 31.5779 41.1032 31.7686 41.1032C31.9594 41.1032 32.1424 41.0261 32.2773 40.8888C32.4123 40.7515 32.4881 40.5653 32.4881 40.3712C32.4881 40.177 32.4123 39.9908 32.2773 39.8536C32.1424 39.7163 31.9594 39.6392 31.7686 39.6392ZM27.2819 39.6392C27.0911 39.6392 26.9081 39.7163 26.7732 39.8536C26.6383 39.9908 26.5625 40.177 26.5625 40.3712C26.5625 40.5653 26.6383 40.7515 26.7732 40.8888C26.9081 41.0261 27.0911 41.1032 27.2819 41.1032C27.4727 41.1032 27.6557 41.0261 27.7906 40.8888C27.9255 40.7515 28.0013 40.5653 28.0013 40.3712C28.0013 40.177 27.9255 39.9908 27.7906 39.8536C27.6557 39.7163 27.4727 39.6392 27.2819 39.6392Z" fill="black"/>
<path d="M35.0922 37.018C34.719 36.6388 34.2913 36.6782 34.2688 36.6734C34.2459 36.6678 31.9917 36.7722 30.5248 34.7517C30.2768 34.4098 29.8967 34.2139 29.4821 34.2139C29.0676 34.2139 28.6875 34.4098 28.4394 34.7517C27.566 35.9552 26.1684 36.6734 24.7008 36.6734C24.6525 36.6734 24.6044 36.6725 24.5565 36.6709C24.4038 36.6656 24.2516 36.6917 24.1091 36.7477C23.9666 36.8038 23.8367 36.8885 23.7271 36.997C23.6165 37.1052 23.5286 37.2352 23.4688 37.379C23.4089 37.5228 23.3783 37.6775 23.3789 37.8337V42.0776C23.3789 45.4573 26.0811 48.207 29.4027 48.207C32.7242 48.207 35.4264 45.4573 35.4264 42.0776V37.8377C35.4268 37.6854 35.3974 37.5345 35.3401 37.3938C35.2827 37.2531 35.1984 37.1254 35.0922 37.018ZM34.3131 42.0781C34.3131 44.8331 32.1104 47.0747 29.4027 47.0747C26.6949 47.0747 24.4922 44.8331 24.4922 42.0781V37.8339C24.4922 37.83 24.4922 37.8198 24.5205 37.8033C24.5804 37.8053 24.6405 37.8062 24.7008 37.8062C26.5199 37.8062 28.2522 36.9159 29.3347 35.4246C29.3842 35.3567 29.4483 35.3465 29.4821 35.3465C29.516 35.3465 29.5801 35.3567 29.6295 35.4246C30.7121 36.9159 32.4444 37.8062 34.2635 37.8062H34.2706C34.2888 37.8062 34.2995 37.8135 34.3131 37.8382V42.0781Z" fill="black"/>
<path d="M29.4798 28.3081C25.1358 28.3081 21.6016 31.9041 21.6016 36.3243V38.2322C21.6016 38.3824 21.6602 38.5265 21.7646 38.6327C21.869 38.739 22.0106 38.7986 22.1582 38.7986C22.3058 38.7986 22.4474 38.739 22.5518 38.6327C22.6562 38.5265 22.7148 38.3824 22.7148 38.2322V36.3243C22.7148 32.5287 25.7496 29.4409 29.4798 29.4409C33.21 29.4409 36.2446 32.5287 36.2446 36.3243V38.2605C36.2446 38.3349 36.2589 38.4086 36.2869 38.4773C36.3149 38.546 36.3559 38.6085 36.4076 38.6611C36.4593 38.7136 36.5206 38.7554 36.5882 38.7838C36.6557 38.8123 36.7281 38.8269 36.8012 38.8269C36.8743 38.8269 36.9467 38.8123 37.0142 38.7838C37.0817 38.7554 37.1431 38.7136 37.1948 38.6611C37.2465 38.6085 37.2875 38.546 37.3155 38.4773C37.3434 38.4086 37.3578 38.3349 37.3578 38.2605V36.3243C37.3578 31.9041 33.8238 28.3081 29.4798 28.3081Z" fill="black"/>
<path d="M34.7402 6.64922C33.3225 5.30593 31.0908 5.40901 29.7211 6.80283C29.6574 6.86756 29.5711 6.90393 29.4811 6.90393C29.3912 6.90393 29.3049 6.86756 29.2412 6.80283C27.8715 5.40901 25.6398 5.3057 24.2221 6.64922C22.7339 8.05957 22.7027 10.4315 24.1284 11.8821L28.7429 16.5779C28.8399 16.6765 28.9549 16.7547 29.0816 16.8081C29.2082 16.8615 29.344 16.889 29.481 16.889C29.6181 16.889 29.7539 16.8615 29.8805 16.8081C30.0071 16.7547 30.1222 16.6765 30.2191 16.5779L34.8337 11.8821C36.2596 10.4315 36.2284 8.05957 34.7402 6.64922Z" fill="#FC657E"/>
<path d="M35.118 6.23483C33.5621 4.75991 31.0763 4.78438 29.4794 6.25387C27.8823 4.78415 25.3968 4.76014 23.8409 6.23483C23.0119 7.02055 22.5444 8.08676 22.5241 9.23679C22.5041 10.3875 22.9334 11.4693 23.7329 12.2827L28.3475 16.9784C28.6496 17.2859 29.0517 17.4553 29.4792 17.4553C29.9067 17.4553 30.3088 17.2861 30.611 16.9784L35.2255 12.2827C36.0251 11.4691 36.4544 10.3875 36.4343 9.23679C36.4145 8.08653 35.9469 7.02033 35.118 6.23483ZM34.4387 11.4818L29.8241 16.1775C29.64 16.3647 29.3191 16.3647 29.135 16.1775L24.5202 11.4818C24.2326 11.1912 24.006 10.8441 23.8542 10.4616C23.7025 10.0792 23.6287 9.66932 23.6374 9.25695C23.6519 8.41686 23.9939 7.63794 24.5997 7.0636C25.1606 6.53208 25.8882 6.26927 26.623 6.26927C27.4254 6.26927 28.2359 6.58306 28.8458 7.20361C29.014 7.37412 29.2418 7.46983 29.4793 7.46978C29.7167 7.46974 29.9445 7.37395 30.1127 7.20339C31.281 6.01484 33.1858 5.95254 34.3587 7.0636C34.9648 7.63794 35.3066 8.41686 35.3211 9.25695C35.3299 9.6693 35.2562 10.0792 35.1046 10.4616C34.9529 10.8441 34.7263 11.1912 34.4387 11.4818Z" fill="black"/>
<path d="M22.9009 3.59834C21.8994 3.40871 21.1101 2.62185 20.9197 1.62362C20.918 1.61297 20.9127 1.60328 20.9046 1.59629C20.8966 1.58929 20.8863 1.58545 20.8757 1.58545C20.8651 1.58545 20.8549 1.58929 20.8468 1.59629C20.8388 1.60328 20.8334 1.61297 20.8317 1.62362C20.6414 2.62185 19.8521 3.40871 18.8505 3.59834C18.84 3.59967 18.8304 3.60486 18.8234 3.61294C18.8164 3.62101 18.8125 3.63141 18.8125 3.64218C18.8125 3.65295 18.8164 3.66335 18.8234 3.67142C18.8304 3.67949 18.84 3.68468 18.8505 3.68602C19.8521 3.87588 20.6414 4.66273 20.8317 5.66096C20.8334 5.67161 20.8388 5.6813 20.8468 5.6883C20.8549 5.69529 20.8651 5.69913 20.8757 5.69913C20.8863 5.69913 20.8966 5.69529 20.9046 5.6883C20.9127 5.6813 20.918 5.67161 20.9197 5.66096C21.1101 4.66273 21.8994 3.87588 22.9009 3.68602C22.9114 3.68468 22.921 3.67949 22.9281 3.67142C22.9351 3.66335 22.9389 3.65295 22.9389 3.64218C22.9389 3.63141 22.9351 3.62101 22.9281 3.61294C22.921 3.60486 22.9114 3.59967 22.9009 3.59834Z" fill="#F5C84C"/>
<path d="M41.4799 9.95756C40.836 9.83544 40.3284 9.32953 40.2059 8.68767C40.2047 8.68092 40.2012 8.6748 40.1961 8.6704C40.1909 8.66599 40.1844 8.66357 40.1776 8.66357C40.1709 8.66357 40.1643 8.66599 40.1592 8.6704C40.154 8.6748 40.1505 8.68092 40.1493 8.68767C40.0269 9.32953 39.5194 9.83567 38.8753 9.95756C38.8687 9.9586 38.8627 9.96202 38.8583 9.9672C38.854 9.97237 38.8516 9.97895 38.8516 9.98576C38.8516 9.99257 38.854 9.99916 38.8583 10.0043C38.8627 10.0095 38.8687 10.0129 38.8753 10.014C39.5192 10.1361 40.0269 10.642 40.1493 11.2839C40.1505 11.2906 40.154 11.2967 40.1592 11.3011C40.1643 11.3055 40.1709 11.308 40.1776 11.308C40.1844 11.308 40.1909 11.3055 40.1961 11.3011C40.2012 11.2967 40.2047 11.2906 40.2059 11.2839C40.3284 10.642 40.8358 10.1359 41.4799 10.014C41.4865 10.0129 41.4926 10.0095 41.4969 10.0043C41.5013 9.99916 41.5037 9.99257 41.5037 9.98576C41.5037 9.97895 41.5013 9.97237 41.4969 9.9672C41.4926 9.96202 41.4865 9.9586 41.4799 9.95756Z" fill="#70D6F9"/>
<path d="M4.79848 16.3808H4.27991V15.853C4.27991 15.6633 4.20585 15.4813 4.07403 15.3472C3.9422 15.2131 3.76341 15.1377 3.57698 15.1377C3.39056 15.1377 3.21176 15.2131 3.07994 15.3472C2.94812 15.4813 2.87406 15.6633 2.87406 15.853V16.3808H2.35527C2.16884 16.3808 1.99005 16.4562 1.85823 16.5903C1.7264 16.7245 1.65234 16.9064 1.65234 17.0961C1.65234 17.2858 1.7264 17.4677 1.85823 17.6019C1.99005 17.736 2.16884 17.8114 2.35527 17.8114H2.87406V18.3392C2.87406 18.5289 2.94812 18.7109 3.07994 18.845C3.21176 18.9792 3.39056 19.0545 3.57698 19.0545C3.76341 19.0545 3.9422 18.9792 4.07403 18.845C4.20585 18.7109 4.27991 18.5289 4.27991 18.3392V17.8114H4.79848C4.9849 17.8114 5.1637 17.736 5.29552 17.6019C5.42734 17.4677 5.5014 17.2858 5.5014 17.0961C5.5014 16.9064 5.42734 16.7245 5.29552 16.5903C5.1637 16.4562 4.9849 16.3808 4.79848 16.3808Z" fill="#FC657E"/>
<path d="M25.5761 1.5302C25.9914 1.5302 26.328 1.18766 26.328 0.765102C26.328 0.342548 25.9914 0 25.5761 0C25.1609 0 24.8242 0.342548 24.8242 0.765102C24.8242 1.18766 25.1609 1.5302 25.5761 1.5302Z" fill="#87D147"/>
<path d="M1.73238 22.4297C1.53296 22.4297 1.34171 22.5103 1.2007 22.6538C1.05969 22.7973 0.980469 22.9919 0.980469 23.1948C0.980469 23.3977 1.05969 23.5923 1.2007 23.7358C1.34171 23.8793 1.53296 23.9599 1.73238 23.9599C1.9318 23.9599 2.12305 23.8793 2.26406 23.7358C2.40507 23.5923 2.48429 23.3977 2.48429 23.1948C2.48429 22.9919 2.40507 22.7973 2.26406 22.6538C2.12305 22.5103 1.9318 22.4297 1.73238 22.4297Z" fill="#F5C84C"/>
</g>
<defs>
<clipPath id="clip0_424_1191">
<rect width="57" height="58" fill="white" transform="translate(0.980469)"/>
</clipPath>
</defs>
</svg>
