<svg width="53" height="47" viewBox="0 0 53 47" fill="none" xmlns="http://www.w3.org/2000/svg">
<path d="M35.035 33.4414H10.8C8.21161 33.4414 6.11328 35.5397 6.11328 38.1281V45.3749H25.198V38.1574H35.035V33.4414Z" fill="#80B4FB"/>
<path d="M12.9793 33.4419C10.3909 33.4419 8.29304 35.5407 8.29304 38.1282V45.3755H6.11328V38.1282C6.11328 35.5407 8.2111 33.4419 10.7996 33.4419H12.9793Z" fill="#5490F9"/>
<path d="M42.4644 33.4414H32.7531C30.1647 33.4414 28.0664 35.5397 28.0664 38.1281V45.3749H47.1511V38.1281C47.1511 35.5396 45.0528 33.4414 42.4644 33.4414Z" fill="#DD636E"/>
<path d="M34.7972 33.4419C32.2088 33.4419 30.111 35.5397 30.111 38.1282V45.3753H28.0664V38.1282C28.0664 35.5397 30.1652 33.4419 32.7537 33.4419H34.7972Z" fill="#DA4A54"/>
<path d="M40.2496 29.0244V33.4336C40.2496 34.8914 39.0674 36.0736 37.6096 36.0736C36.1509 36.0736 34.9688 34.8914 34.9688 33.4336V29.0244H40.2496Z" fill="#C38959"/>
<path d="M38.4719 35.9294C38.1945 36.0248 37.9032 36.0734 37.6099 36.0733C36.1513 36.0733 34.9691 34.8911 34.9691 33.4333V29.0241H36.693V33.4333C36.6931 34.5899 37.4367 35.5727 38.4719 35.9294ZM26.5797 25.3527C24.6761 25.3527 23.1328 23.8095 23.1328 21.9058C23.1328 21.6438 23.162 21.3886 23.2174 21.1434C23.6645 19.1631 26.5797 19.4879 26.5797 21.5181H48.6393C48.6393 19.4879 51.5543 19.1632 52.0016 21.1434C52.057 21.3886 52.0862 21.6438 52.0862 21.9058C52.0862 23.8094 50.543 25.3527 48.6393 25.3527" fill="#B17A4A"/>
<path d="M34.9688 29.0244H40.2496V33.0865H34.9688V29.0244Z" fill="#B17A4A"/>
<path d="M26.582 10.603V23.6494C26.582 28.0889 30.1817 31.6885 34.6211 31.6885H40.6026C45.0428 31.6885 48.6417 28.0889 48.6417 23.6494V10.603" fill="#C38959"/>
<path d="M39.6842 31.6886H34.6211C30.1817 31.6886 26.582 28.089 26.582 23.6495V10.603H31.6451V23.6496C31.6451 28.089 35.2447 31.6886 39.6842 31.6886Z" fill="#B17A4A"/>
<path d="M44.1102 25.3188C45.1073 25.3188 45.9156 24.8273 45.9156 24.2209C45.9156 23.6146 45.1073 23.123 44.1102 23.123C43.113 23.123 42.3047 23.6146 42.3047 24.2209C42.3047 24.8273 43.113 25.3188 44.1102 25.3188Z" fill="#E490B7"/>
<path d="M31.1141 25.3188C32.1112 25.3188 32.9195 24.8273 32.9195 24.2209C32.9195 23.6146 32.1112 23.123 31.1141 23.123C30.1169 23.123 29.3086 23.6146 29.3086 24.2209C29.3086 24.8273 30.1169 25.3188 31.1141 25.3188Z" fill="#E490B7"/>
<path d="M46.3911 2.32324H28.8327C27.5897 2.32324 26.582 3.33087 26.582 4.57389V17.3668C27.8427 17.3668 28.8645 16.3448 28.8645 15.0843V12.2943H46.3592V15.0843C46.3592 16.3449 47.3811 17.3668 48.6417 17.3668V4.57389C48.6418 3.33087 47.6341 2.32324 46.3911 2.32324Z" fill="#544F57"/>
<path d="M34.011 2.32324C32.7677 2.32324 31.7603 3.33056 31.7603 4.57399V12.2945H28.8645V15.0839C28.8645 15.7138 28.6088 16.2851 28.1964 16.6982C27.9844 16.9103 27.7328 17.0784 27.4558 17.1931C27.1787 17.3077 26.8818 17.3666 26.582 17.3664V4.57399C26.582 3.33067 27.5894 2.32324 28.8327 2.32324H34.011Z" fill="#454045"/>
<path d="M43.8925 37.0256H43.1135C42.339 37.0256 41.7109 36.3976 41.7109 35.623V33.4414H43.9711C44.7024 33.4414 45.2952 34.0342 45.2952 34.7654V35.623C45.2952 36.3976 44.6671 37.0256 43.8925 37.0256Z" fill="#FFCBBE"/>
<path d="M28.4935 19.8182L10.8454 19.8245L3.11219 19.8269C2.10405 15.6496 -0.3532 6.21779 7.73118 2.6515C13.9526 -0.0933795 20.3328 2.88904 20.3328 2.88904C20.3328 2.88904 34.3567 0.164034 28.4935 19.8182Z" fill="#F4DD45"/>
<path d="M9.90643 17.2433L10.8454 19.8245L3.11219 19.8269C2.10405 15.6496 -0.3532 6.21779 7.73118 2.6515C13.9526 -0.0933795 20.3328 2.88904 20.3328 2.88904C8.60278 2.88904 7.88933 13.0343 9.90643 17.2433Z" fill="#EAB14D"/>
<path d="M18.2964 29.0244V33.4336C18.2964 34.8914 17.1143 36.0736 15.6564 36.0736C14.1978 36.0736 13.0156 34.8914 13.0156 33.4336V29.0244H18.2964Z" fill="#FFCBBE"/>
<path d="M16.5187 35.9294C16.2414 36.0248 15.9501 36.0734 15.6568 36.0733C14.1981 36.0733 13.016 34.8911 13.016 33.4333V29.0241H14.7399V33.4333C14.74 34.5899 15.4836 35.5727 16.5187 35.9294ZM4.62654 25.3527C2.72293 25.3527 1.17969 23.8095 1.17969 21.9058C1.17969 21.6438 1.20888 21.3886 1.2643 21.1434C1.71141 19.1631 4.62654 19.4879 4.62654 21.5181H26.6862C26.6862 19.4879 29.6012 19.1632 30.0484 21.1434C30.1038 21.3886 30.133 21.6438 30.133 21.9058C30.133 23.8094 28.5899 25.3527 26.6862 25.3527" fill="#EAAC9D"/>
<path d="M13.0156 29.0244H18.2964V33.0865H13.0156V29.0244Z" fill="#EAAC9D"/>
<path d="M26.6846 18.0272V23.6496C26.6846 28.089 23.0858 31.6887 18.6455 31.6887H12.6641C8.22468 31.6887 4.625 28.089 4.625 23.6496V18.1853C6.31882 17.9541 8.12061 17.6466 9.90652 17.2431C14.2363 16.2658 18.478 14.7207 20.8875 12.311C20.8875 12.311 22.4161 17.3932 26.6846 18.0272Z" fill="#FFCBBE"/>
<path d="M17.9456 31.6888H12.6641C8.22468 31.6888 4.625 28.0891 4.625 23.6497V18.1854C6.31882 17.9542 8.12061 17.6467 9.90652 17.2432V23.6497C9.90652 28.0891 13.5054 31.6888 17.9456 31.6888Z" fill="#EAAC9D"/>
<path d="M22.1531 25.3188C23.1503 25.3188 23.9586 24.8273 23.9586 24.2209C23.9586 23.6146 23.1503 23.123 22.1531 23.123C21.156 23.123 20.3477 23.6146 20.3477 24.2209C20.3477 24.8273 21.156 25.3188 22.1531 25.3188Z" fill="#E490B7"/>
<path d="M9.15704 25.3188C10.1542 25.3188 10.9625 24.8273 10.9625 24.2209C10.9625 23.6146 10.1542 23.123 9.15704 23.123C8.1599 23.123 7.35156 23.6146 7.35156 24.2209C7.35156 24.8273 8.1599 25.3188 9.15704 25.3188Z" fill="#E490B7"/>
<path d="M31.9535 19.1362C31.3783 19.1362 30.9102 19.9125 30.9102 20.8667C30.9102 21.8209 31.3782 22.5971 31.9535 22.5971C32.5289 22.5971 32.997 21.8209 32.997 20.8667C32.9969 19.9126 32.5289 19.1362 31.9535 19.1362ZM43.2708 22.5971C43.846 22.5971 44.3142 21.8209 44.3142 20.8667C44.3142 19.9126 43.8461 19.1362 43.2708 19.1362C42.6954 19.1362 42.2273 19.9125 42.2273 20.8667C42.2274 21.8209 42.6954 22.5971 43.2708 22.5971ZM40.0027 23.9169C39.8149 23.8377 39.6034 23.8364 39.4147 23.9132C39.226 23.9899 39.0755 24.1385 38.9963 24.3263C38.8819 24.5988 38.6895 24.8315 38.4432 24.995C38.197 25.1585 37.9079 25.2455 37.6123 25.2452C37.3167 25.2455 37.0277 25.1584 36.7815 24.9949C36.5352 24.8314 36.3428 24.5988 36.2284 24.3263C36.1493 24.1385 35.9988 23.9899 35.81 23.9131C35.6213 23.8364 35.4098 23.8377 35.2221 23.9169C35.0343 23.996 34.8857 24.1465 34.8089 24.3353C34.7321 24.524 34.7335 24.7355 34.8126 24.9233C35.0441 25.4745 35.4334 25.9451 35.9315 26.2758C36.4296 26.6064 37.0144 26.7825 37.6123 26.7818C38.2102 26.7825 38.795 26.6065 39.2932 26.2758C39.7913 25.9451 40.1806 25.4745 40.4121 24.9233C40.4912 24.7355 40.4926 24.524 40.4158 24.3353C40.339 24.1465 40.1904 23.996 40.0027 23.9169Z" fill="black"/>
<path d="M41.0193 32.4463C44.8415 32.2668 48.0321 29.6392 49.0592 26.1002C51.1876 25.8893 52.8556 24.0889 52.8556 21.906C52.8556 21.5917 52.8207 21.2783 52.752 20.9744C52.4654 19.7049 51.3602 18.9194 50.0687 19.0635C49.8427 19.0884 49.6209 19.1424 49.4087 19.2242V4.5739C49.4087 2.90937 48.0546 1.55521 46.39 1.55521H28.8311C27.7891 1.55521 26.8479 2.08878 26.3019 2.92535C23.8877 1.72709 21.2498 1.97652 20.434 2.09421C19.2033 1.57324 13.2991 -0.645038 7.42084 1.94835C3.73327 3.57518 1.66168 6.53589 1.26362 10.748C0.971179 13.8424 1.63013 16.9359 2.16001 19.1565C1.34557 19.4048 0.719195 20.064 0.513818 20.974C0.444823 21.2799 0.410055 21.5925 0.410156 21.906C0.410156 24.0887 2.07806 25.8891 4.2062 26.1001C5.23329 29.6393 8.42406 32.267 12.2464 32.4465V32.6731H10.7999C8.46626 32.6731 6.39088 34.1559 5.63575 36.3629C5.60306 36.4583 5.5895 36.5593 5.59584 36.66C5.60218 36.7607 5.6283 36.8591 5.67271 36.9497C5.71711 37.0403 5.77893 37.1213 5.85463 37.188C5.93033 37.2547 6.01844 37.3058 6.1139 37.3385C6.19398 37.3659 6.27805 37.38 6.36271 37.38C6.52291 37.38 6.67907 37.3298 6.80938 37.2366C6.93968 37.1434 7.03761 37.0119 7.08947 36.8603C7.63205 35.2747 9.12316 34.2095 10.8 34.2095H12.3368C12.6891 35.7161 14.0427 36.8419 15.6552 36.8419C17.2676 36.8419 18.6211 35.7161 18.9736 34.2095H28.9656C28.107 35.0401 27.52 36.1487 27.3512 37.389H25.1978C24.994 37.389 24.7986 37.47 24.6546 37.6141C24.5105 37.7581 24.4295 37.9535 24.4295 38.1573V44.6064H10.4599V40.3373C10.4599 39.913 10.116 39.569 9.69166 39.569C9.26729 39.569 8.92342 39.913 8.92342 40.3373V44.6064H6.88081V39.6641C6.88081 39.2398 6.53695 38.8958 6.11257 38.8958C5.68819 38.8958 5.34433 39.2398 5.34433 39.6641V45.3747C5.34433 45.5784 5.42527 45.7738 5.56934 45.9179C5.71341 46.062 5.90882 46.1429 6.11257 46.1429H25.1978C25.4015 46.1429 25.5969 46.062 25.741 45.9179C25.8851 45.7738 25.966 45.5784 25.966 45.3747V38.9255H27.2997V45.3747C27.2997 45.5784 27.3806 45.7738 27.5247 45.9179C27.6688 46.062 27.8642 46.1429 28.0679 46.1429H47.1532C47.3569 46.1429 47.5523 46.062 47.6964 45.9179C47.8405 45.7738 47.9214 45.5784 47.9214 45.3747V38.1276C47.9214 36.464 47.1507 34.8838 45.8515 33.8539C45.5119 33.1562 44.7978 32.6731 43.9711 32.6731H41.0194V32.4463H41.0193ZM35.7386 32.4569H39.4829V33.4334C39.4829 34.4657 38.6431 35.3056 37.6108 35.3056C36.5785 35.3056 35.7387 34.4657 35.7387 33.4334V32.4569H35.7386ZM49.4088 21.5183C49.4088 20.7234 50.1003 20.606 50.2389 20.5905C50.3776 20.5752 51.0783 20.5374 51.2533 21.3129C51.297 21.506 51.3191 21.7055 51.3191 21.906C51.3191 23.1308 50.4926 24.1654 49.3682 24.4833C49.3941 24.2088 49.4087 23.931 49.4087 23.6497L49.4088 21.5183ZM28.8311 3.0917H46.39C47.2086 3.0917 47.8722 3.75526 47.8722 4.5739V16.3888C47.4262 16.125 47.1266 15.6392 47.1266 15.0846V12.2943C47.1266 12.0906 47.0457 11.8952 46.9016 11.7511C46.7575 11.607 46.5621 11.5261 46.3584 11.5261H43.7248C43.5211 11.5261 43.3257 11.607 43.1816 11.7511C43.0375 11.8952 42.9566 12.0906 42.9566 12.2943C42.9566 12.4981 43.0375 12.6935 43.1816 12.8376C43.3257 12.9816 43.5211 13.0626 43.7248 13.0626H45.5901V15.0846C45.5901 16.5013 46.561 17.6954 47.8722 18.0369V23.6498C47.8722 27.6652 44.617 30.9204 40.6016 30.9204H34.6195C31.4967 30.9204 28.7236 28.8895 27.7357 25.9885C29.5531 25.5204 30.8999 23.8676 30.8999 21.9061C30.8999 21.5921 30.8651 21.2787 30.7964 20.9745C30.6171 20.1798 30.1178 19.5748 29.4519 19.2688C30.0926 16.9838 30.4845 14.9139 30.6294 13.0626H40.6196C41.0403 13.0626 41.4071 12.7385 41.4197 12.318C41.4229 12.2152 41.4054 12.1127 41.3682 12.0168C41.331 11.9209 41.275 11.8334 41.2033 11.7595C41.1317 11.6857 41.046 11.6269 40.9512 11.5868C40.8565 11.5467 40.7547 11.5261 40.6518 11.5261H30.6931C30.6982 8.52953 29.9576 6.19684 28.4695 4.55536C28.2029 4.26187 27.9124 3.99109 27.6009 3.74583C27.7367 3.5444 27.9199 3.37941 28.1344 3.26536C28.3489 3.1513 28.5881 3.09167 28.8311 3.0917ZM28.2833 20.5905C28.4224 20.5752 29.1227 20.5375 29.2976 21.3127C29.3413 21.506 29.3634 21.7056 29.3634 21.9061C29.3634 23.1309 28.5368 24.1655 27.4124 24.4834C27.439 24.2063 27.4525 23.9282 27.4529 23.6499V21.5183H27.4531C27.4531 20.7233 28.1448 20.6059 28.2833 20.5905ZM2.79325 10.8927C3.13988 7.22505 4.85654 4.7592 8.04096 3.35423C13.8562 0.788709 19.9474 3.55715 20.0074 3.58512C20.1543 3.65341 20.3188 3.67387 20.4779 3.6436C20.5213 3.63531 24.8566 2.84719 27.3382 5.59504C28.3457 6.71064 28.9415 8.28512 29.1089 10.2748C29.3081 12.6429 28.9015 15.6096 27.9033 19.0963C27.7497 19.1253 27.5989 19.1681 27.4529 19.2243V18.0273C27.4529 17.8431 27.3868 17.665 27.2665 17.5255C27.1462 17.386 26.9798 17.2944 26.7976 17.2673C23.0724 16.714 21.6369 12.1354 21.6232 12.0904C21.5849 11.9632 21.5143 11.848 21.4182 11.7562C21.3221 11.6645 21.2039 11.5992 21.075 11.5667C20.9462 11.5343 20.8111 11.5358 20.683 11.5712C20.5549 11.6065 20.4382 11.6745 20.3442 11.7684C18.4981 13.6147 14.2541 16.0947 4.52087 17.4246C4.33686 17.4497 4.16819 17.5407 4.04608 17.6806C3.92398 17.8206 3.8567 18 3.8567 18.1857V19.2241C3.82095 19.2103 3.78387 19.1985 3.7472 19.1863C3.23033 17.0466 2.50705 13.9204 2.79325 10.8927ZM1.94664 21.906C1.94664 21.7054 1.96877 21.5059 2.0124 21.3128C2.18767 20.537 2.88861 20.5751 3.02679 20.5905C3.16518 20.606 3.85455 20.7232 3.8568 21.5147V23.6499C3.8568 23.9311 3.87145 24.2088 3.89737 24.4833C2.77307 24.1652 1.94664 23.1307 1.94664 21.906ZM5.39319 23.6498V18.8529C10.4928 18.1078 16.872 16.6103 20.5763 13.6201C20.8008 14.1148 21.1205 14.7303 21.5498 15.3629C22.7226 17.0915 24.222 18.2185 25.9165 18.6545V23.6498C25.9165 27.659 22.6548 30.9206 18.6457 30.9206H12.6642C8.65494 30.9206 5.39319 27.659 5.39319 23.6498ZM15.6551 35.3055C14.6228 35.3055 13.7829 34.4656 13.7829 33.4333V32.457H17.5272V33.4333C17.5271 34.4656 16.6873 35.3055 15.6551 35.3055ZM19.0636 32.6732V32.4466C22.4178 32.289 25.2856 30.2461 26.632 27.3566C27.1902 28.5555 28.0158 29.6276 29.0515 30.4737C30.5092 31.6646 32.3241 32.3565 34.202 32.4463V32.6733H19.0636V32.6732ZM46.3849 44.6065H44.4439V40.5417C44.4439 40.1174 44.1001 39.7735 43.6757 39.7735C43.2513 39.7735 42.9074 40.1174 42.9074 40.5417V44.6065H32.3136V40.5417C32.3136 40.1174 31.9697 39.7735 31.5453 39.7735C31.1209 39.7735 30.7771 40.1174 30.7771 40.5417V44.6065H28.8362V38.1277C28.8362 35.9673 30.5942 34.2096 32.7552 34.2096H34.2924C34.6447 35.7162 35.9983 36.842 37.6108 36.842C39.2232 36.842 40.5768 35.7162 40.9292 34.2096H40.9427V35.623C40.9427 36.82 41.9165 37.7939 43.1135 37.7939H43.8925C44.8428 37.7939 45.6505 37.1792 45.9438 36.3273C46.2328 36.8835 46.3841 37.5009 46.3849 38.1277V44.6065ZM44.5269 34.7654V35.623C44.5267 35.7912 44.4598 35.9524 44.3409 36.0714C44.222 36.1903 44.0607 36.2572 43.8925 36.2574H43.1135C42.9453 36.2572 42.7841 36.1903 42.6652 36.0714C42.5462 35.9524 42.4794 35.7912 42.4792 35.623V34.2096H43.9711C44.1185 34.2098 44.2597 34.2684 44.3639 34.3726C44.4681 34.4768 44.5267 34.6181 44.5269 34.7654Z" fill="black"/>
<path d="M36.5367 23.1645H38.685C39.1093 23.1645 39.4532 22.8205 39.4532 22.3962C39.4532 21.972 39.1093 21.628 38.685 21.628H36.5367C36.1124 21.628 35.7685 21.972 35.7685 22.3962C35.7685 22.8205 36.1124 23.1645 36.5367 23.1645ZM9.9965 19.1362C9.42124 19.1362 8.95312 19.9125 8.95312 20.8667C8.95312 21.8209 9.42114 22.5971 9.9965 22.5971C10.5719 22.5971 11.04 21.8209 11.04 20.8667C11.0399 19.9126 10.5719 19.1362 9.9965 19.1362ZM21.3138 22.5971C21.889 22.5971 22.3571 21.8209 22.3571 20.8667C22.3571 19.9126 21.8891 19.1362 21.3138 19.1362C20.7384 19.1362 20.2703 19.9125 20.2703 20.8667C20.2704 21.8209 20.7384 22.5971 21.3138 22.5971ZM15.6554 26.7817C16.2533 26.7824 16.8381 26.6063 17.3362 26.2757C17.8343 25.945 18.2236 25.4744 18.4551 24.9232C18.5308 24.736 18.5299 24.5266 18.4525 24.3402C18.375 24.1538 18.2274 24.0053 18.0414 23.9269C17.8554 23.8485 17.646 23.8464 17.4585 23.9211C17.2709 23.9958 17.1203 24.1413 17.0392 24.3262C16.9249 24.5987 16.7325 24.8313 16.4862 24.9948C16.24 25.1583 15.9509 25.2454 15.6554 25.2451C15.3598 25.2454 15.0707 25.1584 14.8245 24.9949C14.5782 24.8314 14.3858 24.5987 14.2714 24.3262C14.1923 24.1384 14.0417 23.9898 13.853 23.913C13.6643 23.8363 13.4528 23.8376 13.265 23.9168C13.0773 23.9959 12.9287 24.1464 12.8519 24.3352C12.7751 24.5239 12.7764 24.7354 12.8556 24.9232C13.0871 25.4744 13.4764 25.945 13.9745 26.2757C14.4727 26.6063 15.0575 26.7824 15.6554 26.7817ZM14.5811 23.1645H16.7293C17.1537 23.1645 17.4975 22.8205 17.4975 22.3962C17.4975 21.972 17.1537 21.628 16.7293 21.628H14.5811C14.1567 21.628 13.8128 21.972 13.8128 22.3962C13.8128 22.8205 14.1567 23.1645 14.5811 23.1645Z" fill="black"/>
</svg>
