<svg width="22" height="22" viewBox="0 0 22 22" fill="none" xmlns="http://www.w3.org/2000/svg">
<path d="M8.3263 9.10376C9.31554 9.10376 10.1174 8.30184 10.1174 7.31262C10.1174 6.3234 9.31554 5.52148 8.3263 5.52148C7.33708 5.52148 6.53516 6.3234 6.53516 7.31262C6.53516 8.30184 7.33708 9.10376 8.3263 9.10376Z" stroke="white" stroke-width="1.34335" stroke-linecap="round" stroke-linejoin="round"/>
<path d="M11.9099 1.93945H8.32758C3.84973 1.93945 2.05859 3.73059 2.05859 8.20844V13.5819C2.05859 18.0597 3.84973 19.8508 8.32758 19.8508H13.701C18.1788 19.8508 19.97 18.0597 19.97 13.5819V9.10401" stroke="white" stroke-width="1.34335" stroke-linecap="round" stroke-linejoin="round"/>
<path d="M14.3711 4.62598H19.2967" stroke="white" stroke-width="1.34335" stroke-linecap="round"/>
<path d="M16.8359 7.08872V2.16309" stroke="white" stroke-width="1.34335" stroke-linecap="round"/>
<path d="M2.66016 17.1195L7.07531 14.1552C7.78281 13.6805 8.80376 13.7343 9.43958 14.2806L9.73512 14.5403C10.4337 15.1403 11.5621 15.1403 12.2606 14.5403L15.9862 11.3431C16.6847 10.7431 17.8132 10.7431 18.5117 11.3431L19.9715 12.5969" stroke="white" stroke-width="1.34335" stroke-linecap="round" stroke-linejoin="round"/>
</svg>
