<svg width="50" height="50" viewBox="0 0 50 50" fill="none" xmlns="http://www.w3.org/2000/svg">
<path d="M29.224 18.7888C29.5446 17.5682 29.7067 16.3114 29.7062 15.0494C29.7062 6.94116 23.1332 0.368164 15.025 0.368164C6.91674 0.368164 0.34375 6.94116 0.34375 15.0494C0.34375 16.3418 0.512198 17.5949 0.825912 18.7888C0.512198 19.51 0.34375 20.2669 0.34375 21.0477C0.34375 22.0001 0.594987 22.9165 1.05507 23.7764C0.594987 24.6363 0.34375 25.5528 0.34375 26.5052C0.34375 27.4576 0.594987 28.374 1.05507 29.2339C0.594987 30.0938 0.34375 31.0102 0.34375 31.9626C0.34375 32.915 0.594987 33.8314 1.05507 34.6913C0.594987 35.5512 0.34375 36.4676 0.34375 37.42C0.34375 42.3178 6.91674 46.2884 15.025 46.2884C23.1332 46.2884 29.7062 42.3178 29.7062 37.42C29.7062 36.4676 29.455 35.5512 28.9949 34.6913C29.455 33.8314 29.7062 32.915 29.7062 31.9626C29.7062 31.0102 29.455 30.0938 28.9949 29.2339C29.455 28.374 29.7062 27.4576 29.7062 26.5052C29.7062 25.5528 29.455 24.6363 28.9949 23.7764C29.455 22.9165 29.7062 22.0001 29.7062 21.0477C29.7062 20.2669 29.5378 19.51 29.224 18.7888Z" fill="#87796F"/>
<path d="M15.0241 46.6192C6.74632 46.6192 0.0117188 42.4923 0.0117188 37.4197C0.0117188 36.4911 0.236684 35.574 0.681094 34.6909C0.236905 33.8079 0.0117188 32.891 0.0117188 31.9622C0.0117188 31.0337 0.236684 30.1166 0.681094 29.2335C0.236905 28.3504 0.0117188 27.4333 0.0117188 26.5048C0.0117188 25.5762 0.236684 24.6591 0.681094 23.7761C0.236905 22.893 0.0117188 21.9761 0.0117188 21.0473C0.0117188 20.2753 0.168024 19.5072 0.476219 18.7626C0.167641 17.5488 0.011604 16.3014 0.0117188 15.049C0.0117188 6.77122 6.74632 0.0366211 15.0241 0.0366211C23.3019 0.0366211 30.0365 6.77122 30.0365 15.049C30.0365 16.3023 29.8802 17.551 29.5718 18.7626C29.8802 19.5075 30.0365 20.2755 30.0365 21.0473C30.0365 21.9759 29.8113 22.893 29.3671 23.7761C29.8115 24.6591 30.0365 25.5764 30.0365 26.5048C30.0365 27.4333 29.8113 28.3502 29.3671 29.2335C29.8115 30.1168 30.0365 31.0337 30.0365 31.9622C30.0365 32.8908 29.8113 33.8079 29.3671 34.6909C29.8115 35.574 30.0365 36.4913 30.0365 37.4197C30.0365 42.4923 23.3019 46.6192 15.0241 46.6192ZM15.0241 0.698932C7.11147 0.698932 0.674029 7.13637 0.674029 15.049C0.674029 16.284 0.832543 17.5137 1.14537 18.7043C1.16414 18.7763 1.1584 18.8524 1.12882 18.9204C0.827024 19.6143 0.674251 20.3298 0.674251 21.0473C0.674251 21.9207 0.900319 22.7863 1.34628 23.6197C1.39838 23.7173 1.39838 23.8346 1.34628 23.9321C0.900319 24.7658 0.674251 25.6314 0.674251 26.5048C0.674251 27.3781 0.900319 28.2436 1.34628 29.0772C1.39838 29.1748 1.39838 29.292 1.34628 29.3896C0.900319 30.2232 0.674251 31.0888 0.674251 31.962C0.674251 32.8354 0.900319 33.7008 1.34628 34.5344C1.39838 34.632 1.39838 34.7492 1.34628 34.8468C0.900319 35.6804 0.674251 36.5461 0.674251 37.4194C0.674251 42.1269 7.11169 45.9566 15.0243 45.9566C22.9369 45.9566 29.3744 42.1269 29.3744 37.4194C29.3744 36.5463 29.1483 35.6806 28.7021 34.8468C28.6765 34.7987 28.6631 34.7451 28.6631 34.6906C28.6631 34.6361 28.6765 34.5825 28.7021 34.5344C29.1483 33.7008 29.3744 32.8351 29.3744 31.962C29.3744 31.0888 29.1483 30.2232 28.7021 29.3896C28.6765 29.3415 28.6631 29.2879 28.6631 29.2334C28.6631 29.1789 28.6765 29.1253 28.7021 29.0772C29.1483 28.2433 29.3744 27.3779 29.3744 26.5048C29.3744 25.6316 29.1483 24.766 28.7021 23.9321C28.6765 23.8841 28.6631 23.8304 28.6631 23.7759C28.6631 23.7215 28.6765 23.6678 28.7021 23.6197C29.1483 22.7861 29.3744 21.9205 29.3744 21.0473C29.3744 20.3303 29.2214 19.6145 28.9196 18.9204C28.89 18.8523 28.8841 18.7762 28.903 18.7043C29.216 17.5111 29.3744 16.2826 29.3744 15.049C29.3742 7.13637 22.9369 0.698932 15.0241 0.698932Z" fill="#3A312A"/>
<path d="M22.9638 37.1923H18.6499V33.042H11.4005V37.1923H7.08419C3.47791 37.1923 0.554688 40.1139 0.554688 43.7182V49.6322H29.4933V43.7182C29.4933 40.1139 26.57 37.1923 22.9638 37.1923Z" fill="#F8E4C8"/>
<path d="M29.4924 49.963H0.553812C0.465984 49.963 0.381753 49.9281 0.319649 49.866C0.257545 49.8039 0.222656 49.7197 0.222656 49.6318V43.7178C0.222656 39.9369 3.30019 36.8607 7.08331 36.8607H11.0687V33.0416C11.0687 32.9538 11.1035 32.8695 11.1657 32.8074C11.2278 32.7453 11.312 32.7104 11.3998 32.7104H18.649C18.7369 32.7104 18.8211 32.7453 18.8832 32.8074C18.9453 32.8695 18.9802 32.9538 18.9802 33.0416V36.8607H22.9631C26.746 36.8607 29.8238 39.9369 29.8238 43.7178V49.6318C29.8237 49.7197 29.7888 49.8039 29.7266 49.866C29.6645 49.9281 29.5802 49.963 29.4924 49.963ZM0.884967 49.3007H29.1612V43.7178C29.1612 40.3021 26.3806 37.523 22.9629 37.523H18.649C18.5612 37.523 18.477 37.4881 18.4149 37.426C18.3528 37.3639 18.3179 37.2797 18.3179 37.1919V33.3728H11.7308V37.1919C11.7308 37.2797 11.6959 37.3639 11.6338 37.426C11.5717 37.4881 11.4874 37.523 11.3996 37.523H7.08309C3.66535 37.523 0.884746 40.3021 0.884746 43.7178L0.884967 49.3007Z" fill="#3A312A"/>
<path d="M0.554688 44.6382H29.4933V49.6318H0.554688V44.6382Z" fill="#87796F"/>
<path d="M29.4924 49.9635H0.553812C0.465984 49.9635 0.381753 49.9286 0.319649 49.8665C0.257545 49.8044 0.222656 49.7202 0.222656 49.6324V44.6388C0.222656 44.5509 0.257545 44.4667 0.319649 44.4046C0.381753 44.3425 0.465984 44.3076 0.553812 44.3076H29.4924C29.5802 44.3076 29.6644 44.3425 29.7265 44.4046C29.7886 44.4667 29.8235 44.5509 29.8235 44.6388V49.6324C29.8235 49.7202 29.7886 49.8044 29.7265 49.8665C29.6644 49.9286 29.5802 49.9635 29.4924 49.9635ZM0.884967 49.3012H29.1612V44.9699H0.884967V49.3012Z" fill="#3A312A"/>
<path d="M9.75396 39.7617L8.77397 37.1919H7.08507C3.47769 37.1919 0.554688 40.1127 0.554688 43.7179V49.6323H13.5183L11.1408 43.3982L9.75396 39.7617Z" fill="#EF6D7A"/>
<path d="M13.5174 49.9636H0.553812C0.465984 49.9636 0.381753 49.9287 0.319649 49.8666C0.257545 49.8045 0.222656 49.7202 0.222656 49.6324V43.718C0.222656 39.9368 3.30064 36.8608 7.0842 36.8608H8.77309C8.91041 36.8608 9.0336 36.9456 9.08239 37.0739L10.0624 39.6439C10.093 39.7258 10.0899 39.8165 10.0539 39.8961C10.0179 39.9758 9.95186 40.038 9.87017 40.0691C9.78848 40.1003 9.69778 40.0979 9.61786 40.0624C9.53794 40.027 9.47529 39.9613 9.44357 39.8799L8.54481 37.5232H7.08398C3.66579 37.5232 0.884746 40.3022 0.884746 43.718V49.3012H13.0364L10.8302 43.5162C10.8144 43.4755 10.8067 43.432 10.8078 43.3884C10.8088 43.3447 10.8184 43.3017 10.8361 43.2617C10.8538 43.2218 10.8793 43.1858 10.911 43.1557C10.9427 43.1257 10.98 43.1022 11.0208 43.0866C11.0616 43.0711 11.1051 43.0637 11.1488 43.065C11.1924 43.0663 11.2354 43.0763 11.2752 43.0943C11.315 43.1123 11.3509 43.138 11.3807 43.1699C11.4105 43.2018 11.4338 43.2393 11.449 43.2802L13.8265 49.5145C13.8456 49.5646 13.8522 49.6186 13.8459 49.6719C13.8395 49.7251 13.8202 49.776 13.7898 49.8202C13.7594 49.8643 13.7188 49.9005 13.6713 49.9254C13.6239 49.9504 13.5711 49.9635 13.5174 49.9636Z" fill="#3A312A"/>
<path d="M18.9025 43.4145L16.5312 49.6323H29.4949V43.7179C29.4949 40.1127 26.5719 37.1919 22.9645 37.1919H21.2756L20.2892 39.7782L18.9025 43.4145Z" fill="#EF6D7A"/>
<path d="M29.4941 49.9636H16.5305C16.4768 49.9636 16.4239 49.9507 16.3763 49.9257C16.3288 49.9008 16.288 49.8646 16.2575 49.8204C16.2271 49.7761 16.2079 49.7252 16.2015 49.6718C16.1952 49.6185 16.2019 49.5644 16.2212 49.5143L18.5925 43.2963C18.6242 43.2148 18.6869 43.1492 18.7668 43.1137C18.8467 43.0783 18.9374 43.0759 19.0191 43.107C19.1008 43.1382 19.1668 43.2004 19.2028 43.28C19.2389 43.3597 19.2419 43.4504 19.2113 43.5323L17.0113 49.301H29.1632V43.7177C29.1632 40.302 26.3822 37.5229 22.964 37.5229H21.5031L20.598 39.8962C20.5827 39.9371 20.5595 39.9746 20.5296 40.0065C20.4998 40.0384 20.4639 40.0641 20.4241 40.0821C20.3843 40.1001 20.3414 40.11 20.2977 40.1114C20.254 40.1127 20.2106 40.1053 20.1697 40.0898C20.1289 40.0742 20.0916 40.0507 20.0599 40.0207C20.0282 39.9906 20.0028 39.9546 19.985 39.9146C19.9673 39.8747 19.9577 39.8317 19.9567 39.788C19.9557 39.7443 19.9633 39.7009 19.9792 39.6602L20.9656 37.0739C20.9895 37.0112 21.0318 36.9573 21.0871 36.9193C21.1423 36.8812 21.2078 36.8609 21.2749 36.8608H22.9637C26.7473 36.8608 29.8253 39.9371 29.8253 43.718V49.6324C29.8253 49.7202 29.7904 49.8045 29.7283 49.8666C29.6662 49.9287 29.582 49.9636 29.4941 49.9636Z" fill="#3A312A"/>
<path fill-rule="evenodd" clip-rule="evenodd" d="M6.38062 21.0143C6.38062 22.4325 5.2304 23.5821 3.81129 23.5821C2.3924 23.5821 1.24219 22.4325 1.24219 21.0143C1.24219 19.5961 2.3924 18.4463 3.81129 18.4463C5.2304 18.4465 6.38062 19.5961 6.38062 21.0143Z" fill="#F8E4C8"/>
<path d="M3.81042 23.9133C2.21116 23.9133 0.910156 22.6128 0.910156 21.0144C0.910156 19.416 2.21138 18.1152 3.81042 18.1152C5.40968 18.1152 6.7109 19.4158 6.7109 21.0144C6.7109 22.613 5.40968 23.9133 3.81042 23.9133ZM3.81042 18.7773C2.57631 18.7773 1.57247 19.7807 1.57247 21.0142C1.57247 22.2474 2.57631 23.2508 3.81042 23.2508C5.04452 23.2508 6.04858 22.2474 6.04858 21.0142C6.04836 19.7807 5.04452 18.7773 3.81042 18.7773Z" fill="#3A312A"/>
<path d="M28.8033 21.0178C28.806 19.5996 27.658 18.4478 26.2391 18.4451C24.8202 18.4423 23.6678 19.5898 23.6651 21.0079C23.6624 22.4261 24.8104 23.5779 26.2293 23.5806C27.6481 23.5833 28.8006 22.4359 28.8033 21.0178Z" fill="#F8E4C8"/>
<path d="M26.2364 23.9133C24.6372 23.9133 23.3359 22.6128 23.3359 21.0144C23.3359 19.416 24.6372 18.1152 26.2364 18.1152C27.8357 18.1152 29.1367 19.4158 29.1367 21.0144C29.1367 22.613 27.8357 23.9133 26.2364 23.9133ZM26.2364 18.7773C25.0023 18.7773 23.9982 19.7807 23.9982 21.0142C23.9982 22.2474 25.0023 23.2508 26.2364 23.2508C27.4705 23.2508 28.4744 22.2474 28.4744 21.0142C28.4746 19.7807 27.4705 18.7773 26.2364 18.7773Z" fill="#3A312A"/>
<path d="M26.4158 19.7679C26.4158 26.055 20.3579 35.705 15.0263 35.705C9.93728 35.705 3.63672 26.055 3.63672 19.7679C3.63672 13.4808 8.73607 8.38428 15.0263 8.38428C21.3164 8.38428 26.4158 13.4808 26.4158 19.7679Z" fill="#F8E4C8"/>
<path d="M15.0252 36.0356C12.5845 36.0356 9.64035 33.8846 7.14962 30.2819C4.77789 26.8513 3.30469 22.8223 3.30469 19.7675C3.30469 13.308 8.56255 8.05273 15.0254 8.05273C21.4882 8.05273 26.7461 13.308 26.7461 19.7675C26.7461 22.8572 25.308 26.8853 22.9932 30.2801C20.4987 33.9378 17.5945 36.0356 15.0252 36.0356ZM15.0252 8.71482C8.92749 8.71482 3.96678 13.6729 3.96678 19.7672C3.96678 22.6949 5.39516 26.5796 7.69426 29.905C10.0614 33.3289 12.802 35.3731 15.0249 35.3731C17.3375 35.3731 20.1115 33.3296 22.4455 29.9068C24.6894 26.616 26.0833 22.7309 26.0833 19.7672C26.0835 13.6731 21.1226 8.71482 15.0252 8.71482Z" fill="#3A312A"/>
<path d="M12.1162 19.6397C12.1162 20.2534 11.6186 20.7508 11.0046 20.7508C10.8568 20.7538 10.7099 20.7272 10.5725 20.6727C10.4352 20.6182 10.31 20.5368 10.2045 20.4333C10.0989 20.3298 10.0151 20.2064 9.95782 20.0701C9.90058 19.9338 9.87109 19.7875 9.87109 19.6397C9.87109 19.4919 9.90058 19.3455 9.95782 19.2093C10.0151 19.073 10.0989 18.9495 10.2045 18.846C10.31 18.7426 10.4352 18.6612 10.5725 18.6067C10.7099 18.5522 10.8568 18.5256 11.0046 18.5285C11.1505 18.5285 11.2951 18.5572 11.4299 18.6131C11.5648 18.6689 11.6873 18.7507 11.7905 18.8539C11.8937 18.9571 11.9756 19.0796 12.0315 19.2144C12.0874 19.3492 12.1162 19.4937 12.1162 19.6397ZM20.1586 19.6397C20.1586 20.2534 19.661 20.7508 19.047 20.7508C18.8993 20.7538 18.7524 20.7272 18.615 20.6727C18.4776 20.6182 18.3525 20.5368 18.2469 20.4333C18.1414 20.3298 18.0575 20.2064 18.0003 20.0701C17.943 19.9338 17.9135 19.7875 17.9135 19.6397C17.9135 19.4919 17.943 19.3455 18.0003 19.2093C18.0575 19.073 18.1414 18.9495 18.2469 18.846C18.3525 18.7426 18.4776 18.6612 18.615 18.6067C18.7524 18.5522 18.8993 18.5256 19.047 18.5285C19.193 18.5285 19.3375 18.5572 19.4724 18.6131C19.6072 18.6689 19.7297 18.7507 19.833 18.8539C19.9362 18.9571 20.0181 19.0796 20.0739 19.2144C20.1298 19.3492 20.1586 19.4937 20.1586 19.6397Z" fill="#3A312A"/>
<path d="M8.78215 24.3733C9.83975 24.3733 10.6971 23.7327 10.6971 22.9425C10.6971 22.1523 9.83975 21.5117 8.78215 21.5117C7.72455 21.5117 6.86719 22.1523 6.86719 22.9425C6.86719 23.7327 7.72455 24.3733 8.78215 24.3733Z" fill="#F59689"/>
<path d="M21.2665 24.3733C22.3241 24.3733 23.1815 23.7327 23.1815 22.9425C23.1815 22.1523 22.3241 21.5117 21.2665 21.5117C20.2089 21.5117 19.3516 22.1523 19.3516 22.9425C19.3516 23.7327 20.2089 24.3733 21.2665 24.3733Z" fill="#F59689"/>
<path d="M5.84287 49.9642C5.75505 49.9642 5.67082 49.9293 5.60871 49.8672C5.54661 49.8051 5.51172 49.7208 5.51172 49.633V44.9589C5.51172 44.871 5.54661 44.7868 5.60871 44.7247C5.67082 44.6626 5.75505 44.6277 5.84287 44.6277C5.9307 44.6277 6.01493 44.6626 6.07704 44.7247C6.13914 44.7868 6.17403 44.871 6.17403 44.9589V49.633C6.17403 49.7208 6.13914 49.8051 6.07704 49.8672C6.01493 49.9293 5.9307 49.9642 5.84287 49.9642ZM24.2039 49.9642C24.1161 49.9642 24.0318 49.9293 23.9697 49.8672C23.9076 49.8051 23.8727 49.7208 23.8727 49.633V44.9589C23.8727 44.871 23.9076 44.7868 23.9697 44.7247C24.0318 44.6626 24.1161 44.6277 24.2039 44.6277C24.2917 44.6277 24.376 44.6626 24.4381 44.7247C24.5002 44.7868 24.5351 44.871 24.5351 44.9589V49.633C24.5351 49.7208 24.5002 49.8051 24.4381 49.8672C24.376 49.9293 24.2917 49.9642 24.2039 49.9642ZM15.0234 29.333C13.4153 29.333 12.2558 28.6108 11.5774 27.1862C11.5578 27.1468 11.5462 27.104 11.5434 27.0601C11.5406 27.0162 11.5465 26.9722 11.5608 26.9307C11.5752 26.8891 11.5976 26.8508 11.6269 26.818C11.6562 26.7852 11.6918 26.7586 11.7315 26.7397C11.7711 26.7208 11.8142 26.71 11.8581 26.7079C11.902 26.7058 11.9459 26.7125 11.9872 26.7275C12.0285 26.7426 12.0664 26.7657 12.0987 26.7956C12.131 26.8254 12.157 26.8614 12.1752 26.9014C12.7424 28.092 13.674 28.6706 15.0234 28.6706C16.7509 28.6706 17.6347 27.5306 17.8605 26.9277C17.8755 26.8866 17.8985 26.8489 17.9281 26.8167C17.9578 26.7846 17.9935 26.7586 18.0332 26.7403C18.0729 26.722 18.1159 26.7118 18.1596 26.7102C18.2033 26.7086 18.2469 26.7157 18.2878 26.7311C18.3288 26.7464 18.3663 26.7697 18.3982 26.7997C18.4301 26.8296 18.4557 26.8655 18.4737 26.9054C18.4916 26.9453 18.5014 26.9884 18.5026 27.0321C18.5038 27.0758 18.4964 27.1193 18.4806 27.1601C18.0886 28.2066 16.8392 29.333 15.0234 29.333Z" fill="#3A312A"/>
<path d="M27.9871 15.5955C27.9884 16.7342 27.8409 17.8681 27.5484 18.9686C24.6311 17.563 21.8563 15.8372 19.2854 13.8863C18.5313 13.3149 17.7888 12.7199 17.0797 12.0894C16.2094 11.3262 15.3864 10.5036 14.6439 9.61237C13.0288 7.66849 11.843 5.43562 10.8398 3.11002C12.1393 2.69041 13.4967 2.47764 14.8623 2.4795C18.6167 2.4795 22.0035 4.0558 24.3965 6.58274C26.6234 8.93196 27.9871 12.1038 27.9871 15.5955Z" fill="#87796F"/>
<path d="M27.5478 19.2999C27.4986 19.2999 27.4496 19.2888 27.4041 19.267C24.5383 17.8861 21.7391 16.1645 19.0846 14.1502C18.2377 13.5086 17.5096 12.9154 16.859 12.337C15.9309 11.5232 15.0992 10.6772 14.3888 9.82441C12.9503 8.09313 11.7257 6.00155 10.5348 3.24148C10.5166 3.19913 10.5074 3.15344 10.5078 3.10733C10.5083 3.06122 10.5183 3.01571 10.5373 2.9737C10.5563 2.9317 10.5839 2.89411 10.6182 2.86336C10.6526 2.8326 10.693 2.80935 10.7368 2.79508C12.0693 2.36491 13.4611 2.14671 14.8613 2.14845C18.5956 2.14845 22.067 3.6424 24.6359 6.35523C27.0098 8.8592 28.3174 12.141 28.3174 15.5953C28.3174 16.7707 28.166 17.9344 27.8675 19.0539C27.8487 19.1244 27.8072 19.1867 27.7494 19.2311C27.6916 19.2756 27.6207 19.2998 27.5478 19.2999ZM11.291 3.31743C12.4094 5.85099 13.5605 7.79068 14.8981 9.40075C15.5863 10.2269 16.3936 11.0479 17.2975 11.8405C17.9366 12.4087 18.6514 12.9911 19.4848 13.6223C21.9912 15.5243 24.6272 17.161 27.3257 18.4919C27.5457 17.5421 27.6564 16.5703 27.6558 15.5953C27.6558 12.3112 26.4128 9.19124 24.1557 6.81068C21.7129 4.2312 18.4123 2.81054 14.8617 2.81054C13.6534 2.80926 12.4511 2.97993 11.291 3.31743Z" fill="#3A312A"/>
<path d="M24.3953 6.58323C22.1375 8.64081 19.6803 10.4613 17.0785 12.0899C12.4655 14.9796 7.40679 17.2599 2.22928 19.1587C1.9024 17.9994 1.73717 16.8005 1.73829 15.596C1.73829 9.75504 5.55916 4.80559 10.8384 3.11051C12.1379 2.6909 13.4953 2.47813 14.8609 2.47999C18.6153 2.47999 22.0021 4.05629 24.3953 6.58323Z" fill="#87796F"/>
<path d="M2.22818 19.4895C2.15605 19.4896 2.08587 19.4661 2.02834 19.4226C1.97082 19.379 1.92913 19.3179 1.90961 19.2484C1.57467 18.0597 1.40529 16.8305 1.40625 15.5956C1.40625 9.7308 5.15582 4.58641 10.7364 2.79486C12.0687 2.36482 13.4603 2.14669 14.8602 2.14845C18.5945 2.14845 22.0659 3.6424 24.6348 6.35523C24.665 6.38724 24.6885 6.42493 24.704 6.46611C24.7195 6.50729 24.7266 6.55114 24.725 6.5951C24.7234 6.63907 24.713 6.68227 24.6945 6.7222C24.6761 6.76212 24.6498 6.79798 24.6174 6.82768C22.4474 8.80511 19.9697 10.6697 17.2534 12.3701C13.0278 15.0169 8.15034 17.3392 2.34254 19.4692C2.30589 19.4825 2.26719 19.4894 2.22818 19.4895ZM14.86 2.81076C13.5177 2.81076 12.1986 3.01762 10.9396 3.42516C5.63312 5.12863 2.06834 10.0196 2.06834 15.5953C2.06834 16.6555 2.19794 17.7055 2.45425 18.7219C8.0691 16.6422 12.798 14.3793 16.9015 11.8087C19.4792 10.1951 21.8377 8.43312 23.9173 6.56739C21.5003 4.142 18.2974 2.81076 14.86 2.81076Z" fill="#3A312A"/>
<path d="M29.1602 43.7178V49.301H25.8487V43.7178C25.8487 42.0112 25.1532 40.4614 24.0295 39.3399C23.2981 38.6076 22.3949 38.0702 21.4023 37.7768L21.4995 37.5229H22.961C24.6697 37.5229 26.2196 38.2184 27.3411 39.3399C28.4648 40.4614 29.1602 42.0112 29.1602 43.7178Z" fill="#D34E5C"/>
<path d="M40.9456 2.55859C40.9456 2.55859 41.698 5.35333 43.8646 5.48292C43.8646 5.48292 40.9726 6.4819 40.9238 8.6183C40.9238 8.6183 40.3544 5.622 38.0703 5.51449C38.0703 5.51471 40.7308 5.11158 40.9456 2.55859Z" fill="#D7E057"/>
<path d="M40.9223 8.94921C40.8453 8.94916 40.7708 8.92231 40.7115 8.87328C40.6522 8.82425 40.6118 8.7561 40.5973 8.68053C40.592 8.65316 40.0465 5.93901 38.0534 5.8454C37.9714 5.84142 37.8938 5.80712 37.8356 5.74916C37.7775 5.6912 37.743 5.61371 37.7387 5.53172C37.7345 5.44973 37.7609 5.36909 37.8127 5.30545C37.8646 5.24181 37.9382 5.19969 38.0194 5.18728C38.1167 5.17205 40.4245 4.78615 40.6143 2.53098C40.6208 2.45334 40.6545 2.38049 40.7094 2.32524C40.7644 2.26998 40.837 2.23586 40.9146 2.22887C40.9922 2.22189 41.0698 2.24248 41.1337 2.28704C41.1976 2.33159 41.2438 2.39725 41.264 2.47247C41.2711 2.49808 41.9835 5.03893 43.8833 5.15262C43.9598 5.15718 44.0323 5.18812 44.0885 5.24017C44.1448 5.29222 44.1812 5.36215 44.1916 5.43806C44.2021 5.51397 44.1859 5.59115 44.1458 5.65645C44.1057 5.72175 44.0442 5.77113 43.9718 5.79617C43.9451 5.80544 41.2965 6.74791 41.2534 8.62622C41.2516 8.7079 41.2196 8.786 41.1636 8.84547C41.1076 8.90495 41.0315 8.94159 40.9501 8.94833C40.9408 8.94877 40.9316 8.94921 40.9223 8.94921ZM39.2133 5.47671C40.0695 5.91141 40.5887 6.74526 40.8883 7.43649C41.3356 6.54855 42.1999 5.93812 42.864 5.57606C41.9513 5.1694 41.3665 4.32849 41.0243 3.6505C40.6282 4.61284 39.8604 5.16653 39.2133 5.47671Z" fill="#3A312A"/>
<path d="M36.1548 6.30762C36.1548 6.30762 36.6871 8.2844 38.2195 8.37601C38.2195 8.37601 36.1738 9.0827 36.1394 10.5937C36.1394 10.5937 35.7367 8.47426 34.1211 8.39831C34.1211 8.39831 36.0027 8.1133 36.1548 6.30762Z" fill="#D7E057"/>
<path d="M36.1388 10.9248C36.0618 10.9247 35.9872 10.8978 35.9278 10.8486C35.8685 10.7994 35.8282 10.7311 35.8138 10.6555C35.8103 10.6373 35.4376 8.79171 34.1053 8.72901C34.0231 8.7253 33.9452 8.69111 33.8868 8.63311C33.8284 8.57511 33.7937 8.49745 33.7895 8.41527C33.7853 8.33309 33.8118 8.25227 33.8639 8.18857C33.9159 8.12486 33.9899 8.08284 34.0713 8.07067C34.1366 8.0603 35.697 7.79626 35.8246 6.27934C35.8312 6.20172 35.8649 6.1289 35.9198 6.07367C35.9748 6.01845 36.0474 5.98436 36.125 5.9774C36.2026 5.97044 36.2802 5.99105 36.3441 6.03562C36.408 6.08018 36.4541 6.14585 36.4744 6.22106C36.4836 6.2544 36.972 7.96956 38.239 8.04529C38.3156 8.04963 38.3883 8.08048 38.4447 8.13255C38.5011 8.18461 38.5377 8.25466 38.5481 8.3307C38.5585 8.40674 38.5422 8.48404 38.5019 8.54937C38.4616 8.6147 38.3999 8.664 38.3273 8.68883C38.3094 8.69501 36.4989 9.34054 36.4702 10.6011C36.4681 10.6877 36.4323 10.77 36.3704 10.8305C36.3085 10.891 36.2254 10.9248 36.1388 10.9248ZM35.1411 8.37975C35.6063 8.67404 35.9189 9.12905 36.1229 9.54542C36.4267 9.05244 36.8989 8.6906 37.3071 8.44753C36.8022 8.16737 36.4496 7.70795 36.2163 7.29422C35.9575 7.79913 35.5509 8.14993 35.1411 8.37975Z" fill="#3A312A"/>
<path d="M36.1548 0.422363C36.1548 0.422363 36.6871 2.39914 38.2195 2.49076C38.2195 2.49076 36.1738 3.19745 36.1394 4.7084C36.1394 4.7084 35.7367 2.589 34.1211 2.51306C34.1211 2.51306 36.0027 2.22826 36.1548 0.422363Z" fill="#D7E057"/>
<path d="M36.1378 5.03952C36.0608 5.03944 35.9862 5.0125 35.9269 4.96333C35.8676 4.91417 35.8273 4.84587 35.8129 4.77018C35.8093 4.75208 35.4367 2.90644 34.1043 2.84374C34.0223 2.8398 33.9447 2.80553 33.8865 2.74759C33.8283 2.68965 33.7938 2.61216 33.7895 2.53016C33.7852 2.44816 33.8116 2.36751 33.8634 2.30384C33.9153 2.24018 33.9889 2.19805 34.0701 2.18562C34.1355 2.17525 35.6959 1.91121 35.8235 0.394293C35.8301 0.316766 35.8638 0.244045 35.9187 0.188888C35.9736 0.133731 36.0461 0.099661 36.1236 0.0926544C36.2011 0.0856479 36.2786 0.106152 36.3425 0.150571C36.4064 0.19499 36.4526 0.260485 36.473 0.335568C36.4778 0.353009 36.9648 2.08407 38.2378 2.16023C38.3143 2.16483 38.3868 2.1958 38.443 2.24787C38.4992 2.29993 38.5356 2.36987 38.546 2.44577C38.5564 2.52167 38.5402 2.59884 38.5001 2.66412C38.46 2.7294 38.3985 2.77875 38.3261 2.80378C38.3082 2.80996 36.4977 3.45549 36.469 4.71587C36.467 4.80239 36.4313 4.88471 36.3694 4.9452C36.3075 5.00569 36.2244 5.03954 36.1378 5.03952ZM35.1402 2.4947C35.6053 2.78899 35.918 3.244 36.1219 3.66037C36.4257 3.16761 36.898 2.80555 37.3064 2.5627C36.8015 2.28254 36.4489 1.82312 36.2156 1.40939C35.9566 1.91408 35.5499 2.26488 35.1402 2.4947Z" fill="#3A312A"/>
<path d="M46.0137 24.2486C44.0401 23.5687 41.048 24.2237 39.7659 26.0336C39.7629 26.0336 38.293 30.8667 38.293 30.8667L40.8928 35.4662L38.5853 37.4443L39.7278 42.1816C40.0133 42.1898 40.2933 42.1024 40.5236 41.9335C41.1438 41.4771 41.9796 40.8603 42.3779 40.5594C45.3424 38.321 49.2306 34.3332 49.6174 30.326C49.8651 27.7638 48.5261 25.1145 46.0137 24.2486Z" fill="#E96C7A"/>
<path d="M39.7596 42.5138L39.7185 42.5131C39.6457 42.5112 39.5755 42.4854 39.5188 42.4396C39.4621 42.3938 39.4221 42.3305 39.405 42.2597L38.2626 37.5224C38.2483 37.4631 38.2506 37.4009 38.2694 37.3429C38.2882 37.2848 38.3226 37.2331 38.369 37.1934L40.4696 35.3926L38.0038 31.0302C37.9817 30.9911 37.9678 30.948 37.9629 30.9034C37.958 30.8588 37.9622 30.8137 37.9753 30.7708L39.2172 26.6927C39.3602 26.2238 39.4951 25.8427 39.4951 25.8427C40.901 23.8582 44.115 23.2447 46.1211 23.9362C48.6544 24.8091 50.2276 27.4499 49.9468 30.3584C49.8272 31.5984 48.9419 36.018 42.5773 40.8242C41.9602 41.2858 41.341 41.7446 40.7197 42.2005C40.441 42.404 40.1048 42.5137 39.7596 42.5138ZM38.9538 37.5643L39.9817 41.8263C40.1063 41.7972 40.2236 41.7431 40.3265 41.6671C40.9456 41.2114 41.7799 40.5957 42.1777 40.2955C45.3813 37.8763 48.9315 33.9788 49.2872 30.2948C49.5344 27.7336 48.112 25.3228 45.905 24.5623C43.7041 23.8039 41.0796 24.8045 40.0649 26.1847C39.9444 26.575 39.124 29.27 38.65 30.8279L41.1798 35.3038C41.2176 35.3707 41.231 35.4485 41.2177 35.5241C41.2044 35.5997 41.1653 35.6683 41.107 35.7182L38.9538 37.5643Z" fill="#3A312A"/>
<path d="M38.6588 35.4661L36.059 30.8666L37.5143 26.02C36.2268 24.2207 33.2461 23.5704 31.2775 24.2486C28.7652 25.1142 27.4262 27.7634 27.6737 30.3257C28.0605 34.3329 31.9487 38.3207 34.9132 40.5591C35.3115 40.8598 36.1435 41.4764 36.7628 41.9327C36.9751 42.0887 37.2303 42.1756 37.4938 42.1813L36.3513 37.444L38.6588 35.4661Z" fill="#E96C7A"/>
<path d="M37.4949 42.5128L37.4865 42.5126C37.1552 42.5053 36.8341 42.396 36.5672 42.1995C35.9468 41.7423 35.1134 41.1246 34.7145 40.8234C28.3499 36.0177 27.4646 31.5979 27.3448 30.3578C27.0642 27.4494 28.6374 24.8085 31.1705 23.9356C33.1667 23.2479 36.3734 23.8557 37.7845 25.8274C37.814 25.8685 37.8336 25.9159 37.8419 25.9658C37.8502 26.0157 37.847 26.0668 37.8324 26.1153L36.4177 30.8267L38.948 35.3033C38.9858 35.3701 38.9992 35.448 38.9859 35.5236C38.9726 35.5992 38.9335 35.6678 38.8751 35.7177L36.7215 37.5638L37.8168 42.1039C37.8408 42.2039 37.8172 42.3097 37.7523 42.3896C37.7213 42.4281 37.6821 42.4591 37.6376 42.4804C37.593 42.5017 37.5443 42.5128 37.4949 42.5128ZM32.981 24.3169C32.4072 24.3169 31.8588 24.399 31.3862 24.5617C29.1791 25.3223 27.7569 27.7331 28.004 30.2942C28.3596 33.9785 31.9096 37.8759 35.1134 40.2949C35.5108 40.5952 36.3416 41.2107 36.96 41.6663C36.9867 41.686 37.0143 41.7043 37.0427 41.7209L36.0301 37.5218C36.0158 37.4625 36.0181 37.4004 36.0369 37.3423C36.0557 37.2843 36.0902 37.2326 36.1365 37.1929L38.2371 35.392L35.7713 31.0296C35.7493 30.9908 35.7354 30.9479 35.7305 30.9035C35.7255 30.8592 35.7296 30.8143 35.7424 30.7715L37.1496 26.085C36.2144 24.8982 34.5081 24.3169 32.981 24.3169Z" fill="#3A312A"/>
</svg>
