<svg width="1439" height="772" viewBox="0 0 1439 772" fill="none" xmlns="http://www.w3.org/2000/svg">
<path d="M1438.92 21.0256C1431.8 17.8909 1424.61 16.2928 1417.63 15.924C1365.31 13.3424 1321.23 63.4984 1181.73 52.0043C1146.05 49.054 1055.27 26.1273 1012.61 16.6616C909.538 -6.20367 810.513 -0.73323 746.645 7.56463C701.967 13.4039 640.873 26.5575 625.206 28.6474C516.285 43.4606 433.976 34.1178 391.173 26.2502C378.204 23.853 336 14.6332 312.462 11.6828C140.048 -9.83015 32.4769 33.6261 -0.281738 49.7915V752.484C5.79023 754.759 11.8622 755.988 17.8592 756.295C70.183 758.877 114.261 708.721 253.766 720.215C289.448 723.165 380.228 746.092 422.882 755.558C525.955 778.423 624.981 772.952 688.849 764.655C733.526 758.815 794.621 745.662 810.288 743.572C897.245 731.77 967.185 735.335 1013.66 741.236C1054.07 746.399 1107.51 758.631 1122.88 760.536C1301.44 782.848 1410.51 735.458 1439 720.891V21.0256H1438.92Z" fill="url(#paint0_linear_757_715)"/>
<defs>
<linearGradient id="paint0_linear_757_715" x1="719.359" y1="0.386719" x2="719.359" y2="771.832" gradientUnits="userSpaceOnUse">
<stop stop-color="#FA5054"/>
<stop offset="1" stop-color="#FD7A42"/>
</linearGradient>
</defs>
</svg>
