<svg width="17" height="17" viewBox="0 0 17 17" fill="none" xmlns="http://www.w3.org/2000/svg">
<mask id="mask0_757_1395" style="mask-type:alpha" maskUnits="userSpaceOnUse" x="0" y="0" width="17" height="17">
<rect x="0.5" y="0.780273" width="16.0963" height="16" rx="3" fill="url(#paint0_linear_757_1395)"/>
</mask>
<g mask="url(#mask0_757_1395)">
<path d="M8.57421 -3.02979H8.52011C1.97463 -3.02979 -3.33154 2.24619 -3.33154 8.75444V8.80823C-3.33154 15.3165 1.97463 20.5924 8.52011 20.5924H8.57421C15.1197 20.5924 20.4259 15.3165 20.4259 8.80823V8.75444C20.4259 2.24619 15.1197 -3.02979 8.57421 -3.02979Z" fill="url(#paint1_linear_757_1395)"/>
</g>
<path d="M11.4848 3.18262H5.61157C3.98897 3.18262 2.66895 4.49513 2.66895 6.1085V11.4511C2.66895 13.0645 3.98897 14.377 5.61157 14.377H11.4848C13.1074 14.377 14.4275 13.0645 14.4275 11.4511V6.1085C14.4275 4.49513 13.1074 3.18262 11.4848 3.18262ZM3.70701 6.1085C3.70701 5.06444 4.56153 4.21477 5.61157 4.21477H11.4848C12.5349 4.21477 13.3894 5.06444 13.3894 6.1085V11.4511C13.3894 12.4952 12.5349 13.3448 11.4848 13.3448H5.61157C4.56153 13.3448 3.70701 12.4952 3.70701 11.4511V6.1085Z" fill="white"/>
<path d="M8.54769 11.5007C10.0566 11.5007 11.2848 10.2801 11.2848 8.77918C11.2848 7.27822 10.0572 6.05762 8.54769 6.05762C7.03814 6.05762 5.81055 7.27822 5.81055 8.77918C5.81055 10.2801 7.03814 11.5007 8.54769 11.5007ZM8.54769 7.09044C9.48467 7.09044 10.2468 7.84819 10.2468 8.77984C10.2468 9.71149 9.48467 10.4692 8.54769 10.4692C7.6107 10.4692 6.84861 9.71149 6.84861 8.77984C6.84861 7.84819 7.6107 7.09044 8.54769 7.09044Z" fill="white"/>
<path d="M11.5373 6.4988C11.9436 6.4988 12.2748 6.17018 12.2748 5.76552C12.2748 5.36085 11.9443 5.03223 11.5373 5.03223C11.1303 5.03223 10.7998 5.36085 10.7998 5.76552C10.7998 6.17018 11.1303 6.4988 11.5373 6.4988Z" fill="white"/>
<defs>
<linearGradient id="paint0_linear_757_1395" x1="0.5" y1="8.78027" x2="16.5963" y2="8.78027" gradientUnits="userSpaceOnUse">
<stop stop-color="#833AB4"/>
<stop offset="0.5" stop-color="#FD1D1D"/>
<stop offset="1" stop-color="#FCB045"/>
</linearGradient>
<linearGradient id="paint1_linear_757_1395" x1="0.139304" y1="17.1414" x2="16.8591" y2="0.326736" gradientUnits="userSpaceOnUse">
<stop stop-color="#FAAD4F"/>
<stop offset="0.35" stop-color="#DD2A7B"/>
<stop offset="0.62" stop-color="#9537B0"/>
<stop offset="1" stop-color="#515BD4"/>
</linearGradient>
</defs>
</svg>
