<svg width="79" height="24" viewBox="0 0 79 24" fill="none" xmlns="http://www.w3.org/2000/svg">
<g clip-path="url(#clip0_757_1406)">
<path fill-rule="evenodd" clip-rule="evenodd" d="M75.5582 23.1367H2.90719C1.30492 23.1367 0 21.8808 0 20.3512V3.63807C0 2.1029 1.30492 0.852539 2.90719 0.852539H75.5582C77.159 0.852539 78.4654 2.1029 78.4654 3.63807V20.3512C78.4654 21.8808 77.159 23.1367 75.5582 23.1367Z" fill="white"/>
<path fill-rule="evenodd" clip-rule="evenodd" d="M75.5582 1.2985C76.9021 1.2985 78.002 2.35019 78.002 3.63807V20.3512C78.002 21.6391 76.9093 22.6908 75.5582 22.6908H2.90719C1.5633 22.6908 0.463361 21.6391 0.463361 20.3512V3.63807C0.463361 2.35019 1.55608 1.2985 2.90719 1.2985H75.5582ZM75.5582 0.852539H2.90719C1.30492 0.852539 0 2.10846 0 3.63807V20.3512C0 21.8864 1.30492 23.1367 2.90719 23.1367H75.5582C77.159 23.1367 78.4654 21.8864 78.4654 20.3512V3.63807C78.4654 2.10846 77.159 0.852539 75.5582 0.852539Z" fill="#A6A6A6"/>
<path d="M41.336 8.22401C40.812 8.22401 40.3703 8.04757 40.021 7.70025C39.6746 7.36265 39.4811 6.89724 39.4898 6.4221C39.4898 5.91501 39.6688 5.48572 40.021 5.14534C40.3689 4.79802 40.8106 4.62158 41.3346 4.62158C41.8528 4.62158 42.2945 4.79802 42.6496 5.14534C43.0018 5.49683 43.1808 5.92613 43.1808 6.4221C43.175 6.93058 42.9961 7.35987 42.6496 7.69886C42.3017 8.04896 41.86 8.22401 41.336 8.22401ZM25.7449 8.22401C25.2324 8.22401 24.7878 8.05035 24.4241 7.7072C24.0632 7.36543 23.8799 6.93336 23.8799 6.42349C23.8799 5.91362 24.0632 5.48155 24.4241 5.13979C24.7806 4.79663 25.2252 4.62297 25.7449 4.62297C25.9989 4.62297 26.2458 4.6716 26.4825 4.77024C26.7149 4.8661 26.904 4.99669 27.044 5.15646L27.0787 5.19675L26.6875 5.5663L26.6471 5.52045C26.4262 5.2676 26.1303 5.14396 25.7391 5.14396C25.3898 5.14396 25.0852 5.26343 24.834 5.49961C24.5814 5.73718 24.4529 6.04838 24.4529 6.42488C24.4529 6.80138 24.5814 7.11258 24.834 7.35015C25.0852 7.58633 25.3898 7.70581 25.7391 7.70581C26.1115 7.70581 26.4248 7.58633 26.6687 7.35015C26.8131 7.21122 26.9026 7.01672 26.9343 6.77081H25.6799V6.25122H27.4727L27.48 6.29846C27.4929 6.38598 27.5059 6.47628 27.5059 6.55964C27.5059 7.03895 27.3558 7.42656 27.0585 7.71275C26.7207 8.05174 26.279 8.22401 25.7449 8.22401ZM46.4749 8.15038H45.922L44.2288 5.54268L44.2432 6.01226V8.14899H43.6904V4.6966H44.3212L44.3385 4.723L45.9307 7.17926L45.9162 6.71107V4.6966H46.4749V8.15038ZM37.1817 8.15038H36.6216V5.2162H35.6501V4.6966H38.1517V5.2162H37.1802V8.15038H37.1817ZM35.194 8.15038H34.6353V4.6966H35.194V8.15038ZM32.0544 8.15038H31.4957V5.2162H30.5243V4.6966H33.0258V5.2162H32.0544V8.15038ZM30.1706 8.14482H28.0285V4.6966H30.1706V5.2162H28.5886V6.16369H30.0162V6.67773H28.5886V7.62523H30.1706V8.14482ZM40.431 7.3432C40.6807 7.58355 40.9838 7.70442 41.336 7.70442C41.6984 7.70442 41.9943 7.58633 42.2411 7.3432C42.4865 7.10702 42.6106 6.79721 42.6106 6.42349C42.6106 6.04977 42.4865 5.73857 42.2425 5.50378C41.9928 5.26343 41.6882 5.14257 41.3375 5.14257C40.9752 5.14257 40.6792 5.26066 40.4339 5.50378C40.1885 5.73996 40.0643 6.04977 40.0643 6.42349C40.0643 6.79721 40.187 7.10841 40.431 7.3432Z" fill="black"/>
<path fill-rule="evenodd" clip-rule="evenodd" d="M39.4377 12.9726C38.0736 12.9726 36.9679 13.9687 36.9679 15.3428C36.9679 16.7043 38.0808 17.7129 39.4377 17.7129C40.8018 17.7129 41.9075 16.7098 41.9075 15.3428C41.9075 13.9687 40.8018 12.9726 39.4377 12.9726ZM39.4377 16.7737C38.6914 16.7737 38.049 16.1791 38.049 15.3372C38.049 14.4828 38.6928 13.9007 39.4377 13.9007C40.184 13.9007 40.8263 14.4828 40.8263 15.3372C40.8278 16.1847 40.184 16.7737 39.4377 16.7737ZM34.0491 12.9726C32.685 12.9726 31.5793 13.9687 31.5793 15.3428C31.5793 16.7043 32.6922 17.7129 34.0491 17.7129C35.4132 17.7129 36.5189 16.7098 36.5189 15.3428C36.5189 13.9687 35.4118 12.9726 34.0491 12.9726ZM34.0491 16.7737C33.3028 16.7737 32.6605 16.1791 32.6605 15.3372C32.6605 14.4828 33.3043 13.9007 34.0491 13.9007C34.7954 13.9007 35.4378 14.4828 35.4378 15.3372C35.4378 16.1847 34.7954 16.7737 34.0491 16.7737ZM27.6371 13.6964V14.6995H30.1387C30.0622 15.2622 29.8688 15.6776 29.5729 15.9624C29.2062 16.3153 28.6404 16.6987 27.6429 16.6987C26.1056 16.6987 24.9032 15.5039 24.9032 14.0243C24.9032 12.5447 26.1056 11.3499 27.6429 11.3499C28.4729 11.3499 29.0777 11.6653 29.5267 12.0682L30.2657 11.3569C29.6421 10.7817 28.8121 10.3413 27.6487 10.3413C25.5397 10.3413 23.77 11.9946 23.77 14.0188C23.77 16.0485 25.5383 17.6962 27.6487 17.6962C28.7876 17.6962 29.6421 17.3378 30.3177 16.6626C31.0062 15.9999 31.2242 15.0649 31.2242 14.3105C31.2242 14.0757 31.2055 13.8645 31.1665 13.6853H27.6357C27.6371 13.6839 27.6371 13.6964 27.6371 13.6964ZM53.864 14.4772C53.6575 13.9451 53.0339 12.9671 51.755 12.9671C50.4876 12.9671 49.4339 13.9271 49.4339 15.3372C49.4339 16.6681 50.4761 17.7073 51.8777 17.7073C53.0036 17.7073 53.659 17.0446 53.9289 16.6556L53.0931 16.1166C52.816 16.5125 52.4306 16.7723 51.8835 16.7723C51.3306 16.7723 50.9438 16.5306 50.6868 16.0541L53.9794 14.7412C53.9794 14.7426 53.864 14.4772 53.864 14.4772ZM50.5064 15.2691C50.4804 14.3536 51.2455 13.8882 51.7925 13.8882C52.2241 13.8882 52.5836 14.0924 52.7063 14.3897L50.5064 15.2691ZM47.8316 17.5656H48.9128V10.6025H47.8316V17.5656ZM46.0561 13.4992H46.0171C45.7732 13.2199 45.3098 12.9671 44.718 12.9671C43.4896 12.9671 42.3579 14.0076 42.3579 15.3441C42.3579 16.6751 43.4838 17.7032 44.718 17.7032C45.3026 17.7032 45.7732 17.4489 46.0171 17.1641H46.0561V17.5045C46.0561 18.4089 45.5538 18.8966 44.744 18.8966C44.0814 18.8966 43.67 18.4381 43.5026 18.0546L42.5628 18.4325C42.8328 19.0577 43.5531 19.8315 44.7425 19.8315C46.0099 19.8315 47.0839 19.1133 47.0839 17.3614V13.1088H46.0619V13.4992C46.0633 13.4992 46.0561 13.4992 46.0561 13.4992ZM44.8147 16.7737C44.0684 16.7737 43.4448 16.1735 43.4448 15.3441C43.4448 14.5078 44.0684 13.9021 44.8147 13.9021C45.5538 13.9021 46.1268 14.5147 46.1268 15.3441C46.134 16.1735 45.5552 16.7737 44.8147 16.7737ZM58.9263 10.6025H56.341V17.5656H57.4222V14.9287H58.9277C60.1244 14.9287 61.3008 14.0938 61.3008 12.7684C61.3008 11.443 60.1287 10.6025 58.9263 10.6025ZM58.958 13.9562H57.4207V11.5667H58.958C59.7678 11.5667 60.2254 12.2099 60.2254 12.7615C60.2254 13.3074 59.7621 13.9562 58.958 13.9562ZM65.6342 12.9601C64.8489 12.9601 64.0391 13.2949 63.7042 14.0243L64.6627 14.4078C64.8691 14.0243 65.2473 13.8937 65.6472 13.8937C66.2073 13.8937 66.7731 14.216 66.7861 14.7912V14.8648C66.5927 14.7593 66.1683 14.5981 65.6602 14.5981C64.6252 14.5981 63.5758 15.1427 63.5758 16.1638C63.5758 17.0988 64.4245 17.699 65.37 17.699C66.0961 17.699 66.496 17.3836 66.7457 17.0182H66.7847V17.5573H67.8269V14.8898C67.8269 13.6478 66.8684 12.9601 65.6342 12.9601ZM65.4985 16.7737C65.1448 16.7737 64.6497 16.607 64.6497 16.1791C64.6497 15.6401 65.2675 15.4358 65.7944 15.4358C66.2708 15.4358 66.496 15.5345 66.7789 15.6706C66.7009 16.2958 66.1524 16.7682 65.4985 16.7737ZM71.629 13.1088L70.3876 16.1291H70.3486L69.0625 13.1088H67.899L69.829 17.3308L68.729 19.6773H69.855L72.8242 13.1088H71.629ZM61.897 17.5656H62.9782V10.6025H61.897V17.5656Z" fill="black"/>
<path d="M12.0914 11.5986L5.84424 17.898C5.91596 18.1362 6.04291 18.3557 6.21553 18.5399C6.38815 18.7241 6.60194 18.8682 6.8408 18.9614C7.07967 19.0546 7.33738 19.0943 7.59454 19.0778C7.85169 19.0612 8.10159 18.9887 8.32542 18.8657L15.3547 15.0126L12.0914 11.5986Z" fill="#EA4335"/>
<path d="M18.4091 10.5277L15.3693 8.85205L11.9478 11.7419L15.3832 15.0035L18.3998 13.3458C18.5924 13.2494 18.7634 13.1174 18.9029 12.9572C19.0423 12.797 19.1475 12.6119 19.2124 12.4125C19.2773 12.213 19.3006 12.0032 19.281 11.7951C19.2613 11.587 19.1992 11.3847 19.098 11.1997C18.9402 10.9136 18.697 10.6796 18.3998 10.5277H18.4091Z" fill="#FBBC04"/>
<path d="M5.84444 5.94434C5.80727 6.07881 5.78849 6.21738 5.78857 6.35653V17.4857C5.78849 17.6248 5.80727 17.7634 5.84444 17.8978L12.3057 11.7598L5.84444 5.94434Z" fill="#4285F4"/>
<path d="M12.138 11.921L15.3686 8.85194L8.34869 4.98094C8.08452 4.83228 7.78421 4.75345 7.47819 4.75244C7.10856 4.75174 6.74883 4.86738 6.45384 5.08173C6.15885 5.29608 5.94477 5.59739 5.84424 5.93973L12.138 11.921Z" fill="#34A853"/>
</g>
<defs>
<clipPath id="clip0_757_1406">
<rect width="78.4654" height="22.2842" fill="white" transform="translate(0 0.852539)"/>
</clipPath>
</defs>
</svg>
