<svg width="50" height="90" viewBox="0 0 50 90" fill="none" xmlns="http://www.w3.org/2000/svg">
<g opacity="0.58">
<path d="M24.6806 88.8246C22.2654 84.8914 0.251953 48.8113 0.251953 36.0787C0.251953 22.5896 11.1958 11.5967 24.6806 11.5967C38.1654 11.5967 49.1091 22.5644 49.1091 36.0787C49.1091 48.8365 27.1209 84.9166 24.6806 88.8246Z" fill="black"/>
<path d="M24.6802 11.848C38.014 11.848 48.8572 22.7149 48.8572 36.0779C48.8572 48.4575 27.9508 83.0248 24.6802 88.3448C21.4096 82.9996 0.503164 48.4323 0.503164 36.0779C0.528322 22.7149 11.3715 11.848 24.6802 11.848ZM24.6802 11.3438C11.0445 11.3438 0 22.4123 0 36.0779C0 49.7434 24.6802 89.3029 24.6802 89.3029C24.6802 89.3029 49.3604 49.7182 49.3604 36.0779C49.3604 22.4123 38.3159 11.3438 24.6802 11.3438Z" fill="black"/>
</g>
<path d="M24.6801 77.4799C22.2649 73.5466 0.251465 37.4666 0.251465 24.7339C0.251465 11.2449 11.1953 0.251953 24.6801 0.251953C38.1649 0.251953 49.1087 11.2197 49.1087 24.7339C49.1087 37.4666 27.1204 73.5466 24.6801 77.4799Z" fill="url(#paint0_radial_757_858)"/>
<path d="M24.6802 0.504263C38.014 0.504263 48.8572 11.3711 48.8572 24.7341C48.8572 37.1138 27.9508 71.681 24.6802 77.001C21.4096 71.6558 0.503164 37.0886 0.503164 24.7341C0.528322 11.3711 11.3715 0.504263 24.6802 0.504263ZM24.6802 0C11.0445 0 0 11.0686 0 24.7341C0 38.3997 24.6802 77.9591 24.6802 77.9591C24.6802 77.9591 49.3604 38.3744 49.3604 24.7341C49.3604 11.0686 38.3159 0 24.6802 0Z" fill="#C1272D"/>
<path opacity="0.28" d="M25.058 35.398C31.5745 35.398 36.8572 30.1038 36.8572 23.573C36.8572 17.0423 31.5745 11.748 25.058 11.748C18.5415 11.748 13.2588 17.0423 13.2588 23.573C13.2588 30.1038 18.5415 35.398 25.058 35.398Z" fill="#E34508"/>
<path d="M25.058 32.2711C29.8516 32.2711 33.7376 28.3766 33.7376 23.5726C33.7376 18.7685 29.8516 14.874 25.058 14.874C20.2644 14.874 16.3784 18.7685 16.3784 23.5726C16.3784 28.3766 20.2644 32.2711 25.058 32.2711Z" fill="url(#paint1_radial_757_858)"/>
<path d="M21.4846 21.2783C22.2905 21.2783 22.9437 20.6235 22.9437 19.8159C22.9437 19.0082 22.2905 18.3535 21.4846 18.3535C20.6787 18.3535 20.0254 19.0082 20.0254 19.8159C20.0254 20.6235 20.6787 21.2783 21.4846 21.2783Z" fill="white"/>
<defs>
<radialGradient id="paint0_radial_757_858" cx="0" cy="0" r="1" gradientUnits="userSpaceOnUse" gradientTransform="translate(17.9633 16.743) scale(40.1553 40.243)">
<stop stop-color="#FAF537"/>
<stop offset="1" stop-color="#FFD20A"/>
</radialGradient>
<radialGradient id="paint1_radial_757_858" cx="0" cy="0" r="1" gradientUnits="userSpaceOnUse" gradientTransform="translate(22.6461 21.2497) scale(14.0671 14.0979)">
<stop stop-color="#FF551D"/>
<stop offset="1" stop-color="#D84511"/>
</radialGradient>
</defs>
</svg>
