<svg width="619" height="661" viewBox="0 0 619 661" fill="none" xmlns="http://www.w3.org/2000/svg">
<path fill-rule="evenodd" clip-rule="evenodd" d="M213.302 297.996C213.302 259.784 212.405 240.044 232.335 215.63C237.777 208.955 251.083 199.917 263.027 195.7C281.146 189.301 337.821 189.206 355.672 195.622C367.237 199.779 381.233 209.412 386.261 215.638C408.511 243.183 405.311 263.25 405.311 297.987L426.638 297.978C426.638 323.755 426.638 349.531 426.638 375.317C426.638 430.587 428.018 425.266 394.298 458.976C388.003 465.271 381.535 472.593 374.904 478.216C356.88 493.506 337.123 489.979 309.302 489.979C253.049 489.979 258.155 492.876 224.28 459.002C190.51 425.231 191.967 430.699 191.967 375.308C191.967 349.531 191.967 323.755 191.967 297.97L213.294 297.978L213.302 297.996ZM47.5355 158.885C33.7547 228.238 47.1992 332.223 72.6911 398.618C93.1554 451.905 129.263 505.536 171.727 540.928C195.287 560.564 200.668 565.04 231.826 583.452C249.677 593.999 283.31 608.668 304.568 614.834C317.667 618.637 367.039 594.24 378.086 588.117C437.004 555.476 485.047 513.66 519.576 453.603C567.516 370.229 582.901 273.651 572.656 170.441C570.914 152.9 570.578 158.471 531.124 142.879C478.872 122.234 385.761 84.0736 337.89 60.0736C303.783 42.9726 312.148 45.9564 289.838 55.8393C225.108 84.5307 164.285 113.11 97.1569 139.171C83.0656 144.639 60.178 152.15 47.5441 158.885H47.5355Z" fill="url(#paint0_linear_2987_622)"/>
<path fill-rule="evenodd" clip-rule="evenodd" d="M47.5283 158.885C60.1621 152.15 83.0497 144.638 97.141 139.171C164.269 113.11 225.101 84.5391 289.823 55.8391C312.132 45.9476 303.759 42.9724 337.874 60.0734C385.745 84.0734 478.856 122.234 531.108 142.879C570.562 158.471 570.898 152.9 572.64 170.441C582.885 273.65 567.509 370.228 519.561 453.603C485.022 513.659 436.988 555.476 378.07 588.117C367.023 594.24 317.652 618.637 304.552 614.834C283.294 608.668 249.662 593.999 231.81 583.452C200.652 565.04 195.271 560.564 171.711 540.928C129.247 505.536 93.1395 451.904 72.6753 398.618C47.1833 332.223 33.7388 228.238 47.5196 158.885H47.5283ZM9.00575 127.054C5.04742 160.498 0.373325 187.792 0.0283728 223.331C-0.299332 256.67 2.2102 290.165 7.63457 322.177C17.6468 381.198 37.654 435.183 64.2757 479.043C75.478 497.507 84.3346 510.296 97.5377 525.759L109.939 539.996C141.873 578.286 187.234 608.487 231.853 631.486C243.547 637.514 296.963 660.299 309.295 660.273C328.397 660.238 398.534 627.011 420.404 613.109C439.523 600.958 450.803 593.835 466.964 579.666C492.284 557.477 511.256 540.402 532.419 511.823C539.637 502.078 547.105 490.875 553.806 479.854C598.839 405.871 619.286 315.321 618.562 224.667C618.269 188.758 613.776 160.989 609.593 126.968C598.624 124.191 546.639 103.201 532.436 97.5179C490.067 80.5463 422.81 52.8811 382.796 33.7967C374.534 29.8556 311.063 -0.0172401 309.338 7.46568e-06C307.605 0.0172551 244.392 29.5796 236.683 33.3569C196.272 53.1485 130.748 79.1406 87.1115 97.1471C73.8826 102.606 19.4233 124.476 8.99713 127.054H9.00575Z" fill="url(#paint1_linear_2987_622)"/>
<path fill-rule="evenodd" clip-rule="evenodd" d="M295.222 401.999C283.675 393.185 273.516 382.828 278.337 364.321C286.616 332.543 333.227 333.069 340.454 365.554C344.705 384.665 333.417 394.048 323.284 401.999C324.095 412.502 327.061 422.558 328.165 432.708C329.709 446.963 321.904 447.368 309.322 447.368C295.791 447.368 288.461 446.791 290.496 431.449C291.781 421.756 294.498 411.976 295.231 401.999H295.222ZM405.314 298.004H383.97H234.649H213.305L191.978 297.996C191.978 323.772 191.978 349.557 191.978 375.334C191.978 430.716 190.521 425.257 224.291 459.028C258.166 492.902 253.069 490.005 309.313 490.005C337.142 490.005 356.891 493.523 374.915 478.242C381.538 472.628 388.014 465.297 394.31 459.002C428.029 425.283 426.649 430.612 426.649 375.342C426.649 349.566 426.649 323.789 426.649 298.004L405.322 298.013L405.314 298.004Z" fill="white"/>
<path fill-rule="evenodd" clip-rule="evenodd" d="M234.649 297.995H383.97C383.97 270.934 387.153 248.788 370.897 231.092C353.563 212.223 341.041 212.671 309.314 212.671C277.475 212.671 265.16 212.266 247.723 231.083C231.519 248.572 234.649 270.994 234.649 297.995Z" fill="url(#paint2_linear_2987_622)"/>
<path fill-rule="evenodd" clip-rule="evenodd" d="M213.303 297.996H234.647C234.647 270.994 231.516 248.573 247.721 231.084C265.158 212.258 277.473 212.672 309.312 212.672C341.047 212.672 353.56 212.223 370.894 231.092C387.15 248.788 383.968 270.934 383.968 297.996H405.312C405.312 263.259 408.511 243.191 386.262 215.647C381.226 209.421 367.229 199.779 355.673 195.631C337.822 189.215 281.146 189.301 263.028 195.709C251.092 199.926 237.786 208.963 232.336 215.638C212.406 240.052 213.303 259.801 213.303 298.004V297.996Z" fill="white"/>
<path fill-rule="evenodd" clip-rule="evenodd" d="M295.219 401.998C294.486 411.968 291.778 421.756 290.485 431.449C288.449 446.79 295.78 447.368 309.31 447.368C321.893 447.368 329.697 446.963 328.153 432.708C327.05 422.566 324.083 412.502 323.272 401.998C333.405 394.047 344.685 384.656 340.442 365.554C333.224 333.068 286.604 332.542 278.325 364.321C273.504 382.828 283.663 393.194 295.211 401.998H295.219Z" fill="url(#paint3_linear_2987_622)"/>
<defs>
<linearGradient id="paint0_linear_2987_622" x1="308.851" y1="47.832" x2="308.851" y2="615.234" gradientUnits="userSpaceOnUse">
<stop stop-color="#FA5054"/>
<stop offset="1" stop-color="#FD7A42"/>
</linearGradient>
<linearGradient id="paint1_linear_2987_622" x1="0" y1="330.136" x2="618.58" y2="330.136" gradientUnits="userSpaceOnUse">
<stop stop-color="#FA9372"/>
<stop offset="1" stop-color="#FA9372"/>
</linearGradient>
<linearGradient id="paint2_linear_2987_622" x1="309.314" y1="212.67" x2="309.314" y2="297.995" gradientUnits="userSpaceOnUse">
<stop stop-color="#FA5054"/>
<stop offset="1" stop-color="#FD7A42"/>
</linearGradient>
<linearGradient id="paint3_linear_2987_622" x1="309.229" y1="340.834" x2="309.229" y2="447.368" gradientUnits="userSpaceOnUse">
<stop stop-color="#FA5054"/>
<stop offset="1" stop-color="#FD7A42"/>
</linearGradient>
</defs>
</svg>
