<svg width="24" height="24" viewBox="0 0 24 24" fill="none" xmlns="http://www.w3.org/2000/svg">
<mask id="mask0_2978_650" style="mask-type:alpha" maskUnits="userSpaceOnUse" x="0" y="0" width="24" height="24">
<rect width="24" height="24" fill="#E68080"/>
</mask>
<g mask="url(#mask0_2978_650)">
<path fill-rule="evenodd" clip-rule="evenodd" d="M11.5554 23.8964C11.6882 23.9658 11.8368 24.0011 11.9854 23.9999C12.134 23.9988 12.2814 23.9623 12.4155 23.8917L16.697 21.603C17.9111 20.9558 18.8619 20.2321 19.6036 19.3895C21.2164 17.5538 22.0971 15.211 22.0814 12.7952L22.0307 4.82638C22.0258 3.90853 21.423 3.08953 20.5314 2.79182L12.5665 0.119477C12.0869 -0.0429111 11.5614 -0.0393809 11.0902 0.127714L3.15553 2.89537C2.2688 3.20485 1.67684 4.02974 1.68167 4.94876L1.73241 12.9117C1.74811 15.331 2.65901 17.6633 4.29838 19.4801C5.0474 20.3109 6.00662 21.024 7.23403 21.6606L11.5554 23.8964Z" fill="white"/>
<path fill-rule="evenodd" clip-rule="evenodd" d="M15.1946 8.03778V8.95776C16.228 9.28031 16.9809 10.2158 16.9809 11.3331V14.2951C16.9809 15.6784 15.8341 16.7999 14.4203 16.7999H9.34244C7.92802 16.7999 6.78125 15.6784 6.78125 14.2951V11.3331C6.78125 10.2158 7.53479 9.28031 8.56756 8.95776V8.03778C8.57366 6.24911 10.0551 4.80029 11.8719 4.80029C13.7131 4.80029 15.1946 6.24911 15.1946 8.03778ZM11.8864 5.84399C13.124 5.84399 14.1299 6.82776 14.1299 8.03809V8.82869H9.63672V8.02617C9.64282 6.8218 10.6488 5.84399 11.8864 5.84399ZM12.4146 13.4725C12.4146 13.7646 12.1768 13.9971 11.8781 13.9971C11.5854 13.9971 11.3477 13.7646 11.3477 13.4725V12.1488C11.3477 11.8627 11.5854 11.6301 11.8781 11.6301C12.1768 11.6301 12.4146 11.8627 12.4146 12.1488V13.4725Z" fill="black"/>
</g>
</svg>
