<svg width="44" height="41" viewBox="0 0 44 41" fill="none" xmlns="http://www.w3.org/2000/svg">
<path d="M42.7159 39.978V39.9813H1.81429C1.81263 39.9813 1.81263 39.9797 1.81263 39.978C1.81179 39.9688 1.81512 39.9398 1.82177 39.8932C1.88994 39.263 2.38128 35.324 4.25768 32.0875C5.0508 30.7307 6.10997 29.5294 7.36201 28.5791C10.2776 26.1889 14.6797 26.1332 14.9906 26.1324H14.9931C14.9981 26.1324 15.0031 26.1316 15.0081 26.1316C15.3365 26.1149 15.6765 26.1008 15.9791 26.0908L16.9967 26.0916V26.1266C17.0142 29.0214 19.3661 31.3625 22.2643 31.3625C25.1633 31.3625 27.5144 29.0214 27.5318 26.1266V26.0975L28.5527 26.0983C29.0965 26.0991 29.641 26.1091 30.1831 26.144C30.1831 26.144 34.2052 26.144 37.2297 28.6232C38.4469 29.5859 39.4861 30.7456 40.2709 32.0875C42.1473 35.324 42.6386 39.263 42.7068 39.8932C42.7134 39.9398 42.7168 39.9688 42.7159 39.978Z" fill="#FF5C7D"/>
<path d="M14.5583 17.4567H13.5524C12.8831 17.4567 12.277 17.1857 11.8389 16.7467C11.6132 16.5222 11.4343 16.2551 11.3124 15.961C11.1906 15.6669 11.1282 15.3516 11.1289 15.0333V15.005C11.1289 14.3357 11.3991 13.7297 11.8389 13.2915C12.0636 13.066 12.3306 12.8872 12.6247 12.7653C12.9188 12.6435 13.234 12.581 13.5524 12.5815H14.3463C14.3388 13.2134 14.3422 14.0988 14.348 14.596C14.3382 15.5021 14.3548 16.4127 14.5267 17.3054C14.5367 17.3561 14.5475 17.4068 14.5583 17.4567ZM33.4204 15.0191C33.4204 15.0241 33.4212 15.0291 33.4212 15.0333C33.4212 15.7025 33.1502 16.3086 32.7112 16.7467C32.4866 16.9722 32.2195 17.151 31.9254 17.2729C31.6314 17.3947 31.3161 17.4572 30.9978 17.4567H29.9652L29.9702 17.4326C29.9794 17.3927 29.9885 17.3519 29.996 17.312C30.1593 16.5177 30.178 15.701 30.1722 14.8927C30.1864 14.3075 30.183 13.1959 30.1764 12.5815H30.9978C31.667 12.5815 32.2731 12.8526 32.7112 13.2915C32.9367 13.5162 33.1156 13.7832 33.2374 14.0773C33.3593 14.3714 33.4217 14.6867 33.4212 15.005C33.4212 15.0091 33.4204 15.0141 33.4204 15.0191ZM27.5297 21.5916V26.1267C27.5123 29.0215 25.1612 31.3626 22.2622 31.3626C19.364 31.3626 17.0121 29.0215 16.9946 26.1267V21.5932C17.5681 22.1077 18.2141 22.5351 18.9118 22.8619C19.9285 23.3391 21.0633 23.606 22.2613 23.606C23.4593 23.606 24.595 23.3391 25.6126 22.8619C26.31 22.5339 26.9558 22.106 27.5297 21.5916Z" fill="#FFD0C6"/>
<path d="M30.173 14.8923C30.1788 15.7561 30.1564 16.6207 29.9652 17.4596C29.1687 20.9779 26.0228 23.6059 22.2626 23.6059C18.5031 23.6059 15.3572 20.9779 14.5599 17.4596C14.3554 16.5259 14.3396 15.5591 14.3496 14.5963C14.3454 14.2314 14.3421 13.3509 14.3446 12.5811H14.3479C15.935 12.5811 17.0416 12.1122 17.8106 11.5003C18.9412 10.5983 20.2041 9.89412 21.5451 9.41442C22.8869 8.93555 24.3069 8.68115 25.7526 8.68115C26.258 10.2991 28.0594 10.629 29.2038 10.6694C29.7496 10.6886 30.1837 11.1358 30.1774 11.6818L30.1773 11.6924C30.1838 12.2934 30.188 14.2887 30.173 14.8923Z" fill="#FFD0C6"/>
<path d="M33.1378 13.8657C33.0255 13.654 32.882 13.4604 32.7122 13.2913C32.4875 13.0657 32.2205 12.8869 31.9264 12.7651C31.6323 12.6432 31.317 12.5807 30.9987 12.5813H30.1831V11.6738C30.1831 11.13 29.7504 10.6886 29.207 10.6698C28.0627 10.6301 26.258 10.3012 25.752 8.68132C24.3062 8.68132 22.8862 8.93572 21.5444 9.41459C20.2034 9.89429 18.9406 10.5985 17.8099 11.5005C17.0409 12.1124 15.9343 12.5813 14.3473 12.5813H13.5533C12.884 12.5813 12.278 12.8523 11.8398 13.2913V11.375C11.8398 5.57782 16.1255 0.856484 21.9218 0.832374C22.0166 0.831543 22.5071 0.831543 22.6036 0.831543C28.0033 0.831543 29.9662 4.54443 29.9662 4.54443C29.9662 4.54443 33.137 5.45727 33.1378 13.8657Z" fill="#868EAF"/>
<path d="M43.5312 39.7899C43.4434 38.9874 42.9247 35.0085 40.9878 31.6677C40.1719 30.2726 39.0827 29.0304 37.7505 27.9756C34.6377 25.428 30.6269 25.3172 30.2118 25.3128C29.7312 25.2826 29.2033 25.2679 28.5527 25.2669L28.3626 25.2668V21.9496C29.4003 20.9336 30.1743 19.6695 30.6025 18.288H30.9992C31.8695 18.288 32.687 17.9492 33.2999 17.3351C33.9152 16.7211 34.2541 15.9036 34.2541 15.0332L34.2539 15.0192L34.2541 15.0049C34.2547 14.5449 34.1576 14.0901 33.9691 13.6704C33.9258 6.34043 31.4963 4.37591 30.5411 3.88698C29.9409 2.95975 27.6312 0 22.6045 0C22.5071 0 22.0114 1.90471e-08 21.9193 0.000831387C18.9113 0.0133019 16.1353 1.20947 14.1027 3.36879C12.1079 5.48803 11.0094 8.33131 11.0094 11.3749V12.9756C10.5494 13.5491 10.299 14.257 10.299 15.0049V15.0332C10.299 15.9047 10.638 16.7225 11.252 17.334C11.866 17.9492 12.6835 18.2881 13.5538 18.2881H13.9233C14.3522 19.6705 15.1266 20.9348 16.1647 21.9509V25.2598C15.7657 25.2595 15.3667 25.2812 14.9683 25.3013C14.662 25.3034 12.6466 25.3453 10.4439 26.0484C10.0065 26.1881 9.76505 26.6558 9.90472 27.0932C10.0443 27.5306 10.5123 27.7723 10.9495 27.6323C12.9683 26.988 14.7911 26.9644 14.9924 26.9638C15.4018 26.9638 15.8109 26.9221 16.2207 26.9224C16.5318 29.1947 18.159 31.1416 20.3263 31.876C20.9505 32.0866 21.6048 32.194 22.2635 32.194C24.5572 32.194 26.7519 30.8359 27.7456 28.7602C28.0225 28.1819 28.2168 27.5656 28.3048 26.9296L28.5507 26.9298C29.1759 26.9307 29.6774 26.9447 30.1288 26.9737C30.1456 26.9748 30.164 26.9754 30.1809 26.9755C30.2183 26.9756 33.9544 27.0141 36.7019 29.2662C36.7057 29.2693 36.7094 29.2724 36.7133 29.2753C37.885 30.2021 38.8402 31.2896 39.5509 32.5046C40.9385 34.8981 41.5376 37.7454 41.7641 39.1501H38.0228V37.4782C38.0228 37.0192 37.6505 36.6469 37.1914 36.6469C36.7323 36.6469 36.36 37.0192 36.36 37.4782V39.1501H8.70348V37.4782C8.70348 37.0192 8.33119 36.6469 7.87211 36.6469C7.41303 36.6469 7.04074 37.0192 7.04074 37.4782V39.1501H2.7631C2.98948 37.7455 3.58832 34.8987 4.97487 32.5072C5.16198 32.1873 5.36477 31.8769 5.58252 31.577C5.85213 31.2053 5.76958 30.6855 5.39796 30.4158C5.02634 30.1462 4.50648 30.2287 4.23678 30.6003C3.98637 30.9454 3.75311 31.3027 3.53785 31.6707C1.60251 35.0085 1.0839 38.9874 0.996112 39.7899C0.985138 39.8678 0.977074 39.9411 0.981896 40.0251C1.00642 40.4625 1.37023 40.8127 1.8136 40.8127H42.7152C43.1595 40.8127 43.5223 40.4611 43.5454 40.0224C43.5501 39.9396 43.542 39.867 43.5312 39.7899ZM32.5912 15.0533C32.5872 15.4691 32.4195 15.8664 32.1244 16.1593C31.8244 16.4598 31.4248 16.6252 30.9993 16.6252H30.9405C30.9717 16.3162 31.0542 13.414 31.0231 13.4135C31.4376 13.4183 31.8335 13.5858 32.1255 13.8799C32.443 14.1969 32.5753 14.6076 32.5912 15.0533ZM32.2485 11.9967C31.8575 11.8349 31.4387 11.751 31.0155 11.7496C31.0232 10.8798 30.4733 10.0966 29.6108 9.88929C29.3169 9.81862 29.0071 9.83442 28.7082 9.79892C28.2314 9.74222 27.7453 9.62766 27.3279 9.38199C27.2235 9.32045 27.125 9.24958 27.0334 9.17024C28.0678 8.75173 29.5363 7.83506 30.389 5.8717C31.0482 6.60863 32.0036 8.2973 32.2485 11.9967ZM12.6722 11.3748C12.6722 8.75655 13.6102 6.31798 15.3135 4.50834C17.0304 2.68449 19.3788 1.67404 21.93 1.66348C22.0237 1.66265 22.509 1.66307 22.6045 1.66265C26.6397 1.66265 28.526 3.88515 29.0651 4.6678C28.2205 7.30041 26.0201 7.79033 25.6817 7.85044C24.182 7.85851 22.6966 8.12072 21.2653 8.63151C19.8318 9.1443 18.4951 9.89079 17.2932 10.8497C17.2463 10.887 17.1984 10.9232 17.1497 10.9582C16.418 11.4835 15.4765 11.7496 14.3449 11.7496C13.7848 11.7496 13.2178 11.7171 12.6722 11.8698V11.3748ZM12.4271 16.1576C12.1271 15.8586 11.9617 15.4594 11.9617 15.0331V15.0049C11.9617 14.5787 12.127 14.1794 12.4287 13.8788C12.7157 13.5918 13.1074 13.4248 13.5128 13.4145C13.5144 14.4828 13.4777 15.5609 13.5887 16.6252H13.5538C13.1283 16.6252 12.7287 16.4598 12.4271 16.1576ZM15.3728 17.2835C15.3528 17.1891 15.3346 17.0944 15.3183 16.9994C15.2527 16.6054 15.2234 16.1993 15.1947 15.7692C15.1609 14.9721 15.1753 14.1698 15.1757 13.372C16.3151 13.2574 17.4279 12.8677 18.3294 12.1503C19.3886 11.3053 20.5649 10.6482 21.8249 10.1975C22.9252 9.80482 24.0613 9.57936 25.2099 9.52532C25.742 10.5096 26.7526 11.1526 28.1456 11.396C28.3173 11.428 28.4922 11.4485 28.6659 11.4652C28.8058 11.4787 28.7781 11.4811 29.3467 11.5259C29.3498 11.5262 29.3483 14.0037 29.3447 14.75C29.331 15.597 29.3443 16.4445 29.1547 17.276C28.8311 18.7055 28.0545 20.0126 26.9549 20.991C23.0237 24.4867 16.5391 22.4239 15.3728 17.2835ZM17.8274 26.1265V23.2278C19.2807 24.0858 20.9701 24.5042 22.6557 24.4279C24.0818 24.3647 25.4705 23.9522 26.6999 23.2267V26.1215C26.6852 28.553 24.6952 30.5312 22.2637 30.5312C19.8322 30.5312 17.842 28.553 17.8274 26.1265Z" fill="black"/>
<path d="M20.3883 15.2638C20.8474 15.2638 21.2197 14.8916 21.2197 14.4325C21.2197 14.1002 21.3535 13.7922 21.5967 13.5653C21.8395 13.3385 22.1571 13.2256 22.4914 13.2495C23.0765 13.2898 23.5481 13.7615 23.5884 14.3465C23.625 14.8772 23.3026 15.3719 22.8043 15.5498C22.0684 15.8124 21.5741 16.515 21.5741 17.2984V17.824C21.5741 18.2831 21.9464 18.6554 22.4055 18.6554C22.8645 18.6554 23.2368 18.2831 23.2368 17.824V17.2984C23.2368 17.2161 23.2875 17.1427 23.3632 17.1158C24.56 16.6886 25.3349 15.5029 25.2472 14.2321C25.1501 12.8234 24.0145 11.6878 22.6058 11.5907C21.8062 11.5349 21.0454 11.8051 20.4621 12.3497C20.177 12.6166 19.9496 12.9392 19.7939 13.2974C19.6382 13.6556 19.5576 14.0419 19.5569 14.4325C19.5569 14.8916 19.9291 15.2638 20.3883 15.2638ZM23.1745 20.1345C23.0459 19.8263 22.7373 19.622 22.4039 19.6219C22.0346 19.6217 21.705 19.8767 21.606 20.2312C21.4031 20.9577 22.2416 21.5595 22.8677 21.1439C23.1948 20.9267 23.323 20.4968 23.1745 20.1345ZM6.59284 28.8972C6.73151 29.2298 7.08135 29.4437 7.44158 29.4067C7.80156 29.3697 8.10385 29.0969 8.17493 28.7417C8.31975 28.0181 7.48257 27.4804 6.88199 27.8996C6.56573 28.1204 6.44743 28.5421 6.59284 28.8972Z" fill="black"/>
</svg>
